<svg width="149" height="149" viewBox="0 0 149 149" fill="none" xmlns="http://www.w3.org/2000/svg">
<path fill-rule="evenodd" clip-rule="evenodd" d="M83.9686 3.27472L142.145 46.5947C147.902 50.8788 150.241 58.3859 147.935 65.1817L123.343 137.677C121.067 144.391 114.766 148.909 107.676 148.91H40.508C33.367 148.913 27.03 144.334 24.7913 137.553L0.835896 65.0493C-1.38878 58.3145 0.92713 50.9109 6.59314 46.6443L64.1491 3.32435C70.0152 -1.08967 78.0886 -1.10988 83.9768 3.27472H83.9686Z" fill="white"/>
<mask id="mask0_918_10695" style="mask-type:alpha" maskUnits="userSpaceOnUse" x="0" y="0" width="149" height="149">
<path fill-rule="evenodd" clip-rule="evenodd" d="M83.9686 3.27472L142.145 46.5947C147.902 50.8788 150.241 58.3859 147.935 65.1817L123.343 137.677C121.067 144.391 114.766 148.909 107.676 148.91H40.508C33.367 148.913 27.03 144.334 24.7913 137.553L0.835896 65.0493C-1.38878 58.3145 0.92713 50.9109 6.59314 46.6443L64.1491 3.32435C70.0152 -1.08967 78.0886 -1.10988 83.9768 3.27472H83.9686Z" fill="#7364DB"/>
</mask>
<g mask="url(#mask0_918_10695)">
<circle cx="102.894" cy="33.5793" r="42.3371" fill="#3CB2CC"/>
<rect x="11.3068" y="21.6934" width="61.8879" height="61.8879" rx="11.84" transform="rotate(45 11.3068 21.6934)" fill="#FF7E1D"/>
<path d="M82.5559 90.7158C89.9822 85.8758 99.8817 90.7484 100.576 99.5855L105.94 167.85C106.649 176.876 97.2623 183.242 89.1389 179.243L26.4082 148.366C18.2848 144.368 17.6036 133.047 25.189 128.103L82.5559 90.7158Z" fill="#FFC800"/>
</g>
</svg>
