<svg width="49" height="102" viewBox="0 0 49 102" fill="none" xmlns="http://www.w3.org/2000/svg">
<path d="M44.4002 95.0155H5.17607L0.664062 59.5691H48.9192L44.4002 95.0155Z" fill="#FFA8D3"/>
<path d="M24.7917 67.3926C38.117 67.3926 48.9192 63.8899 48.9192 59.569C48.9192 55.2481 38.117 51.7454 24.7917 51.7454C11.4664 51.7454 0.664062 55.2481 0.664062 59.569C0.664062 63.8899 11.4664 67.3926 24.7917 67.3926Z" fill="#FD71AF"/>
<path d="M24.7921 101.66C35.6216 101.66 44.4006 98.8149 44.4006 95.3051C44.4006 91.7954 35.6216 88.9502 24.7921 88.9502C13.9626 88.9502 5.18359 91.7954 5.18359 95.3051C5.18359 98.8149 13.9626 101.66 24.7921 101.66Z" fill="#FFA8D3"/>
<path d="M21.4516 34.1637C19.87 37.2565 18.9026 40.7941 18.5848 44.6635C18.4295 46.5559 18.4507 48.4553 18.6555 50.3194C18.8602 52.24 19.2556 59.6818 19.8346 61.3694C20.4066 63.064 21.1621 64.6174 22.0801 65.9873C22.0942 66.0296 22.1154 66.072 22.1436 66.1003L22.186 66.1497C22.186 66.1497 22.2142 66.1921 22.2354 66.2132C22.4331 66.0861 22.6308 65.959 22.8285 65.839C23.4075 65.2882 23.9583 64.6316 24.5585 63.7984C25.0598 63.0993 25.54 62.3297 25.9778 61.4965C26.7827 59.9713 27.4465 52.6425 27.9337 50.7925C28.3785 49.112 28.6892 47.2761 28.8587 45.3273C29.0069 43.5832 29.0352 41.7261 28.9363 39.8126C28.8798 38.704 28.781 37.5389 28.6327 36.3456C28.6539 36.3244 28.668 36.2891 28.6821 36.2538C28.7033 36.1832 28.6963 36.1197 28.6539 36.0349C28.6256 35.9784 28.5974 35.9219 28.5692 35.8655L28.5339 35.6254L28.4985 35.3782C28.4915 35.3076 28.4279 35.237 28.3715 35.2088C28.3079 35.1664 28.2302 35.1593 28.1526 35.1735C28.0961 35.1876 28.0466 35.2229 28.0113 35.2653C27.8348 35.1311 27.623 35.0111 27.3688 34.9051C27.1075 34.7922 26.811 34.7074 26.4508 34.6298C26.126 34.5662 25.7659 34.5239 25.3705 34.4956C24.6926 34.4532 23.9724 34.4956 23.1745 34.6086C22.8568 34.651 22.5673 34.7074 22.2919 34.771C22.0801 34.8204 21.8682 34.884 21.6846 34.9475C21.7694 34.7851 21.8541 34.6156 21.9388 34.4532C22.0165 34.305 21.9741 34.1426 21.847 34.0649C21.7835 34.0296 21.6988 34.0155 21.6282 34.0296C21.5575 34.0437 21.494 34.0931 21.4587 34.1567M19.3969 42.5876L19.411 42.5381C19.4039 42.6017 19.3898 42.6652 19.3827 42.7288C19.3827 42.6794 19.3969 42.637 19.4039 42.5876" fill="#B65F44"/>
<path d="M19.6089 31.5723C19.5241 31.5935 19.4465 31.6571 19.4041 31.7489C19.3053 31.9607 19.2346 32.1796 19.1923 32.4267C19.157 32.6244 19.1499 32.8433 19.1711 33.0834C19.2064 33.4718 19.3547 33.8742 19.623 34.2767C19.8419 34.6157 20.1596 34.9334 20.5833 35.2511C20.9575 35.5336 21.4024 35.7878 21.939 36.0279C22.4121 36.2397 22.9417 36.4162 23.5066 36.5574C24.0856 36.6987 24.6646 36.7975 25.2365 36.8469C26.211 36.9317 27.1289 36.8681 27.948 36.6704C28.1386 36.621 28.3293 36.5716 28.5129 36.508C29.113 36.3032 29.9321 35.8937 30.4546 35.0958C30.6735 34.7569 30.8289 34.3615 30.8995 33.9166C30.9489 33.6412 30.956 33.3376 30.9348 32.9916C30.9207 32.7939 30.8712 32.6033 30.7795 32.4267C30.6947 32.2573 30.5535 32.0949 30.3487 31.9395C30.2852 31.8901 30.2004 31.876 30.1228 31.8972C30.0522 31.9113 29.9957 31.9536 29.9533 32.0101C29.8615 32.1372 29.8968 32.3067 30.0239 32.4055C30.0592 32.4338 30.0945 32.462 30.1298 32.4903C30.1722 32.5326 30.2075 32.575 30.2428 32.6244C30.2781 32.6809 30.3064 32.7445 30.3275 32.808C30.3487 32.8786 30.3558 32.9422 30.3699 33.0128C30.0098 32.8151 29.6638 32.6597 29.3178 32.5256C28.9083 32.3632 28.4705 32.229 27.9833 32.109C27.1642 31.9113 26.2816 31.7842 25.2648 31.7277C24.1209 31.6641 22.9629 31.6924 21.8402 31.7206C21.2047 31.7347 20.5692 31.7489 19.9337 31.7489C19.9054 31.6712 19.8419 31.6076 19.7713 31.5794C19.7219 31.5582 19.6654 31.5582 19.6089 31.5723Z" fill="#ACDFDD"/>
<path d="M27.7426 3.67416C27.559 3.93542 27.3613 4.17549 27.1495 4.40851C26.7046 4.88866 26.2033 5.31938 25.6808 5.72186C25.6596 5.74305 25.6314 5.75717 25.6102 5.77835C25.4619 5.90545 25.3066 6.03255 25.1512 6.14553C25.0947 6.19495 25.0312 6.24438 24.9747 6.29381C24.784 6.44915 24.5863 6.59743 24.3886 6.73865C24.1909 6.90106 23.9932 7.0564 23.7955 7.21174L23.5766 7.38121C23.1741 7.69896 22.8281 7.9814 22.5175 8.24972C22.1573 8.5604 21.8043 8.90639 21.4724 9.2312C19.8696 10.7988 18.5915 12.3522 17.5606 13.9692C17.024 14.8165 16.5297 15.7344 16.099 16.6947C15.7671 17.4291 15.4988 18.2411 15.2728 19.1802C15.0751 19.9852 14.941 20.8537 14.8703 21.7504C14.7997 22.6542 14.8139 23.5439 14.9056 24.3983C14.9974 25.2668 15.1881 26.1283 15.4564 26.9685C15.7106 27.7523 16.0778 28.5502 16.5509 29.334C16.9816 30.0542 17.5394 30.7462 18.2102 31.3888C18.8386 31.9889 19.5942 32.5327 20.4486 32.9987C21.19 33.4012 22.0091 33.726 22.9552 33.9872C23.7673 34.2132 24.6287 34.3544 25.5184 34.4038C26.4363 34.4533 27.3401 34.4038 28.2087 34.2697C28.5264 34.2202 28.8441 34.1567 29.1548 34.079C29.7127 33.9449 30.2634 33.7683 30.7859 33.5636C32.4735 32.8928 33.9634 31.8195 35.0861 30.4567C35.3544 30.1319 35.6016 29.7788 35.884 29.3269C36.1806 28.8538 36.4277 28.409 36.6466 27.9642C37.0561 27.1239 37.3809 26.206 37.6069 25.2315C37.8117 24.3842 37.9176 23.4804 37.9317 22.4565C37.9458 21.5951 37.8611 20.6983 37.6916 19.7945C37.5151 18.8907 37.2539 17.9869 36.9149 17.1113C36.5901 16.2781 36.1806 15.4379 35.6581 14.5623C35.2273 13.835 34.7119 13.1007 34.0764 12.3098C33.6527 11.7802 33.2149 11.2648 32.7842 10.7493L32.3111 10.1844C31.7392 9.50658 31.0684 8.69456 30.4188 7.84018C29.7127 6.92224 29.1831 6.14553 28.7524 5.41118C28.6747 5.27702 28.597 5.14286 28.5193 5.00164C28.2369 4.47912 28.0109 3.99191 27.8415 3.52588C27.8132 3.57531 27.7779 3.61767 27.7497 3.6671" fill="#672042"/>
<path d="M27.8348 3.52588C27.7995 3.57531 27.7712 3.61767 27.7359 3.6671C27.5524 3.92836 27.3546 4.17549 27.1428 4.40145C26.7403 4.83217 26.2602 5.2629 25.6741 5.7148L25.6388 5.74305L25.6035 5.77129C25.4552 5.89839 25.2999 6.02549 25.1445 6.13847C25.088 6.18789 25.0245 6.23732 24.968 6.27969C24.7774 6.43503 24.5797 6.58331 24.3819 6.72453C24.1842 6.88694 23.9865 7.04228 23.7888 7.19762L23.5699 7.36709C23.1816 7.67777 22.8285 7.96022 22.5108 8.2356C22.1436 8.55334 21.7905 8.89227 21.4657 9.21708C19.8699 10.7846 18.5848 12.331 17.5539 13.955C17.0102 14.8094 16.523 15.7274 16.0923 16.6806C15.7675 17.415 15.4921 18.234 15.2661 19.1732C15.1108 19.8086 14.9908 20.4936 14.9131 21.2067C14.9343 21.2279 14.9555 21.2491 14.9766 21.2703C15.0755 21.3621 15.1814 21.4398 15.3014 21.5033C15.478 21.5951 15.6616 21.6586 15.8522 21.7081C15.9511 21.7293 16.0499 21.7504 16.1488 21.7575C16.2547 21.7646 16.3606 21.7716 16.4595 21.7716C16.4524 21.7716 16.4453 21.7716 16.4383 21.7716C16.5583 21.7716 16.6713 21.7575 16.7913 21.7363C16.8902 21.7151 16.989 21.6939 17.0879 21.6657C17.2291 21.6233 17.3633 21.5739 17.4904 21.5104C17.6104 21.4539 17.7234 21.3903 17.8364 21.3268C17.8364 21.3268 17.8364 21.3268 17.8434 21.3268C18.253 21.0726 18.6131 20.7548 18.952 20.4088C19.3404 19.9993 19.7005 19.5474 20.0182 19.0814C20.3007 18.6789 20.5549 18.2552 20.7949 17.8245C20.7949 17.8245 20.7949 17.8174 20.802 17.8104C20.9715 17.5067 21.1268 17.1961 21.2751 16.8854C21.4516 16.5111 21.6281 16.1298 21.8117 15.7556C21.9953 15.3743 22.193 15.0001 22.4119 14.6329C22.6308 14.2728 22.8709 13.9197 23.1604 13.6091C23.4216 13.3195 23.7111 13.0583 24.043 12.8606C24.2195 12.7547 24.4102 12.6629 24.6079 12.5923C24.735 12.5499 24.8621 12.5146 24.9892 12.4793C25.0457 12.4652 25.1092 12.451 25.1657 12.444C25.4552 12.3946 25.773 12.3663 26.0554 12.451C26.2672 12.5146 26.4579 12.6487 26.5921 12.8253C26.7262 13.0159 26.8109 13.2348 26.8604 13.4678C26.9239 13.7361 26.9522 14.0115 26.9663 14.2869C26.9875 14.5764 27.0016 14.873 27.0298 15.1625C27.0581 15.4379 27.0934 15.7062 27.1711 15.9674C27.2064 16.0804 27.2487 16.1934 27.2982 16.2993C27.3617 16.4335 27.4253 16.5676 27.5029 16.7018C27.5665 16.8006 27.63 16.8924 27.7148 16.9701C27.7148 16.9701 27.7077 16.956 27.7006 16.956C27.7501 16.9984 27.7924 17.0407 27.8489 17.069C27.8842 17.0831 27.9195 17.0972 27.9548 17.1113C27.9901 17.1113 28.0184 17.1255 28.0608 17.1255C28.1102 17.1255 28.1525 17.1113 28.202 17.1043C28.2867 17.076 28.3644 17.0337 28.442 16.9913C28.6539 16.8642 28.8375 16.7018 29.0422 16.5606C29.247 16.4193 29.4588 16.2711 29.6989 16.1934C29.8189 16.151 29.939 16.1157 30.0661 16.1087C30.1861 16.0945 30.3062 16.0945 30.4262 16.1087C30.631 16.1369 30.8287 16.2075 30.9911 16.3346C31.3441 16.6171 31.5065 17.0619 31.6266 17.4785C31.7749 17.994 31.8667 18.5235 32.022 19.039C32.1138 19.3426 32.2338 19.6533 32.4033 19.9357C32.4951 20.077 32.5939 20.2111 32.714 20.3312C32.8199 20.43 32.9329 20.5148 33.0529 20.5854C33.1871 20.656 33.3283 20.7125 33.4695 20.7548C33.4695 20.7548 33.4695 20.7548 33.4766 20.7548C33.4766 20.7548 33.4766 20.7548 33.4836 20.7548C33.4836 20.7548 33.4836 20.7548 33.4907 20.7548C33.759 20.8184 34.0415 20.8466 34.3239 20.8466C34.3239 20.8466 34.3239 20.8466 34.3168 20.8466C34.5287 20.8466 34.7264 20.8113 34.9311 20.7548C35.0724 20.7125 35.2065 20.6489 35.3336 20.5783C35.4537 20.5077 35.5525 20.423 35.6514 20.3241C35.7643 20.2041 35.8632 20.0628 35.9479 19.9216C35.9479 19.9216 35.9479 19.9216 35.955 19.9075C35.955 19.9075 35.955 19.9075 35.955 19.9146C36.075 19.6886 36.1598 19.4485 36.2233 19.2014C36.2233 19.2085 36.2233 19.2155 36.2233 19.2296C36.3363 18.7636 36.3645 18.2835 36.3504 17.8033C36.3504 17.8104 36.3504 17.8174 36.3504 17.8316C36.3363 17.3443 36.2798 16.8571 36.1951 16.377C36.1103 15.8968 35.9903 15.4237 35.8561 14.9507C35.8561 14.9507 35.842 14.9012 35.835 14.88C35.7785 14.7812 35.7149 14.6753 35.6584 14.5764C35.2277 13.8491 34.7123 13.1148 34.0768 12.3239C33.6531 11.7944 33.2153 11.2789 32.7846 10.7635L32.3115 10.1986C31.7043 9.47834 31.0617 8.69456 30.4191 7.8543C29.7201 6.94342 29.1905 6.16671 28.7527 5.4253C28.6751 5.29114 28.5974 5.14992 28.5197 5.01576C28.2302 4.48618 28.0113 3.99897 27.8419 3.54H27.8348" fill="#FF6969"/>
<path d="M17.8433 0.25663C17.5397 0.362546 17.2361 0.532011 16.9466 0.750903C16.7136 0.927429 16.5017 1.15338 16.3464 1.40758C16.1981 1.64766 16.1063 1.90185 16.0781 2.17017C16.0498 2.41025 16.0992 2.67151 16.2193 2.91158C16.3323 3.1446 16.5229 3.34937 16.7842 3.51883C17.0454 3.69536 17.3773 3.82246 17.7939 3.91425C18.2387 4.01311 18.7189 4.04135 19.2202 4.01311C19.6509 3.98486 20.0958 3.91425 20.6677 3.77303L20.7313 3.75891C21.042 3.68124 21.3527 3.5965 21.6633 3.51177C21.9811 3.42704 22.2918 3.34231 22.6095 3.26464C22.6448 3.25757 22.6801 3.24345 22.7154 3.23639C22.9485 3.16578 23.1815 3.10223 23.4215 3.04574C23.5628 3.01044 23.711 2.98219 23.8593 2.94689C24.05 2.91158 24.2406 2.87628 24.4242 2.84097C24.5443 2.81979 24.6643 2.79155 24.7843 2.77036C25.0385 2.728 25.2857 2.69975 25.5399 2.67151L25.1797 2.42437C24.5372 1.97953 23.8735 1.52762 23.1744 1.13926C22.7366 0.892124 22.2847 0.680293 21.8469 0.510828C21.4091 0.341363 20.929 0.200142 20.4347 0.108348C19.9616 0.0165547 19.4815 -0.0187505 19.0013 0.00949368C18.7966 0.0236158 18.5989 0.0447989 18.4082 0.0801041C18.3658 0.0871652 18.3305 0.0942262 18.2882 0.108348C18.1328 0.143654 17.9845 0.193081 17.8292 0.249569" fill="#FF6969"/>
<path d="M24.9466 60.7977L26.6765 67.3574C26.0551 67.3786 25.4267 67.3856 24.7912 67.3856C24.2828 67.3856 23.7815 67.3786 23.2802 67.3715C22.1292 67.3503 21.0065 67.3009 19.912 67.2232C17.4407 67.0608 15.1035 66.7713 12.971 66.3829C11.1634 66.0511 9.497 65.6486 8.01418 65.1826L1.22852 42.1777L18.9023 37.814L19.1 38.5554L21.3525 47.1134L21.6844 48.3843L22.2634 50.5733L22.4116 51.1452L24.9466 60.7977Z" fill="#FFC800"/>
<path d="M22.0935 67.3291C21.352 67.315 20.6248 67.2726 19.9116 67.2232C17.4402 67.0608 15.103 66.7713 12.9706 66.3829L5.68359 41.0761L14.1922 38.979L22.0935 67.3291Z" fill="#FF8A00"/>
<path d="M15.6754 44.2961L9.41227 42.1778L7.1951 46.3368L1.22852 42.1778L4.15885 27.5614C4.54721 25.6126 6.98327 24.9277 8.33193 26.3893L18.9023 37.8211L15.6754 44.3032V44.2961Z" fill="#FCF3CC"/>
<path d="M2.96484 33.521L4.1511 27.6039C4.54652 25.6409 6.9967 24.9489 8.35948 26.4176L12.5326 30.9296L2.96484 33.521Z" fill="#FFC800"/>
<path d="M46.2287 46.0614L46.038 46.7464L40.6999 65.444C39.3653 65.8253 37.8966 66.1572 36.3291 66.4326C34.0978 66.828 31.6476 67.1175 29.0562 67.2658C28.3995 67.3011 27.7287 67.3293 27.0509 67.3505C26.9238 67.3575 26.8037 67.3576 26.6766 67.3576C26.0553 67.3787 25.4268 67.3858 24.7913 67.3858C24.2829 67.3858 23.7816 67.3787 23.2803 67.3717L24.9467 60.7978L27.298 51.5479L27.5381 50.6088L27.9688 48.9L29.9388 41.1399L30.7156 41.3729L46.2287 46.0614Z" fill="#3BC4FF"/>
<path d="M41.8084 44.7269L36.329 66.4326C34.0977 66.828 31.6475 67.1175 29.0561 67.2658C28.3994 67.3011 27.7286 67.3293 27.0508 67.3505L31.3015 52.4305V52.4164L34.1542 42.4109L41.8084 44.7269Z" fill="#379CFA"/>
<path d="M40.5373 49.7331L36.5125 45.0375L32.749 47.3253L29.9316 41.1398L39.2593 30.7812C40.502 29.4043 42.7827 30.0116 43.1711 31.8263L46.2215 46.0613L40.5303 49.7331H40.5373Z" fill="#FCF3CC"/>
<path d="M35.4607 35.0039L39.2383 30.8097C40.4881 29.4187 42.7971 30.033 43.1855 31.8618L44.3858 37.4753L35.4536 34.9969L35.4607 35.0039Z" fill="#3BC4FF"/>
</svg>
