<svg width="28" height="28" viewBox="0 0 28 28" fill="none" xmlns="http://www.w3.org/2000/svg">
<path fill-rule="evenodd" clip-rule="evenodd" d="M14 28C21.7325 28 28 21.7325 28 14C28 6.26746 21.7325 0 14 0C6.26746 0 0 6.26746 0 14C0 21.7325 6.26746 28 14 28ZM14.7378 7.71362C14.7378 7.02327 14.1781 6.46362 13.4878 6.46362C12.7974 6.46362 12.2378 7.02327 12.2378 7.71362V15.0496C12.2378 15.4898 12.4693 15.8976 12.8474 16.1231L18.5533 19.527C19.1462 19.8807 19.9136 19.6868 20.2672 19.0939C20.6209 18.501 20.427 17.7337 19.8341 17.38L14.7378 14.3398V7.71362Z" fill="white"/>
</svg>
