<svg width="86" height="86" viewBox="0 0 86 86" fill="none" xmlns="http://www.w3.org/2000/svg">
<path d="M43 86C62.33 86 78 70.33 78 51C78 31.67 62.33 16 43 16C23.67 16 8 31.67 8 51C8 70.33 23.67 86 43 86Z" fill="#FFC800"/>
<mask id="mask0_2424_15374" style="mask-type:luminance" maskUnits="userSpaceOnUse" x="8" y="6" width="70" height="80">
<path d="M43 6C62.33 6 78 31.67 78 51C78 70.33 62.33 86 43 86C23.67 86 8 70.33 8 51C8 31.67 23.67 6 43 6Z" fill="white"/>
</mask>
<g mask="url(#mask0_2424_15374)">
<path d="M15.9823 30.7654C16.4111 21.6867 24.9785 14.3397 32.5729 15.9394C43.045 6.32479 60.4602 12.0391 65.0778 22.0331C70.3304 33.404 67.3042 38.0464 72.6805 51.7592C76.4241 61.2996 78.6752 71.2853 70.149 80.0011C56.8403 93.6232 16.3368 86.8287 10.3751 80.3722C2.61582 69.4547 10.4164 57.2427 13.7724 47.7105C15.8174 41.8972 15.8009 34.542 15.9823 30.7571V30.7654Z" fill="url(#paint0_linear_2424_15374)"/>
<path style="mix-blend-mode:multiply" opacity="0.3" d="M70.652 79.4728C72.2517 72.4308 69.0028 61.2083 66.2735 54.6199C62.7443 46.1185 57.1124 39.4476 47.6297 36.9903C41.9153 35.5143 34.9806 36.2482 30.3052 40.1485C26.5864 43.2572 25.5062 45.599 22.7768 49.5405C13.6817 62.6431 14.3661 76.8588 15.2236 83.2246C30.0414 89.0461 59.6273 91.1241 70.6602 79.4728H70.652Z" fill="url(#paint1_linear_2424_15374)"/>
<g style="mix-blend-mode:multiply" opacity="0.2">
<path d="M59.9398 76.5707C59.8985 76.8098 60.2531 76.9912 60.3603 76.7356C62.1826 72.1592 63.0814 65.6945 59.6759 61.5551C59.5852 61.4561 59.4285 61.5716 59.4615 61.687C61.02 66.519 60.7644 71.6397 59.948 76.5707H59.9398Z" fill="url(#paint2_linear_2424_15374)"/>
<path d="M24.9941 63.8308C25.0188 63.7236 24.8704 63.6577 24.8127 63.7566C22.0503 68.7371 21.7865 75.2843 23.716 81.0976C24.2272 81.1388 24.7467 81.18 25.2744 81.2212C24.12 75.1688 23.4439 70.1059 25.0023 63.8226L24.9941 63.8308Z" fill="url(#paint3_linear_2424_15374)"/>
<path d="M30.5693 66.1474C30.4043 67.2194 30.091 68.2336 30.0415 69.322C29.992 70.5259 30.4868 70.897 30.8744 72.0102C30.9651 72.2658 31.3444 72.2081 31.3444 71.936C31.3609 70.798 31.2866 70.427 31.1712 69.2973C31.064 68.2171 31.163 67.2276 30.9403 66.1392C30.8991 65.9495 30.5857 65.9578 30.561 66.1474H30.5693Z" fill="url(#paint4_linear_2424_15374)"/>
</g>
<path d="M55.7349 105.398L54.1353 72.844C51.9501 71.6071 46.277 70.3785 42.2778 70.3703C38.2868 70.3538 32.0612 71.6649 30.1729 72.844L28.5732 105.398H55.7432H55.7349Z" fill="#E0E1EA"/>
<path d="M58.3572 102.916H64.3437C63.7995 99.9311 63.6923 99.6425 63.2635 96.4348C62.3812 89.8382 61.9524 87.5788 60.9877 80.875L53.7148 81.7903C54.9765 88.3704 55.298 90.9761 56.7658 97.5893C57.3677 100.302 57.7388 100.954 58.349 102.916H58.3572Z" fill="#F8B6A9"/>
<path d="M54.8119 90.6958L52.9071 83.3983L49.4521 71.2852C54.3584 72.4313 58.1103 73.627 63.1567 84.462C60.9963 86.7213 58.3576 88.8405 54.8119 90.6875V90.6958Z" fill="#E0E1EA"/>
<path d="M25.7779 102.916C26.3881 100.945 26.7592 100.302 27.3611 97.5893C28.8289 90.9679 29.1504 88.3704 30.4121 81.7903L23.1392 80.875C22.1827 87.5788 21.754 89.8464 20.8634 96.4348C20.4346 99.6342 20.3274 99.9228 19.7832 102.916H25.7697H25.7779Z" fill="#F8B6A9"/>
<path d="M29.4815 90.6958L31.3863 83.3983L34.8413 71.2852C29.935 72.4313 26.1832 73.627 21.1367 84.462C23.2971 86.7213 25.9358 88.8405 29.4815 90.6875V90.6958Z" fill="#E0E1EA"/>
<path d="M38.4693 63.3857V69.1083C38.4693 70.8729 37.9333 73.8909 42.2706 73.8909C46.6079 73.8909 45.8328 70.8729 45.8328 69.1083V63.3857H38.4693Z" fill="#F6AEA3"/>
<path d="M22.0403 59.7729C23.9433 58.9647 24.2551 55.411 22.7366 51.8355C21.2181 48.2599 18.4445 46.0166 16.5414 46.8247C14.6384 47.6329 14.3267 51.1866 15.8451 54.7621C17.3636 58.3377 20.1372 60.581 22.0403 59.7729Z" fill="#F8B6A9"/>
<g style="mix-blend-mode:multiply" opacity="0.2">
<path d="M16.7572 54.372C17.8704 56.9942 20.2369 59.0804 21.4243 58.5774C22.6117 58.0744 22.1829 55.1718 21.0615 52.5414C19.9401 49.911 18.0765 48.1959 16.8891 48.6989C15.7017 49.2019 15.644 51.7416 16.7572 54.3637V54.372Z" fill="#F8B6A9"/>
</g>
<path d="M16.7572 54.372C17.8704 56.9942 20.2369 59.0804 21.4243 58.5774C22.6117 58.0744 22.1829 55.1718 21.0615 52.5414C19.9401 49.911 18.0765 48.1959 16.8891 48.6989C15.7017 49.2019 15.644 51.7416 16.7572 54.3637V54.372Z" stroke="#E9A195" stroke-width="0.263866" stroke-miterlimit="10"/>
<path d="M68.6243 54.7661C70.1428 51.1906 69.831 47.6369 67.928 46.8287C66.0249 46.0205 63.2513 48.2639 61.7328 51.8394C60.2143 55.4149 60.5261 58.9686 62.4291 59.7768C64.3322 60.585 67.1058 58.3416 68.6243 54.7661Z" fill="#F8B6A9"/>
<g style="mix-blend-mode:multiply" opacity="0.2">
<path d="M67.7075 54.372C66.5943 56.9942 64.2277 59.0804 63.0403 58.5774C61.853 58.0744 62.2817 55.1718 63.4032 52.5414C64.5246 49.911 66.3881 48.1959 67.5755 48.6989C68.7629 49.2019 68.8207 51.7416 67.7075 54.3637V54.372Z" fill="#F8B6A9"/>
</g>
<path d="M67.7075 54.372C66.5943 56.9942 64.2277 59.0804 63.0403 58.5774C61.853 58.0744 62.2817 55.1718 63.4032 52.5414C64.5246 49.911 66.3881 48.1959 67.5755 48.6989C68.7629 49.2019 68.8207 51.7416 67.7075 54.3637V54.372Z" stroke="#E9A195" stroke-width="0.263866" stroke-miterlimit="10"/>
<path d="M20.5498 47.6208C20.8137 62.2159 26.3714 70.7338 42.2528 70.7338C57.6477 70.7338 63.6177 62.2159 63.9558 47.6208C64.2526 34.8563 54.2422 24.5078 42.2528 24.5078C30.2634 24.5078 20.319 34.8563 20.5498 47.6208Z" fill="#F8B6A9"/>
<path d="M42.2528 19.584C54.9102 19.584 64.9288 23.6409 64.2279 42.8702L63.9558 47.6197H20.5499L20.2778 42.8702C19.2965 25.9003 27.6825 19.584 42.2528 19.584Z" fill="#F8B6A9"/>
<path d="M42.0885 55.428C42.3359 55.2301 42.5668 55.0074 42.6163 54.6529C42.6905 54.1251 42.6163 53.6881 42.6163 53.1769C42.5998 52.5419 42.3359 49.6806 42.2205 48.9055C42.2205 48.8726 42.1628 48.8808 42.1628 48.9055C42.105 50.0517 42.3277 54.2076 41.8824 54.8755C41.5278 55.4115 40.6125 55.6506 40.4476 56.3268C40.2662 57.0854 41.1238 57.877 41.635 58.2893C41.8494 58.4624 42.2287 58.3717 42.3194 58.0914C42.4101 57.7863 41.9401 57.4564 41.7587 57.2503C41.5361 56.9947 41.3547 56.772 41.3547 56.4175C41.3547 55.931 41.7422 55.6918 42.0968 55.4115L42.0885 55.428Z" fill="#B65050"/>
<path d="M31.3526 55.2802C34.2991 55.2802 36.6877 52.7845 36.6877 49.706C36.6877 46.6275 34.2991 44.1318 31.3526 44.1318C28.4062 44.1318 26.0176 46.6275 26.0176 49.706C26.0176 52.7845 28.4062 55.2802 31.3526 55.2802Z" fill="white"/>
<path d="M26.0016 49.7063C25.9191 49.7228 25.7047 48.7662 26.183 47.3974C26.4221 46.7213 26.8509 45.9709 27.5023 45.3195C28.1537 44.6763 29.0278 44.1321 30.0173 43.893C30.9985 43.6373 32.0375 43.6951 32.9281 43.9837C33.8269 44.2723 34.5525 44.7835 35.0637 45.303C36.0862 46.375 36.2841 47.3645 36.1934 47.3892C36.0697 47.4469 35.6822 46.5893 34.6679 45.7318C34.1567 45.3195 33.4888 44.9237 32.7137 44.7093C31.9386 44.4949 31.048 44.4702 30.2152 44.6846C29.3741 44.8825 28.6237 45.3277 28.0218 45.8555C27.4281 46.3915 26.9993 47.0264 26.719 47.6118C26.1583 48.791 26.1418 49.7063 26.0016 49.7063Z" fill="#90452A"/>
<path d="M25.8934 44.6014C25.9264 44.5519 26.0996 44.6261 26.3634 44.6673C26.6355 44.7168 27.0066 44.7416 27.3859 44.7251C28.1528 44.7086 28.9279 44.6014 28.9609 44.6921C28.9856 44.791 28.227 45.0714 27.4024 45.0879C26.9901 45.0961 26.5778 45.0384 26.2975 44.9147C26.0089 44.791 25.8687 44.6344 25.8934 44.6014Z" fill="#90452A"/>
<path d="M25.1675 45.5915C25.217 45.5585 25.3242 45.6575 25.5221 45.7234C25.7117 45.7977 26.0003 45.8224 26.3054 45.8141C26.9156 45.7977 27.5341 45.6657 27.567 45.7647C27.6 45.8554 27.0063 46.1522 26.3137 46.177C25.9756 46.1935 25.621 46.111 25.3984 45.9543C25.1758 45.7977 25.1263 45.6162 25.1675 45.5915Z" fill="#90452A"/>
<path d="M24.9041 46.7129C24.9041 46.7129 25.0443 46.7294 25.201 46.7706C25.3576 46.8118 25.572 46.8283 25.8029 46.8118C26.2647 46.7953 26.7512 46.7211 26.7842 46.8118C26.8171 46.9025 26.3554 47.1499 25.8112 47.1747C25.5473 47.1829 25.2669 47.1252 25.0938 47.0015C24.9206 46.8778 24.8711 46.7376 24.9041 46.7129Z" fill="#90452A"/>
<path d="M24.4417 48.1483C24.4582 48.0493 24.9447 48.0328 25.4312 47.8432C25.9177 47.67 26.396 47.4309 26.4537 47.5051C26.5197 47.5876 26.1074 47.9916 25.5549 48.1813C25.0025 48.4039 24.4088 48.2555 24.4417 48.1483Z" fill="#90452A"/>
<path d="M52.8741 55.2802C55.8206 55.2802 58.2091 52.7845 58.2091 49.706C58.2091 46.6275 55.8206 44.1318 52.8741 44.1318C49.9276 44.1318 47.5391 46.6275 47.5391 49.706C47.5391 52.7845 49.9276 55.2802 52.8741 55.2802Z" fill="white"/>
<path d="M58.1842 49.7067C58.0441 49.7067 58.0441 48.7997 57.4916 47.6205C57.2195 47.0351 56.799 46.4001 56.2053 45.8641C55.6116 45.3282 54.8529 44.8829 54.0201 44.685C53.1873 44.4706 52.305 44.4871 51.5216 44.7015C50.7383 44.9076 50.0704 45.3034 49.5509 45.7157C48.5284 46.565 48.1326 47.4309 48.0089 47.3731C47.9265 47.3566 48.1244 46.3589 49.1551 45.2869C49.6746 44.7675 50.4002 44.2645 51.299 43.9759C52.1895 43.6873 53.2285 43.6295 54.2098 43.8852C55.1993 44.116 56.0733 44.6685 56.7165 45.3117C57.3679 45.9631 57.7885 46.7217 58.0193 47.3979C58.4811 48.7667 58.2585 49.7149 58.176 49.6985L58.1842 49.7067Z" fill="#90452A"/>
<path d="M58.3492 44.618C58.3492 44.618 58.2337 44.8076 57.9369 44.9231C57.6483 45.0385 57.236 45.1045 56.8319 45.088C56.0074 45.0715 55.2405 44.7746 55.2735 44.6839C55.2982 44.585 56.0733 44.7087 56.8402 44.7252C57.2277 44.7334 57.5988 44.7252 57.8709 44.6757C58.143 44.6345 58.3162 44.5685 58.3492 44.6097V44.618Z" fill="#90452A"/>
<path d="M59.0748 45.608C59.0748 45.608 59.0501 45.8059 58.8275 45.9626C58.6048 46.1192 58.2503 46.1935 57.9122 46.177C57.2195 46.1522 56.6258 45.8389 56.6671 45.7482C56.7 45.6492 57.3185 45.7977 57.9287 45.8059C58.2338 45.8141 58.5141 45.7894 58.7203 45.7234C58.9182 45.6575 59.0419 45.5585 59.0831 45.5915L59.0748 45.608Z" fill="#90452A"/>
<path d="M59.3391 46.7287C59.3391 46.7287 59.3144 46.8936 59.1412 47.0173C58.9598 47.1328 58.6877 47.1905 58.4156 47.1822C57.8713 47.1657 57.4096 46.9019 57.4508 46.8112C57.4838 46.7122 57.962 46.8112 58.4321 46.8194C58.6629 46.8277 58.8856 46.8194 59.0422 46.7864C59.1989 46.7535 59.3061 46.6957 59.3473 46.737L59.3391 46.7287Z" fill="#90452A"/>
<path d="M59.7833 48.1643C59.808 48.2715 59.2225 48.3952 58.6701 48.1808C58.1176 47.9829 57.7136 47.5706 57.7795 47.4881C57.8372 47.4139 58.3073 47.6613 58.7938 47.8345C59.272 48.0241 59.7668 48.0653 59.7833 48.1643Z" fill="#90452A"/>
<path d="M24.4672 42.2446C24.426 42.2034 24.5579 42.0385 24.8218 41.7746C24.9537 41.6427 25.1186 41.4943 25.3165 41.3211C25.5144 41.1562 25.7783 41.016 26.0504 40.8346C27.1389 40.1502 28.8705 39.5895 30.6681 39.6225C32.4657 39.6142 34.1725 40.1667 35.3517 40.7027C36.5391 41.2551 37.2153 41.8076 37.1493 41.9066C37.0833 42.0138 36.3247 41.6509 35.1291 41.2634C33.9417 40.8923 32.309 40.4636 30.6598 40.4718C29.0107 40.4471 27.4357 40.8594 26.3308 41.3623C26.0587 41.4943 25.7948 41.585 25.5804 41.7087C25.366 41.8324 25.1846 41.9396 25.0197 42.0303C24.6981 42.1952 24.5002 42.2776 24.459 42.2282L24.4672 42.2446Z" fill="#90452A"/>
<path d="M31.6331 54.653C33.8327 54.653 35.6158 52.8698 35.6158 50.6702C35.6158 48.4706 33.8327 46.6875 31.6331 46.6875C29.4335 46.6875 27.6504 48.4706 27.6504 50.6702C27.6504 52.8698 29.4335 54.653 31.6331 54.653Z" fill="url(#paint5_linear_2424_15374)"/>
<path d="M33.9502 49.731C34.322 49.4525 34.3246 48.8279 33.9561 48.3358C33.5876 47.8437 32.9874 47.6705 32.6156 47.9489C32.2438 48.2274 32.2411 48.852 32.6097 49.3441C32.9782 49.8362 33.5784 50.0094 33.9502 49.731Z" fill="white"/>
<path d="M34.6757 50.8017C34.9217 50.8017 35.121 50.6023 35.121 50.3564C35.121 50.1105 34.9217 49.9111 34.6757 49.9111C34.4298 49.9111 34.2305 50.1105 34.2305 50.3564C34.2305 50.6023 34.4298 50.8017 34.6757 50.8017Z" fill="white"/>
<path d="M59.9902 42.2844C59.949 42.3257 59.7511 42.2514 59.4378 42.0783C59.2811 41.9958 59.0915 41.8804 58.8853 41.7567C58.6709 41.633 58.4071 41.5341 58.1432 41.4021C57.0547 40.8826 55.4798 40.4621 53.8306 40.4868C52.1815 40.4703 50.5488 40.8909 49.3532 41.2619C48.1575 41.6413 47.3906 41.9958 47.3247 41.8886C47.2587 41.7897 47.9431 41.2372 49.1305 40.693C50.3179 40.1653 52.0248 39.6128 53.8141 39.6293C55.6035 39.5963 57.3351 40.1735 58.4153 40.8661C58.6874 41.0476 58.943 41.1877 59.1409 41.3609C59.3388 41.5341 59.5037 41.6907 59.6357 41.8227C59.8995 42.0865 60.0232 42.2514 59.9902 42.2927V42.2844Z" fill="#90452A"/>
<path d="M52.7913 54.653C54.9909 54.653 56.774 52.8698 56.774 50.6702C56.774 48.4706 54.9909 46.6875 52.7913 46.6875C50.5917 46.6875 48.8086 48.4706 48.8086 50.6702C48.8086 52.8698 50.5917 54.653 52.7913 54.653Z" fill="url(#paint6_linear_2424_15374)"/>
<path d="M55.1162 49.728C55.488 49.4496 55.4906 48.825 55.1221 48.3329C54.7536 47.8408 54.1534 47.6676 53.7816 47.946C53.4098 48.2245 53.4072 48.8491 53.7757 49.3412C54.1442 49.8333 54.7444 50.0065 55.1162 49.728Z" fill="white"/>
<path d="M55.8339 50.8017C56.0799 50.8017 56.2792 50.6023 56.2792 50.3564C56.2792 50.1105 56.0799 49.9111 55.8339 49.9111C55.588 49.9111 55.3887 50.1105 55.3887 50.3564C55.3887 50.6023 55.588 50.8017 55.8339 50.8017Z" fill="white"/>
<path style="mix-blend-mode:soft-light" opacity="0.7" d="M57.8211 52.3945C57.8211 52.3945 54.9351 57.812 49.1878 54.2169C49.1878 54.2169 46.7882 59.4282 52.3294 59.8405C57.8706 60.2528 59.3301 55.8083 57.8129 52.3945H57.8211Z" fill="url(#paint7_radial_2424_15374)"/>
<path style="mix-blend-mode:soft-light" opacity="0.7" d="M26.3554 52.3945C26.3554 52.3945 29.2415 57.812 34.9888 54.2169C34.9888 54.2169 37.3883 59.4282 31.8471 59.8405C26.306 60.2528 24.8464 55.8083 26.3637 52.3945H26.3554Z" fill="url(#paint8_radial_2424_15374)"/>
<path d="M51.0521 61.2021C51.4231 61.2186 51.72 61.6804 51.5798 62.068C51.5551 62.1504 51.5056 62.2246 51.4561 62.2659C51.4479 62.2659 51.4396 62.2659 51.4314 62.2659C51.4314 61.8948 51.2665 61.499 51.0273 61.2186C51.0273 61.2186 51.0438 61.2104 51.0438 61.2021H51.0521Z" fill="#B65050"/>
<path d="M51.0521 61.2021C51.4231 61.2186 51.72 61.6804 51.5798 62.068C51.5551 62.1504 51.5056 62.2246 51.4561 62.2659C51.4479 62.2659 51.4396 62.2659 51.4314 62.2659C51.4314 61.8948 51.2665 61.499 51.0273 61.2186C51.0273 61.2186 51.0438 61.2104 51.0438 61.2021H51.0521Z" stroke="#B65050" stroke-width="0.247374" stroke-miterlimit="10"/>
<path d="M33.9989 62.2325C33.7021 62.0923 33.6526 61.647 33.9494 61.3832C34.0896 61.2677 34.2793 61.2347 34.403 61.2925C34.403 61.3007 34.4112 61.309 34.4194 61.3172C34.1391 61.4986 33.9659 61.8862 34.0319 62.2242C34.0237 62.2242 34.0072 62.2242 33.9989 62.2242V62.2325Z" fill="#B65050"/>
<path d="M33.9989 62.2325C33.7021 62.0923 33.6526 61.647 33.9494 61.3832C34.0896 61.2677 34.2793 61.2347 34.403 61.2925C34.403 61.3007 34.4112 61.309 34.4194 61.3172C34.1391 61.4986 33.9659 61.8862 34.0319 62.2242C34.0237 62.2242 34.0072 62.2242 33.9989 62.2242V62.2325Z" stroke="#B65050" stroke-width="0.247374" stroke-miterlimit="10"/>
<path d="M34.0565 61.7188C37.6764 62.8979 42.8631 64.0276 51.1089 61.76C51.1089 61.7682 51.1089 61.7765 51.1171 61.793C42.2611 64.9594 35.7882 62.5268 34.04 61.7517C34.04 61.7435 34.04 61.7352 34.0483 61.7188H34.0565Z" fill="#B65050"/>
<path d="M34.057 61.7201C34.057 61.7201 34.0405 61.7201 34.0322 61.7449C34.0322 61.7449 34.0322 61.7449 34.0322 61.7531C34.0322 61.7531 34.0405 61.7531 34.0487 61.7614C34.2549 61.918 36.0937 62.8828 39.2436 63.3611C42.3605 63.8558 46.8132 63.6991 51.1918 62.0665C51.2 62.0665 51.2165 62.0665 51.2247 62.0582C51.3072 62.0252 51.3979 62.0005 51.4804 61.9675C51.4556 61.8851 51.4226 61.7943 51.3979 61.7119C51.3979 61.7036 51.3979 61.6954 51.3897 61.6789C51.3649 61.5882 51.3319 61.5057 51.3072 61.415C51.2165 61.4398 51.1258 61.4645 51.0351 61.4975C46.4916 62.8333 42.1049 63.0312 39.0127 62.6684C37.4625 62.5035 36.2256 62.2314 35.3845 62.0252C34.5352 61.8191 34.0735 61.6872 34.057 61.7284C34.0487 61.7614 34.4857 61.9675 35.3186 62.2396C36.1514 62.5117 37.3883 62.8498 38.955 63.0642C42.0801 63.5342 46.5659 63.4023 51.1835 62.0417C51.0681 61.984 50.9444 61.918 50.8289 61.8521C50.8289 61.8603 50.8289 61.8686 50.8372 61.8851C50.8949 61.7696 50.9526 61.6542 51.0104 61.5387C51.0021 61.5387 50.9856 61.5387 50.9774 61.547C46.6813 63.1467 42.3523 63.3611 39.2766 62.9653C36.1761 62.5942 34.3043 61.7614 34.0405 61.7366C34.0405 61.7366 34.0405 61.7531 34.0487 61.7531C34.0487 61.7284 34.0487 61.7201 34.0487 61.7201H34.057Z" fill="#B35652"/>
<path d="M45.8811 70.6338C45.7904 70.6338 45.7162 70.807 45.6337 71.1038C45.5512 71.4006 45.477 71.8294 45.2956 72.2665C45.1142 72.7035 44.8174 73.0745 44.2731 73.2807C43.7454 73.5033 43.0115 73.5775 42.2282 73.5693C41.4448 73.5693 40.7274 73.4786 40.1832 73.256C39.639 73.0416 39.3174 72.6705 39.1113 72.2417C38.9051 71.8212 38.8062 71.3924 38.7072 71.1038C38.6083 70.8152 38.5258 70.642 38.4351 70.6503C38.3527 70.6503 38.2702 70.8234 38.2125 71.145C38.163 71.4584 38.1218 71.9284 38.2702 72.5468C38.3939 73.1488 38.8886 73.9239 39.6802 74.3114C40.4471 74.7155 41.3459 74.8392 42.2199 74.8474C43.1022 74.8474 43.9845 74.7484 44.7679 74.3444C45.576 73.9733 46.0625 73.1323 46.1367 72.5303C46.2439 71.9119 46.1697 71.4419 46.112 71.1285C46.046 70.8152 45.9553 70.6503 45.8728 70.6503L45.8811 70.6338Z" fill="#EEEEEE"/>
<path d="M28.4252 105.794H56.024C55.4962 104.87 55.3725 103.897 54.886 102.875C51.7774 96.2783 50.8126 89.8466 50.6889 84.627H33.8427C33.7273 89.6734 32.8038 96.0309 29.7198 102.586C29.1839 103.724 29.0024 104.788 28.417 105.794H28.4252Z" fill="#615169"/>
<path d="M48.2568 83.7621L48.966 71.1543C48.966 71.1543 50.2276 71.4182 51.5057 71.8057C51.6211 71.8387 50.5739 82.6242 50.7058 83.7621H48.2568Z" fill="#615169"/>
<path d="M36.291 83.3826L35.5818 71.1211C35.5818 71.1211 34.3202 71.3355 33.0421 71.723C32.9267 71.756 33.9739 82.2364 33.842 83.3744H36.291V83.3826Z" fill="#615169"/>
<path d="M35.0459 84.833C35.7336 84.833 36.291 84.2756 36.291 83.5879C36.291 82.9002 35.7336 82.3428 35.0459 82.3428C34.3582 82.3428 33.8008 82.9002 33.8008 83.5879C33.8008 84.2756 34.3582 84.833 35.0459 84.833Z" fill="#F8CA63"/>
<path d="M49.502 84.833C50.1896 84.833 50.7471 84.2756 50.7471 83.5879C50.7471 82.9002 50.1896 82.3428 49.502 82.3428C48.8143 82.3428 48.2568 82.9002 48.2568 83.5879C48.2568 84.2756 48.8143 84.833 49.502 84.833Z" fill="#F8CA63"/>
<path d="M61.1853 25.9337C59.7422 24.4825 59.3794 25.1669 59.297 26.445C58.192 24.903 56.6088 23.4682 54.9267 22.3138C50.6966 19.3948 22.4877 19.4525 21.5559 27.5334C21.5229 27.822 21.5559 28.1518 21.6219 28.5064C21.292 28.7126 20.9869 28.9434 20.7148 29.1908C17.3917 32.1675 17.2846 43.2499 21.2178 49.7064C26.2395 46.0947 27.666 40.4216 27.9546 36.142C29.4636 37.148 31.2447 38.0716 33.2897 38.8302C33.6278 38.9539 33.9741 39.0693 34.3122 39.1847C38.9628 41.3451 46.1449 42.5408 56.5346 38.3107C55.2813 38.2859 54.1516 38.1293 53.1291 37.8984C55.9327 36.6533 58.1096 35.1443 59.3217 33.9074C59.5938 38.723 60.674 45.3526 64.5166 48.7746C67.3449 40.6442 63.5106 28.2673 61.1853 25.9337Z" fill="url(#paint9_linear_2424_15374)"/>
<path d="M32.8693 36.6457C29.1422 33.603 27.2127 28.6968 25.7532 24.2688C25.7202 24.1698 25.5718 24.2193 25.5965 24.3183C26.8746 29.0926 28.631 33.8339 32.2674 37.3219C33.2734 38.2949 34.4278 39.07 35.6647 39.6802C37.2891 40.1337 39.1279 40.4388 41.1976 40.4883C38.1961 39.7791 35.3678 38.6825 32.8693 36.6375V36.6457Z" fill="#91462B"/>
<path d="M21.721 26.2804C21.7375 26.1732 21.5808 26.1402 21.556 26.2474C20.6573 30.5187 21.0531 38.6821 23.9061 43.9512C24.1123 43.5719 24.3019 43.1926 24.4668 42.805C21.7787 37.7833 20.9211 31.03 21.7127 26.2804H21.721Z" fill="#91462B"/>
<path d="M46.5173 35.5878C41.9821 33.2295 38.4364 28.282 37.4552 23.3428C37.4304 23.2191 37.2325 23.2191 37.249 23.3592C38.1561 31.3494 44.5136 37.2617 52.0338 38.68C52.6687 38.4738 53.3119 38.2347 53.9633 37.9873C51.3988 37.4678 48.9086 36.8411 46.5173 35.596V35.5878Z" fill="#91462B"/>
<path d="M49.5754 29.7424C49.5589 29.6352 49.4022 29.6435 49.4105 29.7507C49.5754 32.48 52.1151 35.2918 54.9599 35.3166C55.2403 35.1352 55.5041 34.9538 55.7515 34.7724C52.8655 34.3766 50.0289 32.8758 49.5754 29.7342V29.7424Z" fill="#91462B"/>
<path d="M63.4202 30.1626C62.843 30.6409 60.6084 28.4887 56.9472 26.0232C55.1084 24.8193 52.8903 23.599 50.3753 22.7414C47.8521 21.8921 45.0403 21.4385 42.1048 21.4715C39.161 21.4715 36.2668 21.9168 33.6528 22.6919C31.0307 23.467 28.7053 24.5884 26.7841 25.7511C22.925 28.0764 20.7811 30.3935 20.1874 30.0224C19.5937 29.6844 20.8141 26.3778 24.6237 22.9145C26.512 21.1994 29.0682 19.509 32.1026 18.3134C35.1288 17.1177 38.6086 16.4333 42.0718 16.4333C45.5515 16.3921 49.0642 17.1013 52.0327 18.4041C55.0095 19.7152 57.409 21.5128 59.1736 23.2444C62.6781 26.7736 63.9067 29.7668 63.412 30.1544L63.4202 30.1626Z" fill="#EE627B"/>
</g>
<defs>
<linearGradient id="paint0_linear_2424_15374" x1="41.2969" y1="88.6592" x2="42.1462" y2="15.8075" gradientUnits="userSpaceOnUse">
<stop stop-color="#904C2E"/>
<stop offset="1" stop-color="#B05D3B"/>
</linearGradient>
<linearGradient id="paint1_linear_2424_15374" x1="14.7536" y1="62.0988" x2="71.0808" y2="62.0988" gradientUnits="userSpaceOnUse">
<stop stop-color="#904C2E"/>
<stop offset="1" stop-color="#B05D3B"/>
</linearGradient>
<linearGradient id="paint2_linear_2424_15374" x1="59.4533" y1="69.1907" x2="61.9765" y2="69.1907" gradientUnits="userSpaceOnUse">
<stop stop-color="#904C2E"/>
<stop offset="1" stop-color="#B05D3B"/>
</linearGradient>
<linearGradient id="paint3_linear_2424_15374" x1="22.4709" y1="72.4724" x2="25.2744" y2="72.4724" gradientUnits="userSpaceOnUse">
<stop stop-color="#904C2E"/>
<stop offset="1" stop-color="#B05D3B"/>
</linearGradient>
<linearGradient id="paint4_linear_2424_15374" x1="30.0333" y1="69.0912" x2="31.3526" y2="69.0912" gradientUnits="userSpaceOnUse">
<stop stop-color="#904C2E"/>
<stop offset="1" stop-color="#B05D3B"/>
</linearGradient>
<linearGradient id="paint5_linear_2424_15374" x1="31.6331" y1="46.8442" x2="31.6331" y2="56.7474" gradientUnits="userSpaceOnUse">
<stop offset="0.3" stop-color="#3E3E3D"/>
<stop offset="0.47" stop-color="#313130"/>
<stop offset="0.74" stop-color="#252524"/>
<stop offset="1" stop-color="#212120"/>
</linearGradient>
<linearGradient id="paint6_linear_2424_15374" x1="52.7913" y1="46.8442" x2="52.7913" y2="56.7474" gradientUnits="userSpaceOnUse">
<stop offset="0.3" stop-color="#3E3E3D"/>
<stop offset="0.47" stop-color="#313130"/>
<stop offset="0.74" stop-color="#252524"/>
<stop offset="1" stop-color="#212120"/>
</linearGradient>
<radialGradient id="paint7_radial_2424_15374" cx="0" cy="0" r="1" gradientUnits="userSpaceOnUse" gradientTransform="translate(53.7415 57.1485) rotate(-7.69) scale(4.428 1.90404)">
<stop stop-color="#E71A46"/>
<stop offset="0.14" stop-color="#E71C47" stop-opacity="0.98"/>
<stop offset="0.27" stop-color="#E8234C" stop-opacity="0.93"/>
<stop offset="0.4" stop-color="#E93055" stop-opacity="0.85"/>
<stop offset="0.53" stop-color="#EB4261" stop-opacity="0.74"/>
<stop offset="0.66" stop-color="#EE5970" stop-opacity="0.59"/>
<stop offset="0.78" stop-color="#F17583" stop-opacity="0.4"/>
<stop offset="0.9" stop-color="#F49599" stop-opacity="0.19"/>
<stop offset="1" stop-color="#F8B3AD" stop-opacity="0"/>
</radialGradient>
<radialGradient id="paint8_radial_2424_15374" cx="0" cy="0" r="1" gradientUnits="userSpaceOnUse" gradientTransform="translate(30.4445 57.0672) rotate(-172.31) scale(4.428 1.90404)">
<stop stop-color="#E71A46"/>
<stop offset="0.14" stop-color="#E71C47" stop-opacity="0.98"/>
<stop offset="0.27" stop-color="#E8234C" stop-opacity="0.93"/>
<stop offset="0.4" stop-color="#E93055" stop-opacity="0.85"/>
<stop offset="0.53" stop-color="#EB4261" stop-opacity="0.74"/>
<stop offset="0.66" stop-color="#EE5970" stop-opacity="0.59"/>
<stop offset="0.78" stop-color="#F17583" stop-opacity="0.4"/>
<stop offset="0.9" stop-color="#F49599" stop-opacity="0.19"/>
<stop offset="1" stop-color="#F8B3AD" stop-opacity="0"/>
</radialGradient>
<linearGradient id="paint9_linear_2424_15374" x1="41.989" y1="50.8278" x2="41.7334" y2="27.5004" gradientUnits="userSpaceOnUse">
<stop stop-color="#904C2E"/>
<stop offset="1" stop-color="#B05D3B"/>
</linearGradient>
</defs>
</svg>
