<svg width="86" height="86" viewBox="0 0 86 86" fill="none" xmlns="http://www.w3.org/2000/svg">
<circle cx="43" cy="51" r="35" fill="#3BC4FF"/>
<mask id="mask0_2424_15120" style="mask-type:alpha" maskUnits="userSpaceOnUse" x="0" y="0" width="86" height="86">
<circle cx="43" cy="43" r="43" fill="#FFC800"/>
</mask>
<g mask="url(#mask0_2424_15120)">
<path fill-rule="evenodd" clip-rule="evenodd" d="M57.2881 82.5489L62.0641 83.9537L62.0634 83.9557C57.2482 89.4877 50.173 93.0004 42.263 93.0004C35.6986 93.0004 29.7089 90.5811 25.109 86.596C24.7476 86.2835 24.3973 85.9635 24.0566 85.6348L30.7637 82.6758L32.8694 74.6478L53.7532 73.7314V77.8244C53.7532 80.009 55.1923 81.9325 57.2881 82.5489Z" fill="#F4AA73"/>
<path fill-rule="evenodd" clip-rule="evenodd" d="M30.7722 77.8232L30.751 68.376L53.7532 68.3762V73.7305C50.3215 75.5455 46.4152 76.5837 42.2627 76.5837C40.38 76.5837 38.5519 76.3613 36.7939 75.9535C35.3857 75.6269 34.0524 76.7392 34.0552 78.1846C34.0552 81.8073 31.6332 84.6761 28.1644 85.6967L28.164 85.6975L25.1107 86.5955C25.1104 86.5953 25.1101 86.5951 25.1098 86.5948C24.1599 85.7734 23.2871 84.9006 22.4626 83.9531L22.4609 83.9536L22.4611 83.9523L27.2371 82.5476H27.2375C29.3331 81.9309 30.7722 80.0077 30.7722 77.8232Z" fill="#E29A6C"/>
<path d="M76.162 45.396H72.879V27.3395C72.879 17.383 64.7789 9.283 54.8225 9.283H31.8415C21.885 9.283 13.785 17.383 13.785 27.3395V45.396H10.502V27.3395C10.502 15.5725 20.0752 6 31.8415 6H54.8225C66.5887 6 76.162 15.5725 76.162 27.3395V45.396Z" fill="#E7E7E7"/>
<path d="M74.5211 43.7549H67.9551V56.8869H74.5211C76.3343 56.8869 77.8041 55.4171 77.8041 53.6039L74.5211 43.7549Z" fill="#FFC800"/>
<path d="M77.8045 53.6039V47.0379C77.8045 45.2247 76.3347 43.7549 74.5215 43.7549V50.3209C74.5215 52.1339 75.9913 53.6039 77.8045 53.6039Z" fill="#FFE27A"/>
<path d="M43.3316 73.0677C31.5462 73.0677 24.3975 63.7467 24.3975 51.9613V25.6973H66.0512L64.6711 51.9613C64.6711 62.6226 56.8528 71.4577 46.6368 73.0463C45.5596 73.2137 44.4558 73.0677 43.3316 73.0677Z" fill="#FBBD80"/>
<path d="M58.101 30.3883L59.7477 25.6973H20.2529L21.9932 51.9613C21.9932 63.7467 31.5473 73.3008 43.3327 73.3008C44.4521 73.3008 45.565 73.2125 46.6379 73.0463C36.4153 71.4636 28.5592 62.6273 28.5592 51.9613V41.067C28.5592 38.4982 30.534 36.3362 33.0969 36.1609C45.6159 35.3045 55.8876 31.3342 58.101 30.3883Z" fill="#FBBD80"/>
<path d="M56.136 14.1361C56.7308 6.94768 51.3855 0.638117 44.1971 0.0433299C37.0086 -0.551458 30.6991 4.79376 30.1043 11.9822C29.5095 19.1707 34.8547 25.4802 42.0432 26.075C49.2316 26.6698 55.5412 21.3246 56.136 14.1361Z" fill="#8F482A"/>
<path d="M69.2441 35.9158C69.2441 38.611 68.7997 41.2059 67.9739 43.6373C67.9625 43.6315 67.9539 43.6287 67.9424 43.6258C67.7675 43.5685 66.6923 43.5341 66.6923 43.5341C65.5396 43.5341 64.4329 43.0753 63.6157 42.261L61.7348 40.3801C60.9807 39.626 59.9858 39.173 58.922 39.1156C54.6842 38.8776 42.9343 37.8225 33.5985 33.2435C32.6036 32.7532 31.385 33.0199 30.7886 33.9546C30.6538 34.1668 30.5162 34.3732 30.3786 34.5796C28.0131 38.115 25.2233 40.9077 23.6205 42.3843C22.8119 43.1269 21.7654 43.5341 20.6701 43.5341H19.1017C19.1017 43.5341 19.1017 43.5369 19.0988 43.5369C18.8608 43.5398 18.6171 43.5656 18.3677 43.6143C18.3333 43.6201 18.3017 43.6287 18.2702 43.6344V43.6373C17.8028 42.2696 17.4616 40.8503 17.2523 39.3909C17.2093 39.107 17.172 38.8232 17.1434 38.5364C17.1319 38.4189 17.1204 38.2985 17.109 38.1809C17.1032 38.135 17.1004 38.0892 17.0946 38.0433C17.086 37.92 17.0745 37.7938 17.0659 37.6705C17.0545 37.5243 17.0459 37.3809 17.0373 37.2347C17.0229 36.9451 17.0115 36.6555 17.0057 36.3659V36.3344C17 36.1968 17 36.0563 17 35.9158C17 35.2706 17.0258 34.6284 17.0774 33.9947V33.989C17.1921 32.5124 17.4444 31.0701 17.82 29.6766C17.8716 29.4817 17.9261 29.2867 17.9835 29.0946C18.0465 28.8853 18.1096 28.6788 18.1756 28.4724C18.4881 27.5004 18.8637 26.5571 19.2967 25.6424C19.4687 25.2726 19.6493 24.9084 19.8443 24.55C20.5095 23.2913 21.2865 22.0956 22.1639 20.9746C22.3417 20.7452 22.5281 20.5187 22.7144 20.2921C22.7374 20.2635 22.7632 20.2348 22.789 20.2061C22.961 20.0026 23.1359 19.8018 23.3137 19.604C23.3309 19.5839 23.3481 19.5667 23.3653 19.5467C28.1536 14.2423 35.2271 10.8818 43.1264 10.8818C57.5544 10.8818 69.2499 22.0899 69.2499 35.9158H69.2441Z" fill="url(#paint0_linear_2424_15120)"/>
<path d="M39.2219 31.3879C35.4948 28.3452 33.5652 23.439 32.1057 19.011C32.0727 18.912 31.9243 18.9615 31.9491 19.0604C33.2272 23.8348 34.9835 28.5761 38.6199 32.0641C39.6259 33.0371 40.7803 33.8122 42.0172 34.4224C43.6416 34.8759 45.4804 35.181 47.5501 35.2305C44.5487 34.5213 41.7203 33.4246 39.2219 31.3797V31.3879Z" fill="#91462B"/>
<path d="M52.8699 30.33C48.3347 27.9717 44.789 23.0242 43.8077 18.0849C43.783 17.9613 43.5851 17.9613 43.6016 18.1014C44.5086 26.0916 50.8661 32.0039 58.3863 33.4221C59.0212 33.216 59.6644 32.9769 60.3158 32.7295C57.7514 32.21 55.2611 31.5833 52.8699 30.3382V30.33Z" fill="#91462B"/>
<path d="M55.9279 24.4846C55.9114 24.3774 55.7548 24.3856 55.763 24.4928C55.9279 27.2222 58.4676 30.034 61.3124 30.0588C61.5928 29.8774 61.8567 29.6959 62.104 29.5145C59.218 29.1187 56.3814 27.618 55.9279 24.4763V24.4846Z" fill="#91462B"/>
<path d="M30.2001 71.6599H25.2756C18.0347 71.6599 12.1436 65.7687 12.1436 58.5279V55.2451H15.4266V58.5281C15.4266 63.9592 19.8445 68.3771 25.2756 68.3771H30.2001V71.6599Z" fill="#E7E7E7"/>
<path d="M33.4831 66.7354H31.8416C30.0284 66.7354 28.5586 68.2052 28.5586 70.0184C28.5586 71.8315 30.0284 73.3014 31.8416 73.3014H33.4831C35.2963 73.3014 36.7661 71.8315 36.7661 70.0184C36.7661 68.2054 35.2963 66.7354 33.4831 66.7354Z" fill="#615260"/>
<path d="M12.1443 43.7549L8.86133 53.6039C8.86133 55.4171 10.3311 56.8869 12.1443 56.8869H18.7103V43.7549H12.1443Z" fill="#FFC800"/>
<path d="M8.86133 53.6039V47.0379C8.86133 45.2247 10.3311 43.7549 12.1443 43.7549V50.3209C12.1443 52.1339 10.6745 53.6039 8.86133 53.6039Z" fill="#FFE27A"/>
<path d="M20.3514 56.8868H18.7099C17.8034 56.8868 17.0684 56.1518 17.0684 55.2453V43.7548C17.0684 42.8483 17.8034 42.1133 18.7099 42.1133H20.3514C21.2579 42.1133 21.9929 42.8483 21.9929 43.7548V55.2453C21.9929 56.1518 21.2581 56.8868 20.3514 56.8868Z" fill="#615260"/>
<path d="M21.9928 55.2453C20.1796 55.2453 18.7098 53.7755 18.7098 51.9623V42.1133H17.0683C16.1618 42.1133 15.4268 42.8483 15.4268 43.7548V56.8868C15.4268 57.7933 16.1618 58.5283 17.0683 58.5283H20.3513C21.2577 58.5283 21.9928 57.7933 21.9928 56.8868V55.2453Z" fill="#4E3D4D"/>
<path d="M69.5975 56.8868H67.956C67.0495 56.8868 66.3145 56.1518 66.3145 55.2453V43.7548C66.3145 42.8483 67.0495 42.1133 67.956 42.1133H69.5975C70.5039 42.1133 71.239 42.8483 71.239 43.7548V55.2453C71.239 56.1518 70.5039 56.8868 69.5975 56.8868Z" fill="#615260"/>
<path d="M71.2379 55.2453C69.4247 55.2453 67.9549 53.7755 67.9549 51.9623V42.1133H66.3134C65.4069 42.1133 64.6719 42.8483 64.6719 43.7548V56.8868C64.6719 57.7933 65.4069 58.5283 66.3134 58.5283H69.5964C70.5029 58.5283 71.2379 57.7933 71.2379 56.8868V55.2453Z" fill="#4E3D4D"/>
<path d="M35.4404 60.211C37.5104 62.331 38.6104 64.011 42.2304 64.011C46.6904 64.011 48.4904 61.661 50.0304 60.191C50.0104 60.171 46.5904 60.681 42.8704 60.661C42.5704 60.661 42.2404 60.891 41.9304 60.881C41.6304 60.881 41.3504 60.601 41.0504 60.611C40.0104 60.651 39.1204 60.731 35.4504 60.211H35.4404Z" fill="#E86363"/>
<path d="M49.8996 59.7512C50.2296 59.7012 50.5696 60.0212 50.5096 60.3712C50.5096 60.4412 50.4696 60.5112 50.4296 60.5612H50.4096C50.3496 60.2512 50.1396 59.9512 49.8896 59.7612C49.8896 59.7612 49.8896 59.7512 49.8996 59.7412V59.7512Z" fill="#B65050"/>
<path d="M35.12 60.5012C34.88 60.3312 34.91 59.9412 35.21 59.7812C35.35 59.7112 35.52 59.7212 35.62 59.7812C35.62 59.7812 35.62 59.8012 35.63 59.8112C35.36 59.9112 35.14 60.2012 35.15 60.5012C35.15 60.5012 35.13 60.5012 35.12 60.5012Z" fill="#B65050"/>
<path d="M35.26 60.0811C37.62 61.3811 42.59 63.7611 50.22 60.0811C50.22 60.0811 50.22 60.1011 50.23 60.1011C42.01 64.8211 35.97 60.6711 35.25 60.1011C35.25 60.1011 35.25 60.0811 35.26 60.0811Z" fill="#B65050"/>
<path d="M41.9901 54.9909C42.2201 54.8109 42.4301 54.6009 42.4801 54.2809C42.5501 53.8009 42.4801 53.4009 42.4801 52.9309C42.4601 52.2309 42.2301 49.7309 42.1201 49.0209C42.1201 48.9909 42.0701 49.0009 42.0701 49.0209C42.0201 50.0709 42.2201 53.8809 41.8101 54.4909C41.4801 54.9809 40.6501 55.2009 40.5001 55.8209C40.3301 56.5109 41.1201 57.2409 41.5901 57.6209C41.7901 57.7809 42.1401 57.7009 42.2101 57.4409C42.3001 57.1609 41.8601 56.8609 41.7001 56.6709C41.5001 56.4409 41.3301 56.2309 41.3301 55.9109C41.3301 55.4609 41.6901 55.2509 42.0101 54.9909H41.9901Z" fill="#B65050"/>
<path d="M27 43.6713C27 43.6713 27.07 43.4813 27.28 43.2613C27.49 43.0313 27.82 42.7313 28.29 42.4613C29.2 41.8813 30.64 41.4113 32.14 41.4313C33.64 41.4313 35.06 41.8913 36.04 42.3513C37.02 42.8213 37.58 43.3013 37.51 43.3913C37.42 43.5913 34.88 42.2613 32.14 42.2713C30.78 42.2513 29.49 42.5813 28.58 42.9913C28.11 43.1713 27.75 43.3813 27.49 43.5213C27.22 43.6513 27.05 43.7113 27.01 43.6713H27Z" fill="#90452A"/>
<path d="M58.7204 43.3813C58.7204 43.3813 58.5004 43.3613 58.2204 43.2213C57.9504 43.0713 57.5704 42.8413 57.0804 42.6513C56.1304 42.2113 54.7704 41.8513 53.3404 41.8713C50.4504 41.8713 47.7704 43.2313 47.6604 43.0313C47.6004 42.9313 48.1904 42.4313 49.2204 41.9513C50.2504 41.4813 51.7504 40.9913 53.3304 41.0013C54.9104 40.9713 56.4204 41.4813 57.3704 42.1113C57.8604 42.4013 58.2004 42.7213 58.4204 42.9613C58.6404 43.1913 58.7504 43.3513 58.7104 43.3913L58.7204 43.3813Z" fill="#90452A"/>
<path style="mix-blend-mode:soft-light" opacity="0.7" d="M28.8304 52.001C28.8304 52.001 31.2204 56.491 35.9804 53.511C35.9804 53.511 37.9704 57.831 33.3804 58.171C28.7904 58.511 27.5804 54.831 28.8304 52.001Z" fill="url(#paint1_radial_2424_15120)"/>
<path style="mix-blend-mode:soft-light" opacity="0.7" d="M57.1005 52.1006C57.1005 52.1006 54.5805 56.8206 49.5705 53.6906C49.5705 53.6906 47.4705 58.2306 52.3105 58.6006C57.1505 58.9706 58.4205 55.0806 57.1005 52.1006Z" fill="url(#paint2_radial_2424_15120)"/>
<path d="M52.7398 54.5105C55.308 54.5105 57.3898 52.3301 57.3898 49.6405C57.3898 46.9509 55.308 44.7705 52.7398 44.7705C50.1717 44.7705 48.0898 46.9509 48.0898 49.6405C48.0898 52.3301 50.1717 54.5105 52.7398 54.5105Z" fill="white"/>
<path d="M52.5005 54.0811C54.4225 54.0811 55.9805 52.523 55.9805 50.6011C55.9805 48.6791 54.4225 47.1211 52.5005 47.1211C50.5786 47.1211 49.0205 48.6791 49.0205 50.6011C49.0205 52.523 50.5786 54.0811 52.5005 54.0811Z" fill="url(#paint3_linear_2424_15120)"/>
<path d="M51.6411 49.4448C51.9622 49.016 51.9574 48.4697 51.6302 48.2248C51.3031 47.9798 50.7776 48.1288 50.4565 48.5576C50.1353 48.9864 50.1402 49.5326 50.4673 49.7776C50.7944 50.0226 51.3199 49.8736 51.6411 49.4448Z" fill="white"/>
<path d="M49.85 50.7204C50.0654 50.7204 50.24 50.5458 50.24 50.3304C50.24 50.115 50.0654 49.9404 49.85 49.9404C49.6346 49.9404 49.46 50.115 49.46 50.3304C49.46 50.5458 49.6346 50.7204 49.85 50.7204Z" fill="white"/>
<path d="M32.92 54.281C35.3611 54.281 37.34 52.2126 37.34 49.661C37.34 47.1095 35.3611 45.041 32.92 45.041C30.4789 45.041 28.5 47.1095 28.5 49.661C28.5 52.2126 30.4789 54.281 32.92 54.281Z" fill="white"/>
<path d="M32.9904 53.8705C34.813 53.8705 36.2904 52.393 36.2904 50.5705C36.2904 48.748 34.813 47.2705 32.9904 47.2705C31.1679 47.2705 29.6904 48.748 29.6904 50.5705C29.6904 52.393 31.1679 53.8705 32.9904 53.8705Z" fill="url(#paint4_linear_2424_15120)"/>
<path d="M32.1818 49.4632C32.4864 49.0565 32.4825 48.5389 32.173 48.3072C31.8636 48.0754 31.3658 48.2173 31.0613 48.624C30.7567 49.0307 30.7606 49.5482 31.0701 49.78C31.3795 50.0117 31.8773 49.8699 32.1818 49.4632Z" fill="white"/>
<path d="M30.4706 50.6804C30.6749 50.6804 30.8406 50.5148 30.8406 50.3104C30.8406 50.1061 30.6749 49.9404 30.4706 49.9404C30.2662 49.9404 30.1006 50.1061 30.1006 50.3104C30.1006 50.5148 30.2662 50.6804 30.4706 50.6804Z" fill="white"/>
</g>
<defs>
<linearGradient id="paint0_linear_2424_15120" x1="43.1249" y1="10.8818" x2="43.1249" y2="43.6373" gradientUnits="userSpaceOnUse">
<stop stop-color="#B05D3B"/>
<stop offset="1" stop-color="#904C2E"/>
</linearGradient>
<radialGradient id="paint1_radial_2424_15120" cx="0" cy="0" r="1" gradientUnits="userSpaceOnUse" gradientTransform="translate(32.2072 55.9352) rotate(-172.31) scale(3.67 1.5781)">
<stop stop-color="#E71A46"/>
<stop offset="0.14" stop-color="#E71C47" stop-opacity="0.98"/>
<stop offset="0.27" stop-color="#E8234C" stop-opacity="0.93"/>
<stop offset="0.4" stop-color="#E93055" stop-opacity="0.85"/>
<stop offset="0.53" stop-color="#EB4261" stop-opacity="0.74"/>
<stop offset="0.66" stop-color="#EE5970" stop-opacity="0.59"/>
<stop offset="0.78" stop-color="#F17583" stop-opacity="0.4"/>
<stop offset="0.9" stop-color="#F49599" stop-opacity="0.19"/>
<stop offset="1" stop-color="#F8B3AD" stop-opacity="0"/>
</radialGradient>
<radialGradient id="paint2_radial_2424_15120" cx="0" cy="0" r="1" gradientUnits="userSpaceOnUse" gradientTransform="translate(53.5397 56.1731) rotate(-7.69) scale(3.87 1.6641)">
<stop stop-color="#E71A46"/>
<stop offset="0.14" stop-color="#E71C47" stop-opacity="0.98"/>
<stop offset="0.27" stop-color="#E8234C" stop-opacity="0.93"/>
<stop offset="0.4" stop-color="#E93055" stop-opacity="0.85"/>
<stop offset="0.53" stop-color="#EB4261" stop-opacity="0.74"/>
<stop offset="0.66" stop-color="#EE5970" stop-opacity="0.59"/>
<stop offset="0.78" stop-color="#F17583" stop-opacity="0.4"/>
<stop offset="0.9" stop-color="#F49599" stop-opacity="0.19"/>
<stop offset="1" stop-color="#F8B3AD" stop-opacity="0"/>
</radialGradient>
<linearGradient id="paint3_linear_2424_15120" x1="52.5005" y1="45.3511" x2="52.5005" y2="58.0511" gradientUnits="userSpaceOnUse">
<stop offset="0.32" stop-color="#A45525"/>
<stop offset="0.48" stop-color="#89471D"/>
<stop offset="0.67" stop-color="#723C16"/>
<stop offset="0.85" stop-color="#633512"/>
<stop offset="1" stop-color="#5F3311"/>
</linearGradient>
<linearGradient id="paint4_linear_2424_15120" x1="33.0004" y1="45.5805" x2="33.0004" y2="57.6505" gradientUnits="userSpaceOnUse">
<stop offset="0.32" stop-color="#A45525"/>
<stop offset="0.48" stop-color="#89471D"/>
<stop offset="0.67" stop-color="#723C16"/>
<stop offset="0.85" stop-color="#633512"/>
<stop offset="1" stop-color="#5F3311"/>
</linearGradient>
</defs>
</svg>
