<svg width="86" height="86" viewBox="0 0 86 86" fill="none" xmlns="http://www.w3.org/2000/svg">
<path d="M43 86C62.33 86 78 70.33 78 51C78 31.67 62.33 16 43 16C23.67 16 8 31.67 8 51C8 70.33 23.67 86 43 86Z" fill="#A1CF44"/>
<mask id="mask0_2424_15373" style="mask-type:luminance" maskUnits="userSpaceOnUse" x="7" y="6" width="72" height="80">
<path d="M42.9998 6C82.9996 6 77.9998 31.67 77.9998 51C77.9998 70.33 62.3298 86 42.9998 86C23.6698 86 7.99979 70.33 7.99979 51C7.99979 31.67 2.99999 6 42.9998 6Z" fill="white"/>
</mask>
<g mask="url(#mask0_2424_15373)">
<path d="M14.915 81.0958L15.0649 85.2079L15.187 90.8794C15.187 90.8794 22.0183 90.1635 24.954 90.1802C27.8896 90.1968 34.2493 90.7629 34.2493 90.7629L34.4768 85.1746L34.6044 80.957L14.9206 81.1013L14.915 81.0958Z" fill="#443838"/>
<path d="M14.8824 81.7506C14.8824 81.7506 19.2831 83.4875 24.8214 83.5708C30.3598 83.654 34.6329 81.8005 34.6329 81.8005C34.8992 77.9048 34.7716 74.2977 34.3276 67.9547C34.2 66.1067 35.2877 57.727 35.5541 51.9334C35.6429 49.9856 34.0557 48.7924 32.1523 48.354C30.0934 47.8768 27.241 47.3607 24.8048 47.3773C22.4629 47.3884 19.8492 47.7658 17.9623 48.1487C16.0755 48.5316 14.3552 49.747 14.4384 51.7448C14.6604 56.9335 15.5816 63.6816 15.3153 68.2377C14.9989 73.6706 14.777 76.7172 14.8824 81.7617V81.7506Z" fill="#3F8C91"/>
<path d="M34.4775 85.1689L32.5463 131.146C31.6695 131.296 31.0368 131.407 29.8604 131.418C28.645 131.424 27.9846 131.318 27.0801 131.174C26.7915 115.347 26.0923 101.029 25.8037 85.2078L34.483 85.1745L34.4775 85.1689Z" fill="#443838"/>
<path d="M23.7451 85.1689L21.8139 131.146C20.937 131.296 20.3044 131.407 19.1279 131.418C17.9126 131.424 17.2522 131.318 16.3477 131.174C16.0591 115.347 15.3599 101.029 15.0713 85.2078L23.7506 85.1745L23.7451 85.1689Z" fill="#443838"/>
<path d="M24.8211 50.9962C27.5293 50.9962 28.3284 49.2259 28.3284 47.6221V43.0771H21.2861V47.6221C21.2861 49.2259 22.113 50.9962 24.8211 50.9962Z" fill="#D58882"/>
<path d="M12.9642 37.9124C14.087 37.4356 14.2717 35.3407 13.3767 33.2334C12.4818 31.1261 10.8461 29.8044 9.72338 30.2812C8.60061 30.758 8.41591 32.8528 9.31084 34.9601C10.2058 37.0674 11.8414 38.3892 12.9642 37.9124Z" fill="#DC9289"/>
<g style="mix-blend-mode:multiply" opacity="0.2">
<path d="M9.84921 34.7301C10.504 36.2784 11.897 37.5048 12.6017 37.2107C13.3065 36.9166 13.0457 35.2018 12.3909 33.6535C11.736 32.1052 10.6317 31.0897 9.93245 31.3893C9.23322 31.689 9.19437 33.1818 9.85476 34.7301H9.84921Z" fill="#DC9289"/>
</g>
<path d="M9.84921 34.7311C10.504 36.2794 11.897 37.5058 12.6017 37.2117C13.3065 36.9176 13.0457 35.2028 12.3909 33.6545C11.736 32.1062 10.6317 31.0907 9.93245 31.3903C9.23322 31.69 9.19437 33.1828 9.85476 34.7311H9.84921Z" stroke="#D2887A" stroke-width="0.155384" stroke-miterlimit="10"/>
<path d="M40.3875 34.9599C41.2824 32.8526 41.0977 30.7578 39.9749 30.281C38.8522 29.8042 37.2165 31.1259 36.3216 33.2332C35.4267 35.3405 35.6114 37.4354 36.7341 37.9122C37.8569 38.389 39.4925 37.0672 40.3875 34.9599Z" fill="#DC9289"/>
<g style="mix-blend-mode:multiply" opacity="0.2">
<path d="M39.8438 34.7301C39.189 36.2784 37.7961 37.5048 37.0913 37.2107C36.3865 36.9166 36.6473 35.2018 37.3022 33.6535C37.957 32.1052 39.0613 31.0897 39.7606 31.3893C40.4598 31.689 40.4986 33.1818 39.8383 34.7301H39.8438Z" fill="#DC9289"/>
</g>
<path d="M39.8448 34.7311C39.1899 36.2794 37.797 37.5058 37.0923 37.2117C36.3875 36.9176 36.6483 35.2028 37.3031 33.6545C37.958 32.1062 39.0623 31.0907 39.7615 31.3903C40.4608 31.69 40.4996 33.1828 39.8392 34.7311H39.8448Z" stroke="#D2887A" stroke-width="0.155384" stroke-miterlimit="10"/>
<path d="M12.4463 32.1889C12.4463 37.8882 14.7216 46.3622 24.8937 46.3622C34.2112 46.3622 37.3411 37.8882 37.3411 32.1889C37.3411 24.6639 31.7694 18.6982 24.8937 18.6982C18.0179 18.6982 12.4463 24.6639 12.4463 32.1889Z" fill="#DC9289"/>
<path d="M24.8876 15.7959C32.3516 15.7959 38.2783 22.0723 37.8455 29.5252L37.6846 32.3277H12.0961L11.9352 29.5252C11.358 19.5251 16.3026 15.7959 24.8931 15.7959H24.8876Z" fill="#DC9289"/>
<path d="M19.095 32.7769C19.4689 32.7769 19.772 32.4738 19.772 32.0999C19.772 31.726 19.4689 31.4229 19.095 31.4229C18.7211 31.4229 18.418 31.726 18.418 32.0999C18.418 32.4738 18.7211 32.7769 19.095 32.7769Z" fill="#F9B8AB"/>
<path d="M30.6702 32.7769C31.0441 32.7769 31.3472 32.4738 31.3472 32.0999C31.3472 31.726 31.0441 31.4229 30.6702 31.4229C30.2963 31.4229 29.9932 31.726 29.9932 32.0999C29.9932 32.4738 30.2963 32.7769 30.6702 32.7769Z" fill="#F9B8AB"/>
<path d="M39.1731 19.7692C37.9689 15.5072 34.6559 12.6492 30.516 11.5616C26.4982 10.5016 21.7923 10.9678 18.0353 12.7436C13.8954 14.697 15.194 16.9334 15.194 16.9334C15.194 16.9334 12.447 18.1432 11.487 19.9911C10.7267 21.4507 10.3161 23.1155 10.2606 24.7637C10.1496 27.8103 11.2595 32.0112 12.9021 35.9569C13.79 32.7771 14.5891 26.8836 14.7501 22.5494C24.8223 26.151 27.8467 23.8203 27.8467 23.8203C27.8467 23.8203 33.596 19.9246 36.0988 24.4529C35.8157 27.5939 35.9933 31.2676 36.8313 35.9624C36.7758 35.6406 37.4417 34.6472 37.5749 34.3364C37.9023 33.5651 38.202 32.7882 38.4684 31.9946C39.1343 30.0245 39.6226 27.9712 39.7558 25.8902C39.889 23.787 39.7392 21.7226 39.1898 19.7803L39.1731 19.7692Z" fill="url(#paint0_linear_2424_15373)"/>
<path d="M18.6671 35.0754C19.9022 35.0754 20.9035 34.0741 20.9035 32.839C20.9035 31.6038 19.9022 30.6025 18.6671 30.6025C17.4319 30.6025 16.4307 31.6038 16.4307 32.839C16.4307 34.0741 17.4319 35.0754 18.6671 35.0754Z" fill="url(#paint1_linear_2424_15373)"/>
<path d="M19.9751 32.308C20.1836 32.1519 20.1843 31.8005 19.9767 31.5233C19.7691 31.2461 19.4318 31.148 19.2233 31.3042C19.0147 31.4603 19.014 31.8116 19.2216 32.0888C19.4292 32.3661 19.7665 32.4642 19.9751 32.308Z" fill="white"/>
<path d="M20.3708 32.9106C20.5087 32.9106 20.6205 32.7988 20.6205 32.6609C20.6205 32.5229 20.5087 32.4111 20.3708 32.4111C20.2329 32.4111 20.1211 32.5229 20.1211 32.6609C20.1211 32.7988 20.2329 32.9106 20.3708 32.9106Z" fill="white"/>
<path d="M35.0714 27.6101C35.0048 27.5213 34.9105 27.4215 34.7828 27.2994L34.7606 27.2827C34.6441 27.1884 34.5164 27.0774 34.3611 26.9886C34.0059 26.7611 33.5841 26.5779 33.1346 26.4614C32.6629 26.3393 32.1413 26.2783 31.6196 26.2894C30.7095 26.306 29.7217 26.5335 28.9115 26.9054C28.3344 27.1717 27.9348 27.4603 27.8571 27.6823C27.8238 27.7655 27.8405 27.8321 27.8571 27.871C27.9681 28.104 28.3788 28.0541 29.2223 27.9431C29.8771 27.8543 30.7761 27.7267 31.6474 27.71C32.0858 27.7045 32.502 27.7211 32.8849 27.7711C33.2234 27.8099 33.573 27.8821 33.9227 27.9764C34.1002 28.0208 34.2612 28.0707 34.3999 28.1151C34.6441 28.1873 34.8272 28.2483 34.9659 28.2483C35.0603 28.2483 35.138 28.2206 35.1879 28.154C35.31 27.9986 35.1768 27.7711 35.0658 27.6157L35.0714 27.6101Z" fill="#47281C"/>
<path d="M20.637 26.9277C20.2541 26.7445 19.2274 26.3172 17.9344 26.2895C17.4128 26.2784 16.8856 26.3339 16.4194 26.4504C15.9699 26.5614 15.5426 26.7334 15.1874 26.9499C15.0265 27.0387 14.8933 27.1441 14.7823 27.2384L14.749 27.2662C14.6214 27.3827 14.5271 27.4771 14.4549 27.5658C14.3384 27.7212 14.1996 27.9432 14.3273 28.0986C14.3828 28.1707 14.4605 28.1985 14.5603 28.1985C14.6991 28.1985 14.8878 28.143 15.1319 28.0764C15.2762 28.0376 15.4372 27.9932 15.6203 27.9488C15.9699 27.86 16.3251 27.7989 16.6691 27.7601C17.0465 27.7212 17.4627 27.7046 17.9122 27.7101C18.8057 27.7268 19.7213 27.8711 20.3318 27.9599C21.1919 28.093 21.5804 28.1374 21.6858 27.9099C21.7025 27.8711 21.7191 27.8045 21.6858 27.7212C21.5915 27.4549 21.0865 27.1385 20.6425 26.9277H20.637Z" fill="#47281C"/>
<path d="M31.2148 35.3467C32.8667 35.3467 34.2059 33.9454 34.2059 32.2168C34.2059 30.4882 32.8667 29.0869 31.2148 29.0869C29.5628 29.0869 28.2236 30.4882 28.2236 32.2168C28.2236 33.9454 29.5628 35.3467 31.2148 35.3467Z" fill="white"/>
<path d="M34.1954 32.2173C34.1177 32.2173 34.1177 31.7068 33.8069 31.0464C33.6515 30.719 33.4185 30.3638 33.0855 30.0586C32.7525 29.7589 32.3308 29.5092 31.8591 29.3982C30.9101 29.1429 29.9112 29.4926 29.3507 29.9754C28.7736 30.4526 28.5516 30.941 28.485 30.9021C28.4351 30.891 28.5516 30.3361 29.1287 29.7312C29.4173 29.4426 29.828 29.154 30.333 28.9931C30.8324 28.8322 31.4207 28.7989 31.9701 28.9432C32.525 29.0763 33.0134 29.3816 33.3796 29.7478C33.7459 30.1141 33.979 30.5414 34.1121 30.9188C34.3674 31.6901 34.2453 32.2173 34.2009 32.2118L34.1954 32.2173Z" fill="#3F2318"/>
<path d="M18.3447 35.3467C19.9966 35.3467 21.3358 33.9454 21.3358 32.2168C21.3358 30.4882 19.9966 29.0869 18.3447 29.0869C16.6927 29.0869 15.3535 30.4882 15.3535 32.2168C15.3535 33.9454 16.6927 35.3467 18.3447 35.3467Z" fill="white"/>
<path d="M15.3373 32.2167C15.2874 32.2222 15.1708 31.6895 15.4372 30.9181C15.5704 30.5407 15.809 30.1134 16.1753 29.7472C16.5415 29.3864 17.0354 29.0812 17.5904 28.948C18.1398 28.8038 18.7225 28.8371 19.2219 28.998C19.7269 29.1589 20.132 29.4475 20.4206 29.7361C20.9977 30.341 21.1032 30.8959 21.0532 30.907C20.9866 30.9403 20.7702 30.4575 20.1986 29.9747C19.6437 29.4919 18.6503 29.1312 17.7014 29.392C17.2297 29.503 16.8079 29.7527 16.4694 30.0524C16.1364 30.3576 15.8978 30.7128 15.7369 31.0402C15.4206 31.7006 15.4095 32.2167 15.3373 32.2167Z" fill="#3F2318"/>
<path d="M31.1925 35.0754C32.4276 35.0754 33.4289 34.0741 33.4289 32.839C33.4289 31.6038 32.4276 30.6025 31.1925 30.6025C29.9573 30.6025 28.9561 31.6038 28.9561 32.839C28.9561 34.0741 29.9573 35.0754 31.1925 35.0754Z" fill="url(#paint2_linear_2424_15373)"/>
<path d="M32.5024 32.3129C32.7109 32.1567 32.7117 31.8054 32.5041 31.5282C32.2965 31.251 31.9591 31.1529 31.7506 31.309C31.5421 31.4652 31.5413 31.8165 31.7489 32.0937C31.9566 32.3709 32.2939 32.4691 32.5024 32.3129Z" fill="white"/>
<path d="M32.9011 32.9106C33.039 32.9106 33.1508 32.7988 33.1508 32.6609C33.1508 32.5229 33.039 32.4111 32.9011 32.4111C32.7632 32.4111 32.6514 32.5229 32.6514 32.6609C32.6514 32.7988 32.7632 32.9106 32.9011 32.9106Z" fill="white"/>
<path d="M18.4669 35.0754C19.702 35.0754 20.7033 34.0741 20.7033 32.839C20.7033 31.6038 19.702 30.6025 18.4669 30.6025C17.2318 30.6025 16.2305 31.6038 16.2305 32.839C16.2305 34.0741 17.2318 35.0754 18.4669 35.0754Z" fill="url(#paint3_linear_2424_15373)"/>
<path d="M19.7758 32.3109C19.9844 32.1548 19.9851 31.8035 19.7775 31.5263C19.5699 31.249 19.2326 31.1509 19.024 31.3071C18.8155 31.4632 18.8148 31.8146 19.0224 32.0918C19.23 32.369 19.5673 32.4671 19.7758 32.3109Z" fill="white"/>
<path d="M20.1775 32.9106C20.3154 32.9106 20.4272 32.7988 20.4272 32.6609C20.4272 32.5229 20.3154 32.4111 20.1775 32.4111C20.0395 32.4111 19.9277 32.5229 19.9277 32.6609C19.9277 32.7988 20.0395 32.9106 20.1775 32.9106Z" fill="white"/>
<g opacity="0.48">
<path d="M35.4324 13.8096C35.3991 13.8207 35.449 14.0149 35.4768 14.359C35.499 14.703 35.4768 15.2136 35.2215 15.7741C34.9718 16.329 34.5001 16.9117 33.8564 17.4223C33.5345 17.6831 33.1904 17.9384 32.7964 18.1326C32.4024 18.3324 31.9584 18.4933 31.5034 18.7042C30.5711 19.0982 29.8386 19.8085 29.3502 20.5133C28.8563 21.2236 28.5122 21.9007 28.1904 22.4445C27.5522 23.5433 27.0472 24.1426 27.0916 24.187C27.1304 24.2259 27.7242 23.6765 28.4346 22.5999C28.7953 22.0671 29.1671 21.4012 29.6554 20.7353C30.1438 20.0749 30.8042 19.4478 31.6754 19.0815C32.1083 18.8818 32.5578 18.7153 32.9795 18.4988C33.4068 18.2824 33.7731 17.9994 34.1005 17.7219C34.7609 17.167 35.2548 16.5177 35.4934 15.8906C35.7376 15.2635 35.7099 14.6975 35.6377 14.3423C35.56 13.9816 35.4601 13.804 35.4379 13.8151L35.4324 13.8096Z" fill="#392117"/>
</g>
<g opacity="0.48">
<path d="M20.3269 24.1596C20.3269 24.1596 20.5989 24.1374 21.0706 23.9876C21.5367 23.8378 22.2082 23.5991 22.974 23.1496C23.7398 22.7112 24.5667 22.012 25.2881 21.1019C26.0207 20.2029 26.6866 19.1208 27.7299 18.3605C28.2404 17.9665 28.812 17.7334 29.3947 17.5003C29.9719 17.2728 30.5434 17.0619 31.0706 16.8177C31.6034 16.5791 32.0973 16.2961 32.4969 15.9409C32.7077 15.7744 32.8631 15.5525 33.0129 15.3471C33.1239 15.1141 33.2405 14.8921 33.2571 14.6535C33.3459 14.1873 33.2349 13.7711 33.1184 13.4381C33.0074 13.0996 32.8298 12.8499 32.7244 12.6279C32.4192 12.2339 32.2416 12.0341 32.2194 12.0508C32.1972 12.0674 32.3304 12.306 32.5856 12.7056C32.6633 12.9331 32.8187 13.1884 32.902 13.5103C32.9907 13.8266 33.0684 14.2095 32.9741 14.598C32.9519 14.7977 32.8409 14.9809 32.7466 15.1751C32.6078 15.3471 32.4747 15.5303 32.2749 15.6801C31.9031 15.9909 31.4369 16.2461 30.9153 16.4681C30.3992 16.6956 29.8331 16.901 29.2449 17.123C28.6677 17.3505 28.024 17.6058 27.4802 18.0275C26.3592 18.8488 25.6877 19.9809 24.9885 20.8633C24.3003 21.7678 23.5401 22.4393 22.8131 22.8999C22.0972 23.3661 21.4535 23.6435 21.0095 23.8322C20.5656 24.0209 20.3158 24.1208 20.3214 24.1541L20.3269 24.1596Z" fill="#392117"/>
</g>
<path d="M15.1872 16.9336C15.1872 16.9336 12.4402 18.1434 11.4802 19.9913C10.7199 21.4508 10.3092 23.1157 10.2537 24.7639C10.1427 27.8105 11.2526 32.0114 12.8953 35.9571C13.7332 32.9493 14.5379 26.8005 14.7488 22.5496C14.6045 22.3332 14.4824 22.0946 14.4103 21.8282C13.8775 19.6362 15.1927 16.9336 15.1927 16.9336H15.1872Z" fill="url(#paint4_linear_2424_15373)"/>
<g opacity="0.72">
<path d="M12.6511 19.2028C12.6012 19.1917 12.4902 19.4969 12.4736 20.013C12.4514 20.5291 12.5568 21.245 12.8509 21.972C13.4503 23.437 14.4214 24.3027 14.4991 24.214C14.5823 24.1474 13.7888 23.1873 13.2338 21.8166C12.6456 20.4459 12.7677 19.2084 12.6511 19.1973V19.2028Z" fill="#392117"/>
</g>
<g opacity="0.72">
<path d="M14.1391 28.3876C14.1724 28.3377 13.845 28.0602 13.39 27.5552C12.9349 27.0502 12.3578 26.2955 11.8639 25.3854C11.3644 24.4753 11.0814 23.5762 10.9538 22.9103C10.8206 22.2444 10.8039 21.8115 10.7429 21.8115C10.6929 21.8115 10.6042 22.2444 10.6652 22.9547C10.7262 23.6595 10.9815 24.6362 11.5032 25.5851C12.0193 26.5396 12.663 27.2944 13.1846 27.7661C13.7118 28.2433 14.1114 28.4376 14.1391 28.3932V28.3876Z" fill="#392117"/>
</g>
<path d="M24.8934 36.9279C25.0432 36.8114 25.1764 36.6782 25.2041 36.4729C25.2485 36.1621 25.2041 35.9068 25.2041 35.6016C25.193 35.2298 25.0432 33.5428 24.9711 33.0822C24.9711 33.06 24.9378 33.0711 24.9378 33.0822C24.9045 33.7592 25.0377 36.2065 24.7713 36.606C24.5604 36.9224 24.0221 37.0666 23.9278 37.4607C23.8168 37.9046 24.3218 38.3708 24.627 38.6149C24.7546 38.7204 24.9766 38.6649 25.0266 38.4984C25.0821 38.3153 24.8046 38.1266 24.6991 38.0045C24.5715 37.8547 24.4605 37.727 24.4605 37.5162C24.4605 37.2276 24.688 37.0888 24.8989 36.9224L24.8934 36.9279Z" fill="#B65050"/>
<path d="M29.5166 41.2116C29.722 41.2227 29.8829 41.4724 29.8052 41.6833C29.7941 41.7277 29.7664 41.7665 29.7386 41.7887C29.7386 41.7887 29.7275 41.7887 29.722 41.7887C29.722 41.5834 29.6332 41.3725 29.5 41.2172C29.5 41.2172 29.5055 41.2116 29.5111 41.2061L29.5166 41.2116Z" fill="#B65050"/>
<path d="M29.5166 41.2116C29.722 41.2227 29.8829 41.4724 29.8052 41.6833C29.7941 41.7277 29.7664 41.7665 29.7386 41.7887C29.7386 41.7887 29.7275 41.7887 29.722 41.7887C29.722 41.5834 29.6332 41.3725 29.5 41.2172C29.5 41.2172 29.5055 41.2116 29.5111 41.2061L29.5166 41.2116Z" stroke="#B65050" stroke-width="0.138736" stroke-miterlimit="10"/>
<path d="M20.1765 41.7791C20.0155 41.7014 19.9878 41.4572 20.1487 41.313C20.2264 41.2519 20.3263 41.2353 20.3985 41.263C20.3985 41.263 20.404 41.2741 20.4096 41.2797C20.2597 41.3795 20.1598 41.5904 20.1987 41.7791C20.1931 41.7791 20.1876 41.7791 20.182 41.7791H20.1765Z" fill="#B65050"/>
<path d="M20.1765 41.7791C20.0155 41.7014 19.9878 41.4572 20.1487 41.313C20.2264 41.2519 20.3263 41.2353 20.3985 41.263C20.3985 41.263 20.404 41.2741 20.4096 41.2797C20.2597 41.3795 20.1598 41.5904 20.1987 41.7791C20.1931 41.7791 20.1876 41.7791 20.182 41.7791H20.1765Z" stroke="#B65050" stroke-width="0.138736" stroke-miterlimit="10"/>
<path d="M20.2093 41.501C22.1905 42.1447 25.0318 42.7662 29.5435 41.5232C29.5435 41.5232 29.5435 41.5343 29.5435 41.5398C24.6933 43.2712 21.1527 41.9394 20.1982 41.5176C20.1982 41.5176 20.1982 41.5065 20.2038 41.501H20.2093Z" fill="#B65050"/>
<path d="M20.21 41.5011C20.21 41.5011 20.2045 41.5011 20.1934 41.5122C20.1934 41.5122 20.1934 41.5122 20.1989 41.5178C20.3099 41.601 21.3199 42.1338 23.0402 42.3946C24.7439 42.6665 27.1801 42.5777 29.583 41.6843C29.5886 41.6843 29.5941 41.6843 29.5997 41.6787C29.6441 41.6621 29.694 41.6454 29.7384 41.6288C29.7217 41.5844 29.7106 41.5344 29.694 41.49C29.694 41.49 29.694 41.4789 29.694 41.4734C29.6774 41.4234 29.6607 41.379 29.6496 41.3291C29.5997 41.3457 29.5497 41.3568 29.4998 41.3735C27.0136 42.106 24.6107 42.2115 22.9181 42.0172C22.0691 41.9284 21.392 41.7786 20.9314 41.6676C20.4653 41.5566 20.2156 41.4789 20.2045 41.5011C20.1989 41.5178 20.4375 41.6288 20.8981 41.7786C21.3532 41.9284 22.0302 42.1116 22.8904 42.2337C24.5996 42.4889 27.058 42.4168 29.5886 41.6732C29.522 41.6399 29.4609 41.6066 29.3943 41.5733C29.3943 41.5733 29.3943 41.5844 29.3943 41.5899C29.4276 41.5289 29.4609 41.4623 29.4887 41.4012C29.4831 41.4012 29.4776 41.4012 29.472 41.4068C27.1246 42.2836 24.7494 42.4001 23.068 42.1837C21.3698 41.9784 20.3487 41.5233 20.1989 41.5122C20.1989 41.5122 20.1989 41.5178 20.1989 41.5233C20.1989 41.5122 20.1989 41.5067 20.1989 41.5067L20.21 41.5011Z" fill="#B35652"/>
<path d="M31.4978 40.7956C31.4479 40.4072 31.2148 40.0798 30.8929 39.8966C30.7098 39.7912 30.4934 39.7301 30.2714 39.7301C30.116 39.7301 29.9384 39.7301 29.7553 39.7301C29.1449 39.6081 28.3624 39.4138 27.5799 39.092C26.5089 38.6591 25.682 38.6535 25.2325 38.709C24.9883 38.7368 24.7442 38.7368 24.5055 38.709C24.0838 38.6591 23.2514 38.6757 21.9361 39.1807C20.9983 39.547 20.3435 39.7412 19.9051 39.8522C19.8163 39.8522 19.7275 39.8633 19.6498 39.8633C19.4888 39.8744 19.3335 39.9133 19.1892 39.9799C18.8118 40.1574 18.5343 40.5182 18.4844 40.951C18.329 42.2163 18.1847 44.3639 19.2558 45.2685C19.5832 45.5404 21.9306 46.3673 24.6776 46.3673C26.8918 46.3673 28.9007 45.9899 30.4767 45.1131C30.4767 45.1131 31.9695 44.2418 31.5089 40.8012L31.4978 40.7956ZM29.7498 42.7102C28.3735 43.2429 26.6143 43.6813 24.6609 43.6813C22.9461 43.6813 21.5921 43.3761 20.7985 43.2207C20.2602 43.1153 19.8329 42.8267 19.7441 42.2829C19.6609 41.7945 19.6886 41.739 19.7774 41.0398C20.8152 40.9788 22.9683 40.9011 28.6066 40.9011C29.2226 40.9011 29.7664 40.9011 30.1882 40.9011C30.3768 42.4605 30.0494 42.516 29.7498 42.7102Z" fill="#47281C"/>
<path d="M28.3338 47.5382C28.2672 47.5382 28.3172 48.1875 27.9343 49.0865C27.7345 49.5249 27.4015 50.0133 26.8521 50.324C26.3138 50.6404 25.6091 50.7902 24.8599 50.7902C24.1107 50.7846 23.4059 50.6515 22.8565 50.3518C22.296 50.0577 21.9298 49.5971 21.7245 49.1642C21.3082 48.2763 21.3637 47.6215 21.2916 47.627C21.2527 47.6104 21.0807 48.2819 21.4581 49.2808C21.6468 49.7691 22.0463 50.324 22.6679 50.6792C23.2838 51.0399 24.0663 51.1953 24.8599 51.2009C25.6535 51.2009 26.4415 51.0288 27.0519 50.6459C27.6679 50.2686 28.0231 49.6859 28.2062 49.1975C28.5503 48.1875 28.3782 47.5271 28.3394 47.5382H28.3338Z" fill="#32686E"/>
<path d="M15.1818 67.7726C14.6546 70.059 10.8033 83.3055 10.8033 83.3055C10.8033 83.3055 10.6756 84.3099 9.29938 83.9992C8.07295 83.7217 8.33377 82.7506 8.33377 82.7506C8.33377 82.7506 10.376 68.8548 10.7367 66.7737C10.9087 65.5861 12.2295 65.1033 13.295 65.2976C14.4382 65.5029 15.5092 66.3964 15.1762 67.7782L15.1818 67.7726Z" fill="#DC9289"/>
<path d="M15.1819 67.7718C16.2363 63.1991 18.1786 56.2734 19.3107 51.634L13.4616 50.2744C12.9344 54.9026 11.3916 62.2057 10.7368 66.7618C10.4926 67.8606 11.4804 68.9483 12.4738 69.1703C13.6669 69.4366 14.8933 68.8817 15.1819 67.7662V67.7718Z" fill="#DC9289"/>
<path d="M10.5373 82.8321C10.5373 82.8321 11.1699 85.1129 10.9313 86.1174C10.6927 87.1218 10.0989 87.9542 9.79922 88.5369C9.53285 89.0419 9.21653 89.3915 8.96126 89.2473C8.70598 89.103 8.81697 88.5536 9.0112 88.1596C9.20543 87.7655 9.66604 87.0552 9.51065 86.6668C9.38302 86.3338 8.92796 86.528 8.40077 87.3327C7.87912 88.1429 7.64604 88.8643 7.61274 89.2306C7.57945 89.5913 7.68489 91.3338 7.46291 91.739C7.34082 91.9665 6.82472 91.8166 6.78033 91.1285C6.73593 90.4404 6.43626 89.0086 6.34747 88.8033C6.25868 88.598 6.00341 87.4215 6.09775 86.7056C6.19209 85.9897 7.82362 83.4592 8.16214 82.9264C8.88912 81.4059 10.3375 81.7056 10.5373 82.8376V82.8321Z" fill="#DC9289"/>
<path d="M10.2154 66.6454C11.4917 59.0094 12.7847 51.4177 12.8846 50.9682C13.262 49.2923 15.4374 48.1935 17.0745 48.6319C18.5506 49.0259 19.9491 50.6519 19.5828 52.2779C19.4663 52.7995 17.5462 60.3357 15.5928 67.8552C15.2376 69.0983 13.7004 69.4423 12.5017 69.187C11.2809 68.9262 9.96563 67.894 10.2154 66.651V66.6454Z" fill="#3F8C91"/>
<path d="M10.2149 66.6457C8.91638 74.4094 7.62891 82.2063 7.62891 82.5726L11.3637 83.3773C11.619 82.9777 13.6278 75.4194 15.5924 67.8555C15.8698 66.6124 14.6545 65.6967 13.5613 65.3638C12.3237 64.9864 10.5091 65.336 10.2149 66.6457Z" fill="#3F8C91"/>
<path d="M34.5659 67.7726C35.0931 70.059 38.9444 83.3055 38.9444 83.3055C38.9444 83.3055 39.072 84.3099 40.4483 83.9992C41.6747 83.7217 41.4139 82.7506 41.4139 82.7506C41.4139 82.7506 39.3717 68.8548 39.011 66.7737C38.8389 65.5861 37.5182 65.1033 36.4527 65.2976C35.3095 65.5029 34.2385 66.3964 34.5714 67.7782L34.5659 67.7726Z" fill="#DC9289"/>
<path d="M34.5663 67.7718C33.5119 63.1991 31.5696 56.2734 30.4375 51.634L36.2866 50.2744C36.8138 54.9026 38.3565 62.2057 39.0114 66.7618C39.2556 67.8606 38.2678 68.9483 37.2744 69.1703C36.0813 69.4366 34.8549 68.8817 34.5663 67.7662V67.7718Z" fill="#DC9289"/>
<path d="M39.2115 82.8321C39.2115 82.8321 38.5788 85.1129 38.8175 86.1174C39.0561 87.1218 39.6499 87.9542 39.9495 88.5369C40.2159 89.0419 40.5322 89.3915 40.7875 89.2473C41.0428 89.103 40.9318 88.5536 40.7376 88.1596C40.5433 87.7655 40.0827 87.0552 40.2381 86.6668C40.3658 86.3338 40.8208 86.528 41.348 87.3327C41.8697 88.1429 42.1027 88.8643 42.136 89.2306C42.1693 89.5913 42.0639 91.3338 42.2859 91.739C42.408 91.9665 42.924 91.8166 42.9684 91.1285C43.0128 90.4404 43.3125 89.0086 43.4013 88.8033C43.4901 88.598 43.7454 87.4215 43.651 86.7056C43.5567 85.9897 41.9251 83.4592 41.5866 82.9264C40.8597 81.4059 39.4113 81.7056 39.2115 82.8376V82.8321Z" fill="#DC9289"/>
<path d="M39.533 66.6454C38.2566 59.0094 36.9636 51.4177 36.8637 50.9682C36.4863 49.2923 34.3109 48.1935 32.6738 48.6319C31.1977 49.0259 29.7992 50.6519 30.1655 52.2779C30.282 52.7995 32.2021 60.3357 34.1555 67.8552C34.5107 69.0983 36.0479 69.4423 37.2466 69.187C38.4675 68.9262 39.7827 67.894 39.533 66.651V66.6454Z" fill="#3F8C91"/>
<path d="M39.5327 66.6457C40.8313 74.4094 42.1188 82.2063 42.1188 82.5726L38.384 83.3773C38.1287 82.9777 36.1198 75.4194 34.1553 67.8555C33.8778 66.6124 35.0932 65.6967 36.1864 65.3638C37.4239 64.9864 39.2386 65.336 39.5327 66.6457Z" fill="#3F8C91"/>
<path d="M75.4637 84.8271C74.759 82.9014 74.7035 80.7704 74.2928 78.5506C73.8877 76.3087 73.5547 74.039 73.2495 71.7581C72.6391 67.1909 72.1674 62.6016 71.679 57.9678L66.002 58.8168C66.8788 63.3729 67.7445 67.9734 68.76 72.5517C69.265 74.8436 69.8033 77.1355 70.4193 79.4275C71.0575 81.7249 71.9676 83.4453 73.0664 85.8093L75.4637 84.8271Z" fill="#F8B3AD"/>
<path d="M67.6174 64.5717L66.7295 61.6804L69.371 55.8535C71.8128 56.586 72.7895 59.333 72.7895 62.2076L67.6174 64.5717Z" fill="#FFD771"/>
<path d="M73.2155 84.2609C73.2155 84.2609 72.5218 86.9357 72.7549 87.9402C72.988 88.9446 73.5707 89.7882 73.8703 90.3708C74.1312 90.8814 74.4475 91.231 74.7028 91.0867C74.958 90.9424 74.8526 90.393 74.6639 89.999C74.4752 89.605 74.0202 88.8891 74.1756 88.5007C74.3087 88.1677 74.7638 88.3675 75.2799 89.1777C75.796 89.9879 76.0235 90.7205 76.0513 91.0812C76.0846 91.4419 75.9625 93.1844 76.1789 93.5895C76.301 93.817 76.8171 93.6728 76.867 92.9846C76.917 92.2965 77.2333 90.8647 77.3221 90.6594C77.4109 90.4541 77.6773 89.2776 77.5885 88.5617C77.4997 87.8458 75.8903 85.3042 75.5574 84.7659C75.2244 84.2276 75.1967 84.1388 75.0524 83.8835C74.9025 83.6227 73.382 83.595 73.2211 84.2609H73.2155Z" fill="#F8B3AD"/>
<path d="M47.6836 84.8271C48.3884 82.9014 48.4439 80.7704 48.8545 78.5506C49.2596 76.3087 49.5926 74.039 49.8978 71.7581C50.5083 67.1909 50.98 62.6016 51.4683 57.9678L57.1454 58.8168C56.2686 63.3729 55.4029 67.9734 54.3873 72.5517C53.8823 74.8436 53.344 77.1355 52.728 79.4275C52.0898 81.7249 51.1797 83.4453 50.081 85.8093L47.6836 84.8271Z" fill="#F8B3AD"/>
<path d="M55.5422 64.5717L56.4301 61.6804L53.7886 55.8535C51.3468 56.586 50.3701 59.333 50.3701 62.2076L55.5422 64.5717Z" fill="#FFD771"/>
<path d="M49.925 84.2609C49.925 84.2609 50.6187 86.9357 50.3856 87.9402C50.1525 88.9446 49.5698 89.7882 49.2702 90.3708C49.0094 90.8814 48.693 91.231 48.4378 91.0867C48.1825 90.9424 48.2879 90.393 48.4766 89.999C48.6653 89.605 49.1203 88.8891 48.965 88.5007C48.8318 88.1677 48.3767 88.3675 47.8606 89.1777C47.3445 89.9879 47.117 90.7205 47.0892 91.0812C47.0559 91.4419 47.178 93.1844 46.9616 93.5895C46.8395 93.817 46.3234 93.6728 46.2735 92.9846C46.2235 92.2965 45.9072 90.8647 45.8184 90.6594C45.7296 90.4541 45.4633 89.2776 45.5521 88.5617C45.6408 87.8458 47.2502 85.3042 47.5831 84.7659C47.9161 84.2276 47.9439 84.1388 48.0881 83.8835C48.238 83.6227 49.7585 83.595 49.9195 84.2609H49.925Z" fill="#F8B3AD"/>
<path d="M50.7513 45.2347C51.8741 44.7578 52.0588 42.663 51.1638 40.5557C50.2689 38.4484 48.6333 37.1266 47.5105 37.6034C46.3877 38.0803 46.203 40.1751 47.098 42.2824C47.9929 44.3897 49.6286 45.7115 50.7513 45.2347Z" fill="#F8B3AD"/>
<path d="M47.6392 42.0514C48.2941 43.5997 49.687 44.8261 50.3918 44.532C51.0965 44.2379 50.8357 42.5231 50.1809 40.9748C49.5261 39.4265 48.4217 38.411 47.7225 38.7106C47.0233 39.0103 46.9844 40.5031 47.6448 42.0514H47.6392Z" fill="#F7AAA5"/>
<g opacity="0.5">
<path d="M47.6392 42.0514C48.2941 43.5997 49.687 44.8261 50.3918 44.532C51.0965 44.2379 50.8357 42.5231 50.1809 40.9748C49.5261 39.4265 48.4217 38.411 47.7225 38.7106C47.0233 39.0103 46.9844 40.5031 47.6448 42.0514H47.6392Z" stroke="#E4807F" stroke-width="0.160934" stroke-miterlimit="10"/>
</g>
<path d="M76.2996 42.2822C77.1945 40.1749 77.0098 38.0801 75.8871 37.6032C74.7643 37.1264 73.1286 38.4482 72.2337 40.5555C71.3388 42.6628 71.5235 44.7576 72.6462 45.2344C73.769 45.7113 75.4047 44.3895 76.2996 42.2822Z" fill="#F8B3AD"/>
<path d="M75.7588 42.0514C75.104 43.5997 73.7111 44.8261 73.0063 44.532C72.3015 44.2379 72.5624 42.5231 73.2172 40.9748C73.872 39.4265 74.9764 38.411 75.6756 38.7106C76.3748 39.0103 76.4137 40.5031 75.7533 42.0514H75.7588Z" fill="#F7AAA5"/>
<g opacity="0.5">
<path d="M75.7588 42.0514C75.104 43.5997 73.7111 44.8261 73.0063 44.532C72.3015 44.2379 72.5624 42.5231 73.2172 40.9748C73.872 39.4265 74.9764 38.411 75.6756 38.7106C76.3748 39.0103 76.4137 40.5031 75.7533 42.0514H75.7588Z" stroke="#E4807F" stroke-width="0.160934" stroke-miterlimit="10"/>
</g>
<path d="M70.0089 81.0363L66.6182 132.585C66.2575 133.578 63.1387 133.345 63.1442 132.419L62.0898 79.7044C62.1009 77.5346 63.8768 75.7809 66.0466 75.792C68.2164 75.8031 69.97 77.579 69.9589 79.7488C69.9589 79.8542 69.7481 80.9308 70.0144 81.0363H70.0089Z" fill="#3A9AA4"/>
<path d="M60.9964 79.7041L60.0752 132.418C60.0808 133.417 56.9564 133.511 56.6013 132.585L53.488 89.2214L53.1162 79.9927C53.1995 77.8284 54.5591 76.0026 56.7233 75.814C58.8876 75.6253 60.7966 77.2235 60.9853 79.3878C60.9964 79.4932 61.002 79.6042 61.002 79.7041H60.9964Z" fill="#3A9AA4"/>
<path d="M69.1101 76.4521C63.9047 82.0848 57.3841 81.3135 53.9934 76.6852C52.5894 78.4277 52.7836 84.1159 53.4607 88.672C53.5772 89.4656 56.1077 88.8163 59.9091 88.8662C60.0146 88.783 61.302 87.2292 63.1999 88.8995C66.9347 88.7386 69.3598 89.7153 69.493 88.8884C70.2089 84.4655 70.2477 77.7618 69.1101 76.4577V76.4521Z" fill="#3A9AA4"/>
<path d="M69.1103 76.4525C69.1103 76.4525 69.1103 76.4525 69.1048 76.4581C68.572 74.0884 68.3445 72.2016 68.5332 70.4647C68.9827 66.2637 71.2246 64.1771 69.36 55.853C68.3556 55.3868 67.3733 55.0095 66.4022 54.7153C64.8206 54.2381 63.2723 53.9884 61.7018 53.9551C61.7018 53.9551 61.6186 53.9551 61.5742 53.9551C61.5298 53.9551 61.4465 53.9551 61.4465 53.9551C59.8094 53.9884 58.189 54.2603 56.5408 54.7764C55.6363 55.0594 54.7262 55.4146 53.7883 55.8474C52.0569 64.3492 54.1102 66.1361 54.593 70.2316C54.8094 72.0851 54.5874 74.0995 53.9936 76.68C53.1002 77.7844 52.7173 80.4925 52.8283 83.4836C54.8261 84.1218 57.9004 84.8488 61.6963 84.76C65.2978 84.6768 68.2058 83.8832 70.1314 83.1951C70.2036 80.0985 70.0093 78.0063 69.1103 76.4525Z" fill="#FFD771"/>
<path d="M65.0143 54.3539C62.678 53.9155 60.3084 53.8877 57.9165 54.3927C57.861 56.6236 58.1663 58.4827 58.871 59.9089L61.4626 57.6336L64.0542 59.9089C64.6924 58.0831 65.0975 56.3628 65.0087 54.3539H65.0143Z" fill="#F6F7F7"/>
<path d="M59.0762 50.1875V53.9056C59.0762 55.0544 59.5978 56.1365 60.4913 56.8524L61.468 57.6293L62.4447 56.8524C63.3381 56.1365 63.8598 55.0488 63.8598 53.9056V50.1875H59.0762Z" fill="#F7AFA9"/>
<path d="M61.546 51.8747C68.6136 51.8747 74.343 45.7751 74.343 38.2508C74.343 30.7266 68.6136 24.627 61.546 24.627C54.4784 24.627 48.749 30.7266 48.749 38.2508C48.749 45.7751 54.4784 51.8747 61.546 51.8747Z" fill="#F8B3AD"/>
<path d="M61.5962 21.7178C69.0602 21.7178 74.987 27.9942 74.5542 35.4471L74.3932 38.2496H48.7992L48.6383 35.4471C48.0611 25.447 53.0057 21.7178 61.5962 21.7178Z" fill="#F8B3AD"/>
<path d="M56.9014 46.2028C57.4841 47.185 58.322 48.5224 61.4075 48.6501C64.2821 48.6112 65.2977 47.1406 66.291 46.1917C66.2799 46.1806 64.3487 46.508 61.9569 46.4914C61.7627 46.4914 61.5573 46.6412 61.352 46.6356C61.1578 46.6301 60.9747 46.4692 60.786 46.4581C59.493 46.3859 58.2443 46.3748 56.9069 46.2028H56.9014Z" fill="#E86363"/>
<path d="M66.2071 45.9138C66.418 45.8805 66.6344 46.0858 66.5955 46.3133C66.59 46.3577 66.5678 46.4077 66.5456 46.4354C66.5456 46.4354 66.5345 46.4354 66.5289 46.4354C66.4901 46.2356 66.3569 46.0469 66.1904 45.9193C66.1904 45.9193 66.196 45.9138 66.2015 45.9082L66.2071 45.9138Z" fill="#B65050"/>
<path d="M56.6961 46.3913C56.5407 46.2803 56.5573 46.0306 56.7571 45.9307C56.8459 45.8863 56.9569 45.8918 57.0235 45.9307C57.0235 45.9307 57.0235 45.9418 57.029 45.9473C56.8514 46.0139 56.7127 46.2026 56.7183 46.3913C56.7127 46.3913 56.7072 46.3913 56.7016 46.3913H56.6961Z" fill="#B65050"/>
<path d="M56.78 46.125C58.639 47.1516 61.8854 48.3059 66.4027 46.125C66.4027 46.125 66.4082 46.1361 66.4138 46.1416C61.5469 48.9386 57.5458 46.7521 56.7744 46.1416C56.7744 46.1416 56.78 46.1305 56.7855 46.125H56.78Z" fill="#B65050"/>
<path d="M61.907 42.8508C62.0569 42.7342 62.1901 42.601 62.2178 42.3957C62.2622 42.0849 62.2178 41.8297 62.2178 41.5244C62.2067 41.1526 62.0569 39.4656 61.9847 39.005C61.9847 38.9828 61.9514 38.9939 61.9514 39.005C61.9181 39.682 62.0513 42.1293 61.785 42.5289C61.5741 42.8452 61.0358 42.9895 60.9414 43.3835C60.8304 43.8275 61.3354 44.2936 61.6407 44.5378C61.7683 44.6432 61.9903 44.5877 62.0402 44.4213C62.0957 44.2381 61.8182 44.0494 61.7128 43.9274C61.5852 43.7775 61.4742 43.6499 61.4742 43.439C61.4742 43.1504 61.7017 43.0117 61.9126 42.8452L61.907 42.8508Z" fill="#B65050"/>
<path d="M71.8837 35.375C71.856 35.4028 71.745 35.3639 71.5618 35.2751C71.3843 35.1808 71.1456 35.031 70.8293 34.9089C70.2189 34.6259 69.3421 34.3983 68.4209 34.4094C66.5618 34.4094 64.8359 35.2862 64.7693 35.153C64.7305 35.0865 65.1078 34.7701 65.7738 34.4538C66.4397 34.1486 67.3998 33.8378 68.4153 33.8434C69.4309 33.8267 70.4076 34.1541 71.0125 34.5537C71.3288 34.7368 71.5507 34.9477 71.6895 35.0976C71.8338 35.2474 71.9004 35.3473 71.8782 35.375H71.8837Z" fill="#90452A"/>
<path d="M51.291 35.3476C51.2633 35.3199 51.3354 35.22 51.4852 35.0702C51.6295 34.9148 51.8515 34.715 52.1734 34.5319C52.7893 34.1379 53.766 33.816 54.7816 33.8326C55.7971 33.8271 56.7572 34.1434 57.4176 34.4542C58.0835 34.7705 58.4553 35.0979 58.4165 35.159C58.3554 35.2922 56.6351 34.3931 54.776 34.3987C53.8548 34.3876 52.978 34.6096 52.362 34.8815C52.0457 35.0036 51.8015 35.1479 51.6184 35.2422C51.4353 35.331 51.3187 35.3698 51.2965 35.3421L51.291 35.3476Z" fill="#90452A"/>
<path d="M67.8896 42.5342C69.5416 42.5342 70.8807 41.1329 70.8807 39.4043C70.8807 37.6757 69.5416 36.2744 67.8896 36.2744C66.2376 36.2744 64.8984 37.6757 64.8984 39.4043C64.8984 41.1329 66.2376 42.5342 67.8896 42.5342Z" fill="white"/>
<path d="M70.8682 39.4048C70.7905 39.4048 70.7905 38.8943 70.4798 38.2339C70.3244 37.9065 70.0913 37.5513 69.7583 37.2461C69.4254 36.9464 69.0036 36.6967 68.5319 36.5857C67.583 36.3304 66.5841 36.6801 66.0236 37.1629C65.4464 37.6401 65.2245 38.1285 65.1579 38.0896C65.1079 38.0785 65.2245 37.5236 65.8016 36.9187C66.0902 36.6301 66.5008 36.3415 67.0058 36.1806C67.5053 36.0197 68.0935 35.9864 68.6429 36.1307C69.1979 36.2638 69.6862 36.5691 70.0525 36.9353C70.4187 37.3016 70.6518 37.7289 70.785 38.1063C71.0403 38.8776 70.9182 39.4048 70.8738 39.3993L70.8682 39.4048Z" fill="#90452A"/>
<path d="M70.9695 36.5633C70.9695 36.5633 70.9029 36.6688 70.742 36.7354C70.5811 36.802 70.348 36.8353 70.1204 36.8297C69.6543 36.8186 69.227 36.6577 69.2436 36.6022C69.2547 36.5467 69.6931 36.6188 70.126 36.6244C70.3424 36.6299 70.5533 36.6244 70.7031 36.5966C70.853 36.5744 70.9529 36.5356 70.9751 36.5633H70.9695Z" fill="#90452A"/>
<path d="M71.3795 37.1185C71.3795 37.1185 71.3684 37.2295 71.2408 37.3183C71.1132 37.4071 70.9189 37.4459 70.7247 37.4404C70.3362 37.4293 70.0033 37.2517 70.0255 37.2018C70.0421 37.1463 70.3917 37.2295 70.7302 37.2351C70.9023 37.2406 71.0632 37.2295 71.1742 37.1907C71.2852 37.1518 71.3518 37.1019 71.3795 37.1185Z" fill="#90452A"/>
<path d="M71.5232 37.751C71.5232 37.751 71.5121 37.8453 71.4122 37.9119C71.3123 37.9785 71.1569 38.0118 71.0071 38.0063C70.7019 37.9952 70.441 37.8509 70.4632 37.7954C70.4799 37.7399 70.7518 37.7954 71.0126 37.7954C71.279 37.8231 71.4843 37.7232 71.5287 37.7454L71.5232 37.751Z" fill="#90452A"/>
<path d="M71.7793 38.5601C71.7959 38.6212 71.463 38.6933 71.1522 38.5657C70.8414 38.4547 70.6139 38.2216 70.6528 38.1772C70.6861 38.1328 70.9469 38.2771 71.2244 38.3714C71.4963 38.4824 71.7682 38.5046 71.7848 38.5546L71.7793 38.5601Z" fill="#90452A"/>
<path d="M55.1581 42.5342C56.8101 42.5342 58.1493 41.1329 58.1493 39.4043C58.1493 37.6757 56.8101 36.2744 55.1581 36.2744C53.5062 36.2744 52.167 37.6757 52.167 39.4043C52.167 41.1329 53.5062 42.5342 55.1581 42.5342Z" fill="white"/>
<path d="M52.1508 39.4042C52.1008 39.4097 51.9843 38.877 52.2507 38.1056C52.3839 37.7282 52.6225 37.3009 52.9888 36.9347C53.355 36.5739 53.8489 36.2687 54.4039 36.1355C54.9533 35.9913 55.5359 36.0246 56.0354 36.1855C56.5404 36.3464 56.9455 36.635 57.2341 36.9236C57.8112 37.5285 57.9167 38.0834 57.8667 38.0945C57.8001 38.1278 57.5837 37.645 57.0121 37.1622C56.4572 36.6794 55.4638 36.3187 54.5148 36.5795C54.0431 36.6905 53.6214 36.9402 53.2829 37.2399C52.9499 37.5451 52.7113 37.9003 52.5503 38.2277C52.234 38.8881 52.2229 39.4042 52.1508 39.4042Z" fill="#90452A"/>
<path d="M52.0899 36.5576C52.0899 36.5576 52.2064 36.5687 52.3563 36.5965C52.5061 36.6242 52.717 36.6353 52.9334 36.6298C53.3663 36.6187 53.7991 36.5576 53.8158 36.6131C53.8324 36.6686 53.4051 36.824 52.939 36.8351C52.7059 36.8406 52.4784 36.8073 52.3174 36.7352C52.1565 36.6631 52.0788 36.5798 52.0899 36.5576Z" fill="#90452A"/>
<path d="M51.6782 37.1123C51.6782 37.1123 51.767 37.1456 51.878 37.1844C51.989 37.2233 52.1499 37.2399 52.3164 37.2344C52.6605 37.2233 53.0101 37.1512 53.0267 37.2066C53.0489 37.2566 52.7104 37.4286 52.322 37.4397C52.1333 37.4453 51.9335 37.4009 51.8114 37.3121C51.6893 37.2233 51.6616 37.1234 51.6782 37.1123Z" fill="#90452A"/>
<path d="M51.5348 37.7458C51.5792 37.718 51.7679 37.829 52.0398 37.8013C52.3006 37.7957 52.5726 37.7513 52.5948 37.8013C52.617 37.8512 52.3561 37.9955 52.0509 38.0011C51.9011 38.0066 51.7457 37.9733 51.6458 37.9012C51.5459 37.8346 51.5182 37.7513 51.5404 37.7402L51.5348 37.7458Z" fill="#90452A"/>
<path d="M51.274 38.5499C51.2851 38.4944 51.5571 38.4833 51.829 38.3779C52.1009 38.2835 52.3673 38.1448 52.4061 38.1892C52.445 38.2336 52.2119 38.4611 51.9011 38.5721C51.5904 38.6942 51.2574 38.611 51.274 38.5555V38.5499Z" fill="#90452A"/>
<path d="M55.3136 42.2629C56.5487 42.2629 57.55 41.2616 57.55 40.0265C57.55 38.7913 56.5487 37.79 55.3136 37.79C54.0784 37.79 53.0771 38.7913 53.0771 40.0265C53.0771 41.2616 54.0784 42.2629 55.3136 42.2629Z" fill="url(#paint5_linear_2424_15373)"/>
<path d="M56.6196 39.4945C56.8281 39.3384 56.8289 38.9871 56.6213 38.7099C56.4136 38.4326 56.0763 38.3345 55.8678 38.4907C55.6593 38.6468 55.6585 38.9982 55.8661 39.2754C56.0737 39.5526 56.4111 39.6507 56.6196 39.4945Z" fill="white"/>
<path d="M57.0241 40.0981C57.1621 40.0981 57.2739 39.9863 57.2739 39.8484C57.2739 39.7104 57.1621 39.5986 57.0241 39.5986C56.8862 39.5986 56.7744 39.7104 56.7744 39.8484C56.7744 39.9863 56.8862 40.0981 57.0241 40.0981Z" fill="white"/>
<path d="M67.8448 42.2629C69.08 42.2629 70.0812 41.2616 70.0812 40.0265C70.0812 38.7913 69.08 37.79 67.8448 37.79C66.6097 37.79 65.6084 38.7913 65.6084 40.0265C65.6084 41.2616 66.6097 42.2629 67.8448 42.2629Z" fill="url(#paint6_linear_2424_15373)"/>
<path d="M69.1528 39.4984C69.3613 39.3423 69.3621 38.991 69.1545 38.7138C68.9469 38.4365 68.6095 38.3384 68.401 38.4946C68.1925 38.6507 68.1917 39.0021 68.3993 39.2793C68.6069 39.5565 68.9443 39.6546 69.1528 39.4984Z" fill="white"/>
<path d="M69.5544 40.0981C69.6923 40.0981 69.8041 39.9863 69.8041 39.8484C69.8041 39.7104 69.6923 39.5986 69.5544 39.5986C69.4165 39.5986 69.3047 39.7104 69.3047 39.8484C69.3047 39.9863 69.4165 40.0981 69.5544 40.0981Z" fill="white"/>
<path style="mix-blend-mode:soft-light" opacity="0.7" d="M70.6635 40.9863C70.6635 40.9863 69.0431 44.0274 65.8189 42.013C65.8189 42.013 64.4704 44.9375 67.5836 45.1706C70.6968 45.4037 71.5126 42.9064 70.6635 40.9863Z" fill="url(#paint7_radial_2424_15373)"/>
<path style="mix-blend-mode:soft-light" opacity="0.7" d="M52.3501 40.9863C52.3501 40.9863 53.9706 44.0274 57.1948 42.013C57.1948 42.013 58.5433 44.9375 55.4301 45.1706C52.3168 45.4037 51.5011 42.9064 52.3501 40.9863Z" fill="url(#paint8_radial_2424_15373)"/>
<path d="M58.3271 15.0535C58.6379 17.4564 64.3372 16.402 66.5348 17.0513C68.4993 17.6284 68.0276 19.3987 69.8811 19.654C69.9199 19.3543 69.9033 19.038 69.8034 18.6939C69.2207 16.7128 67.7445 16.7017 67.7445 16.7017C67.7445 16.7017 68.3883 12.8892 63.3716 12.2011C62.6002 12.0957 61.9121 12.0846 61.3072 12.1456C61.285 12.1456 58.0108 12.6562 58.3216 15.0535H58.3271Z" fill="url(#paint9_linear_2424_15373)"/>
<path d="M57.0238 14.8807C57.0238 14.8807 55.5476 14.7087 54.2324 17.045C52.9172 19.3813 54.6542 20.4135 54.6542 20.4135L58.3612 21.2404L68.1948 21.9951C68.1948 21.9951 69.6987 21.0905 69.8818 19.6532C68.0283 19.398 68.5 17.6332 66.5355 17.0505C64.338 16.4013 58.6331 17.4557 58.3279 15.0527C58.0227 12.6609 61.2913 12.1504 61.3135 12.1504C57.9838 12.4778 57.0238 14.8863 57.0238 14.8863V14.8807Z" fill="url(#paint10_linear_2424_15373)"/>
<path d="M57.023 14.8818C57.023 14.8818 56.9619 17.0905 60.7355 18.3724C64.5091 19.6544 66.0241 19.5156 66.0241 19.5156C66.0241 19.5156 62.1284 19.4934 58.7655 18.1893C55.397 16.8852 56.357 14.9928 56.357 14.9928L57.0285 14.8818H57.023Z" fill="#91462B"/>
<path d="M59.3317 12.6667C59.3317 12.6667 58.6713 15.1695 62.9499 16.0186C67.2341 16.8676 66.9288 13.8931 66.9288 13.8931L66.6514 13.5935C66.6514 13.5935 66.9399 16.3349 63.1108 15.6024C59.2817 14.8698 59.9754 12.417 59.9754 12.417L59.3261 12.6667H59.3317Z" fill="#91462B"/>
<path d="M76.6681 29.7587C74.1764 20.0805 66.7068 18.7153 61.6013 19.0428C56.4903 18.7153 49.1595 20.0805 46.6678 29.7587C44.953 36.4125 49.3038 41.5013 49.3038 41.5013C49.3038 41.5013 48.993 41.468 49.7755 42.1395C50.5579 42.8055 50.4747 43.0108 50.7078 43.0163C50.9464 43.0219 50.619 42.1395 50.4192 40.8632C50.2194 39.5868 50.0918 35.2471 52.6834 31.468C55.275 27.6943 58.6268 29.054 59.5314 29.4924C60.4359 29.9308 61.5958 29.9308 61.5958 29.9308C61.5958 29.9308 62.8888 29.9308 63.7934 29.4924C64.6979 29.054 68.0498 27.6943 70.6414 31.468C73.2329 35.2416 73.1053 39.5868 72.9055 40.8632C72.7058 42.1395 72.3839 43.0219 72.617 43.0163C72.8556 43.0108 72.223 42.8055 73.0054 42.1395C73.7879 41.4736 74.021 41.5013 74.021 41.5013C74.021 41.5013 78.3717 36.407 76.657 29.7587H76.6681Z" fill="url(#paint11_linear_2424_15373)"/>
<path d="M72.551 42.7449C72.551 42.7449 71.5854 48.4164 70.6919 51.2744C69.7984 54.1268 68.4277 55.3588 68.4277 55.3588C68.4277 55.3588 70.814 54.1434 72.3678 48.7161C73.9272 43.2887 74.2324 40.625 74.2324 40.625L72.6731 41.8958L72.5565 42.7504L72.551 42.7449Z" fill="url(#paint12_linear_2424_15373)"/>
<path d="M50.7801 42.7449C50.7801 42.7449 51.7457 48.4164 52.6392 51.2744C53.5326 54.1268 54.9033 55.3588 54.9033 55.3588C54.9033 55.3588 52.5171 54.1434 50.9632 48.7161C49.4039 43.2887 49.0986 40.625 49.0986 40.625L50.1142 41.8958L50.7801 42.7504V42.7449Z" fill="url(#paint13_linear_2424_15373)"/>
<mask id="mask1_2424_15373" style="mask-type:luminance" maskUnits="userSpaceOnUse" x="46" y="19" width="32" height="25">
<path d="M76.669 29.7587C74.1773 20.0805 66.7078 18.7153 61.6023 19.0428C56.4913 18.7153 49.1605 20.0805 46.6688 29.7587C44.954 36.4125 49.3047 41.5013 49.3047 41.5013C49.3047 41.5013 48.994 41.468 49.7764 42.1395C50.5589 42.8055 50.4757 43.0108 50.7088 43.0163C50.9474 43.0219 50.62 42.1395 50.4202 40.8632C50.2204 39.5868 50.0928 35.2471 52.6844 31.468C55.2759 27.6943 58.6278 29.054 59.5324 29.4924C60.4369 29.9308 61.5968 29.9308 61.5968 29.9308C61.5968 29.9308 62.8898 29.9308 63.7943 29.4924C64.6989 29.054 68.0507 27.6943 70.6423 31.468C73.2339 35.2416 73.1063 39.5868 72.9065 40.8632C72.7067 42.1395 72.3849 43.0219 72.6179 43.0163C72.8566 43.0108 72.2239 42.8055 73.0064 42.1395C73.7889 41.4736 74.0219 41.5013 74.0219 41.5013C74.0219 41.5013 78.3727 36.407 76.6579 29.7587H76.669Z" fill="white"/>
</mask>
<g mask="url(#mask1_2424_15373)">
<path d="M63.7946 29.498C63.7946 29.498 66.8079 27.5834 68.0399 24.3148C69.2719 21.0462 68.1287 19.287 68.1287 19.287L67.657 19.1982C67.657 19.1982 68.9223 21.6844 67.2519 24.6866C65.5815 27.6944 63.1064 29.7755 63.1064 29.7755C63.1064 29.7755 63.6836 29.6312 63.8001 29.498H63.7946Z" fill="#91462B"/>
<path d="M67.2236 29.0758C67.2236 29.0758 69.732 29.32 72.2348 28.0215C74.7376 26.7284 74.388 23.8594 74.388 23.8594L74.6599 24.2589C74.6599 24.2589 75.1538 27.0059 72.4568 28.3433C69.7542 29.6807 67.9007 29.3533 67.9007 29.3533L67.2292 29.0647L67.2236 29.0758Z" fill="#91462B"/>
<path d="M72.4346 35.3132C72.4346 35.3132 72.9174 36.3898 74.6932 36.3898C76.469 36.3898 76.8741 35.635 76.8741 35.635L76.7742 36.1289C76.7742 36.1289 75.7587 36.917 74.5545 36.8504C73.3502 36.7838 72.6066 35.9791 72.6066 35.9791L72.4346 35.3076V35.3132Z" fill="#91462B"/>
<path d="M59.5317 29.498C59.5317 29.498 56.5184 27.5834 55.2864 24.3148C54.0544 21.0462 55.1976 19.287 55.1976 19.287L55.6693 19.1982C55.6693 19.1982 54.404 21.6844 56.0744 24.6866C57.7448 27.6944 60.7692 29.7755 60.7692 29.7755C60.7692 29.7755 59.6483 29.6312 59.5317 29.498Z" fill="#91462B"/>
<path d="M56.1085 29.0758C56.1085 29.0758 53.6001 29.32 51.0973 28.0215C48.5945 26.7284 48.9441 23.8594 48.9441 23.8594L48.6722 24.2589C48.6722 24.2589 48.1783 27.0059 50.8753 28.3433C53.5779 29.6807 55.4314 29.3533 55.4314 29.3533L56.1029 29.0647L56.1085 29.0758Z" fill="#91462B"/>
<path d="M50.8976 35.3132C50.8976 35.3132 50.4148 36.3898 48.6389 36.3898C46.8631 36.3898 46.458 35.635 46.458 35.635L46.5579 36.1289C46.5579 36.1289 47.5734 36.917 48.7777 36.8504C49.9819 36.7838 50.7255 35.9791 50.7255 35.9791L50.8976 35.3076V35.3132Z" fill="#91462B"/>
</g>
<path d="M31.7412 45.5571C31.7412 45.5571 23.1245 43.7023 19.7343 48.069C16.3441 52.4418 16.7495 54.401 16.7495 54.401L18.7271 52.3927C18.7271 52.3927 14.8271 56.3111 17.9839 61.47C21.1407 66.6351 42.1942 62.2684 43.2444 61.4025C44.2947 60.5365 44.3806 56.8331 44.3806 56.8331L44.6877 58.129C44.6877 58.129 46.1064 54.5361 43.9507 50.3844C41.795 46.2326 35.8745 43.4751 31.7412 45.5448V45.5571Z" fill="url(#paint14_linear_2424_15373)"/>
<path d="M43.5511 97.6385C42.9983 96.1276 42.9492 94.451 42.6298 92.7006C42.3105 90.938 42.0464 89.9983 41.8069 88.2049C41.3278 84.6121 41.0883 83.3838 40.5724 79.7295L36.6172 80.227C37.305 83.8075 37.4832 85.2262 38.2816 88.8314C38.6808 90.637 39.1045 91.589 39.5897 93.3885C40.0933 95.1941 40.8058 96.5514 41.6717 98.4062L43.5572 97.6323L43.5511 97.6385Z" fill="#F6A49E"/>
<path d="M37.2073 85.0785L36.1694 81.1049L34.29 74.5088C36.9616 75.1352 39.0068 75.7862 41.7521 81.6822C40.5791 82.9105 39.1358 84.0652 37.2073 85.0724V85.0785Z" fill="white"/>
<path d="M16.9827 97.6385C17.5355 96.1276 17.5846 94.451 17.9039 92.7006C18.2233 90.938 18.4874 89.9983 18.7269 88.2049C19.206 84.6121 19.4455 83.3838 19.9614 79.7295L23.9166 80.227C23.2287 83.8075 23.0506 85.2262 22.2522 88.8314C21.853 90.637 21.4292 91.589 20.9441 93.3885C20.4404 95.1941 19.728 96.5514 18.862 98.4062L16.9766 97.6323L16.9827 97.6385Z" fill="#F6A49E"/>
<path d="M23.4139 85.0785L24.4519 81.1049L26.3312 74.5088C23.6596 75.1352 21.6144 75.7862 18.8691 81.6822C20.0422 82.9105 21.4855 84.0652 23.4139 85.0724V85.0785Z" fill="white"/>
<path d="M22.9229 97.5639C24.925 97.9631 27.4247 98.2886 30.3051 98.2886C33.1855 98.2886 35.6913 97.9631 37.6935 97.5639C37.4048 90.0466 37.1161 82.8731 36.8336 75.3619C35.6422 74.6925 32.5529 74.0231 30.3788 74.0108C28.2046 74.0046 24.8145 74.7109 23.7888 75.3619L22.929 97.5639H22.9229Z" fill="#009ECF"/>
<path d="M28.3018 70.21V73.3238C28.3018 74.2819 28.007 75.9278 30.3715 75.9278C32.736 75.9278 32.3061 74.2819 32.3061 73.3238V70.21H28.3018Z" fill="#ED9A99"/>
<path d="M19.8903 67.4337C20.8769 67.0147 21.0382 65.1717 20.2507 63.3172C19.4631 61.4627 18.0249 60.299 17.0383 60.7179C16.0517 61.1369 15.8904 62.9799 16.678 64.8344C17.4655 66.6889 18.9038 67.8526 19.8903 67.4337Z" fill="#F6A49E"/>
<path d="M17.1498 64.6266C17.7271 65.99 18.9493 67.071 19.5696 66.8069C20.1899 66.5428 19.9627 65.0381 19.3854 63.6808C18.8081 62.3174 17.8377 61.4268 17.2235 61.6909C16.6094 61.955 16.5787 63.2693 17.156 64.6327L17.1498 64.6266Z" fill="#F7AAA5"/>
<path opacity="0.5" d="M17.1498 64.6266C17.7271 65.99 18.9493 67.071 19.5696 66.8069C20.1899 66.5428 19.9627 65.0381 19.3854 63.6808C18.8081 62.3174 17.8377 61.4268 17.2235 61.6909C16.6094 61.955 16.5787 63.2693 17.156 64.6327L17.1498 64.6266Z" stroke="#E4807F" stroke-width="0.135116" stroke-miterlimit="10"/>
<path d="M43.9108 64.8274C44.6984 62.9729 44.5371 61.1298 43.5505 60.7109C42.5639 60.2919 41.1257 61.4556 40.3381 63.3101C39.5506 65.1646 39.7119 67.0076 40.6984 67.4266C41.685 67.8456 43.1232 66.6818 43.9108 64.8274Z" fill="#F6A49E"/>
<path d="M43.4352 64.6266C42.8579 65.99 41.6357 67.071 41.0154 66.8069C40.3951 66.5428 40.6224 65.0381 41.1997 63.6808C41.777 62.3174 42.7474 61.4268 43.3615 61.6909C43.9757 61.955 44.0064 63.2693 43.4291 64.6327L43.4352 64.6266Z" fill="#F7AAA5"/>
<path opacity="0.5" d="M43.4352 64.6266C42.8579 65.99 41.6357 67.071 41.0154 66.8069C40.3951 66.5428 40.6224 65.0381 41.1997 63.6808C41.777 62.3174 42.7474 61.4268 43.3615 61.6909C43.9757 61.955 44.0064 63.2693 43.4291 64.6327L43.4352 64.6266Z" stroke="#E4807F" stroke-width="0.135116" stroke-miterlimit="10"/>
<path d="M30.3728 73.5076C36.5902 73.5076 41.6304 68.1429 41.6304 61.5253C41.6304 54.9076 36.5902 49.543 30.3728 49.543C24.1554 49.543 19.1152 54.9076 19.1152 61.5253C19.1152 68.1429 24.1554 73.5076 30.3728 73.5076Z" fill="#F6A49E"/>
<path d="M30.3728 46.9816C39.8678 46.4104 42.1524 52.5029 41.7717 59.056L41.6304 61.5188H19.1152L18.974 59.056C18.4642 50.2612 22.8125 46.9816 30.3728 46.9816Z" fill="#F6A49E"/>
<path d="M30.2862 65.5721C30.4152 65.4677 30.5318 65.351 30.5626 65.1729C30.6055 64.9027 30.5626 64.6755 30.5626 64.4114C30.5564 64.0797 30.4213 62.5996 30.3599 62.1942C30.3599 62.1758 30.3292 62.182 30.3292 62.1942C30.2985 62.79 30.4152 64.9396 30.1818 65.2896C29.9975 65.566 29.5246 65.695 29.4386 66.0389C29.3404 66.432 29.7887 66.8435 30.0528 67.0584C30.1634 67.1505 30.3599 67.1014 30.409 66.9601C30.4581 66.8005 30.2125 66.6346 30.1204 66.5241C30.0037 66.3951 29.9115 66.2784 29.9115 66.0942C29.9115 65.8424 30.1142 65.7195 30.2985 65.5721H30.2862Z" fill="#B65050"/>
<path d="M39.498 58.982C39.4673 59.0189 39.3506 58.9943 39.1847 58.9206C39.0189 58.8469 38.7978 58.7241 38.5153 58.6197C37.9626 58.3863 37.1887 58.1898 36.3719 58.202C34.7259 58.1959 33.1537 58.9329 33.0615 58.7671C33.0063 58.6872 33.3441 58.374 33.9459 58.0669C34.5478 57.7721 35.4261 57.4773 36.3657 57.4773C37.2993 57.4589 38.2021 57.7783 38.7487 58.1652C39.0312 58.3433 39.2277 58.5398 39.3506 58.6934C39.4734 58.8408 39.5287 58.939 39.498 58.9759V58.982Z" fill="#90452A"/>
<path d="M35.8637 65.4126C37.3596 65.4126 38.5722 64.145 38.5722 62.5813C38.5722 61.0176 37.3596 59.75 35.8637 59.75C34.3679 59.75 33.1553 61.0176 33.1553 62.5813C33.1553 64.145 34.3679 65.4126 35.8637 65.4126Z" fill="white"/>
<path d="M38.5583 62.5815C38.4907 62.5815 38.4846 62.1208 38.2082 61.5251C37.9441 60.9294 37.3115 60.2354 36.4456 60.0327C35.5857 59.7993 34.6829 60.1187 34.1793 60.5547C33.6573 60.9846 33.4546 61.4268 33.3993 61.3961C33.3563 61.3839 33.4607 60.8802 33.9828 60.3398C34.2469 60.0757 34.6154 59.8177 35.0698 59.6765C35.5243 59.5291 36.0525 59.5045 36.55 59.6335C37.0536 59.7502 37.4958 60.0327 37.8274 60.3582C38.1591 60.6898 38.3679 61.0768 38.4907 61.4207C38.7241 62.1147 38.6136 62.5999 38.5706 62.5938L38.5583 62.5815Z" fill="#90452A"/>
<path d="M35.8441 65.1238C36.9635 65.1238 37.8709 64.2164 37.8709 63.097C37.8709 61.9777 36.9635 61.0703 35.8441 61.0703C34.7248 61.0703 33.8174 61.9777 33.8174 63.097C33.8174 64.2164 34.7248 65.1238 35.8441 65.1238Z" fill="url(#paint15_linear_2424_15373)"/>
<path d="M37.0293 62.6165C37.2194 62.4742 37.2218 62.1563 37.0347 61.9066C36.8477 61.6568 36.542 61.5697 36.3519 61.712C36.1619 61.8543 36.1595 62.1722 36.3465 62.422C36.5336 62.6718 36.8393 62.7589 37.0293 62.6165Z" fill="white"/>
<path d="M37.3913 63.1654C37.5168 63.1654 37.6185 63.0637 37.6185 62.9382C37.6185 62.8127 37.5168 62.7109 37.3913 62.7109C37.2658 62.7109 37.1641 62.8127 37.1641 62.9382C37.1641 63.0637 37.2658 63.1654 37.3913 63.1654Z" fill="white"/>
<path style="mix-blend-mode:soft-light" opacity="0.7" d="M38.3987 63.9697C38.3987 63.9697 36.9309 66.7212 34.0136 64.8971C34.0136 64.8971 32.7914 67.5442 35.6104 67.753C38.4294 67.9618 39.1664 65.7017 38.3987 63.9697Z" fill="url(#paint16_radial_2424_15373)"/>
<path d="M21.2017 58.9526C21.171 58.9157 21.2263 58.8175 21.3491 58.6701C21.4719 58.5227 21.6746 58.3261 21.9633 58.1542C22.516 57.7795 23.425 57.4724 24.3585 57.4847C25.292 57.4847 26.1764 57.7857 26.7721 58.0866C27.374 58.3937 27.6995 58.7131 27.6504 58.7929C27.5644 58.9587 26.0044 58.1972 24.3585 58.2033C23.5417 58.191 22.7678 58.3753 22.2089 58.6025C21.9203 58.7008 21.693 58.8236 21.5272 58.8973C21.3552 58.9649 21.2385 58.9956 21.2078 58.9526H21.2017Z" fill="#90452A"/>
<path d="M24.7338 65.4126C26.2297 65.4126 27.4423 64.145 27.4423 62.5813C27.4423 61.0176 26.2297 59.75 24.7338 59.75C23.238 59.75 22.0254 61.0176 22.0254 62.5813C22.0254 64.145 23.238 65.4126 24.7338 65.4126Z" fill="white"/>
<path d="M22.0131 62.5822C21.9701 62.5884 21.8657 62.1032 22.1052 61.4092C22.228 61.0652 22.443 60.6845 22.7746 60.3528C23.1063 60.0273 23.5546 59.7509 24.0521 59.6281C24.5495 59.4991 25.0777 59.5298 25.5322 59.6772C25.9867 59.8246 26.3552 60.0826 26.6193 60.3467C27.1413 60.8933 27.2396 61.3969 27.1966 61.403C27.1352 61.4337 26.9386 60.9977 26.4227 60.5616C25.9253 60.1256 25.0225 59.8001 24.1626 60.0334C23.2967 60.2361 22.6579 60.9301 22.3877 61.5197C22.1052 62.1155 22.0929 62.5884 22.0253 62.5822H22.0131Z" fill="#90452A"/>
<path d="M24.851 65.1238C25.9703 65.1238 26.8777 64.2164 26.8777 63.097C26.8777 61.9777 25.9703 61.0703 24.851 61.0703C23.7316 61.0703 22.8242 61.9777 22.8242 63.097C22.8242 64.2164 23.7316 65.1238 24.851 65.1238Z" fill="url(#paint17_linear_2424_15373)"/>
<path d="M26.0313 62.6214C26.2213 62.4791 26.2237 62.1612 26.0367 61.9115C25.8496 61.6617 25.5439 61.5746 25.3539 61.7169C25.1638 61.8592 25.1614 62.1771 25.3485 62.4269C25.5355 62.6766 25.8412 62.7637 26.0313 62.6214Z" fill="white"/>
<path d="M26.3991 63.1654C26.5246 63.1654 26.6264 63.0637 26.6264 62.9382C26.6264 62.8127 26.5246 62.7109 26.3991 62.7109C26.2736 62.7109 26.1719 62.8127 26.1719 62.9382C26.1719 63.0637 26.2736 63.1654 26.3991 63.1654Z" fill="white"/>
<path style="mix-blend-mode:soft-light" opacity="0.7" d="M22.1667 63.9697C22.1667 63.9697 23.6345 66.7212 26.5518 64.8971C26.5518 64.8971 27.774 67.5442 24.955 67.753C22.1359 67.9618 21.399 65.7017 22.1667 63.9697Z" fill="url(#paint18_radial_2424_15373)"/>
<path d="M34.9358 68.5635C35.1262 68.5758 35.2859 68.8091 35.2122 69.0118C35.1999 69.0548 35.1754 69.0917 35.1508 69.1162C35.1508 69.1162 35.1446 69.1162 35.1385 69.1162C35.1385 68.9197 35.0525 68.7232 34.9297 68.5758C34.9297 68.5758 34.9358 68.5758 34.942 68.5696L34.9358 68.5635Z" fill="#B65050"/>
<path d="M34.9358 68.5635C35.1262 68.5758 35.2859 68.8091 35.2122 69.0118C35.1999 69.0548 35.1754 69.0917 35.1508 69.1162C35.1508 69.1162 35.1446 69.1162 35.1385 69.1162C35.1385 68.9197 35.0525 68.7232 34.9297 68.5758C34.9297 68.5758 34.9358 68.5758 34.942 68.5696L34.9358 68.5635Z" stroke="#B65050" stroke-width="0.128974" stroke-miterlimit="10"/>
<path d="M26.0916 69.1038C25.938 69.0301 25.9073 68.7967 26.067 68.6616C26.1407 68.6002 26.239 68.5879 26.3004 68.6124C26.3004 68.6124 26.3004 68.6247 26.3065 68.6247C26.1591 68.7169 26.0732 68.9195 26.1039 69.0976C26.1039 69.0976 26.0916 69.0976 26.0854 69.0976L26.0916 69.1038Z" fill="#B65050"/>
<path d="M26.0916 69.1038C25.938 69.0301 25.9073 68.7967 26.067 68.6616C26.1407 68.6002 26.239 68.5879 26.3004 68.6124C26.3004 68.6124 26.3004 68.6247 26.3065 68.6247C26.1591 68.7169 26.0732 68.9195 26.1039 69.0976C26.1039 69.0976 26.0916 69.0976 26.0854 69.0976L26.0916 69.1038Z" stroke="#B65050" stroke-width="0.128974" stroke-miterlimit="10"/>
<path d="M26.1226 68.834C27.9958 69.442 30.692 70.0316 34.9666 68.8524C34.9666 68.8524 34.9666 68.8647 34.9666 68.8708C30.3726 70.5106 27.0193 69.2516 26.1104 68.8524C26.1104 68.8524 26.1104 68.8401 26.1104 68.834H26.1226Z" fill="#B65050"/>
<path d="M26.1226 68.8331C26.1226 68.8331 26.1165 68.8331 26.1104 68.8454C26.1104 68.8454 26.1104 68.8454 26.1165 68.8515C26.2209 68.9314 27.1729 69.435 28.8127 69.6806C30.4279 69.9386 32.7372 69.8526 35.0096 69.0051C35.0096 69.0051 35.0218 69.0051 35.028 68.9989C35.071 68.9805 35.114 68.9682 35.1631 68.9498C35.1508 68.9068 35.1324 68.8638 35.1201 68.8147C35.1201 68.8147 35.1201 68.8024 35.1201 68.7962C35.1078 68.7533 35.0894 68.7041 35.0771 68.6611C35.028 68.6734 34.985 68.6918 34.9359 68.7041C32.5775 69.3981 30.3051 69.4964 28.7021 69.3121C27.8976 69.2262 27.2588 69.0849 26.8228 68.9805C26.3867 68.8761 26.1472 68.8024 26.1349 68.827C26.1288 68.8454 26.356 68.9498 26.7921 69.091C27.2281 69.2323 27.8669 69.4043 28.6776 69.521C30.2989 69.7666 32.6266 69.6929 35.0218 68.9866C34.9604 68.9559 34.899 68.9252 34.8376 68.8884C34.8376 68.8884 34.8376 68.9007 34.8376 68.9068C34.8683 68.8454 34.899 68.7901 34.9297 68.7287C34.9297 68.7287 34.9174 68.7287 34.9113 68.7348C32.688 69.564 30.4402 69.6745 28.8434 69.4718C27.2343 69.2814 26.27 68.8454 26.1288 68.8392C26.1288 68.8392 26.1288 68.8454 26.1288 68.8515C26.1288 68.8392 26.1288 68.8331 26.1288 68.8331H26.1226Z" fill="#B35652"/>
<path d="M32.3433 74.1534C32.2758 74.1473 32.2881 74.5219 32.0792 74.9948C31.9687 75.222 31.766 75.4431 31.4589 75.566C31.1519 75.6949 30.7649 75.7379 30.3535 75.7379C29.942 75.7379 29.555 75.6827 29.248 75.5537C28.9409 75.4247 28.7259 75.2098 28.6031 74.9887C28.3697 74.528 28.3636 74.1534 28.296 74.1657C28.2653 74.1657 28.1548 74.5219 28.3574 75.1053C28.4618 75.394 28.7259 75.7072 29.0944 75.8792C29.4629 76.0573 29.899 76.1249 30.3473 76.1249C30.7895 76.1249 31.2256 76.0696 31.6002 75.8915C31.981 75.7257 32.2389 75.394 32.3249 75.0992C32.4969 74.5035 32.3679 74.1534 32.3372 74.1595L32.3433 74.1534Z" fill="#FBFBFB"/>
<path d="M17.6897 55.4334C17.6897 55.4334 18.267 41.6761 38.0431 45.8709C38.0431 45.8709 34.1616 52.8355 17.6836 55.4272L17.6897 55.4334Z" fill="url(#paint19_linear_2424_15373)"/>
<path d="M28.7509 45.907C28.7509 45.907 27.6761 44.562 25.9258 44.8506C25.9258 44.8506 28.8615 43.2231 31.2567 44.8506C31.2567 44.8506 33.2159 42.9528 37.0974 44.1259C37.0974 44.1259 34.9171 44.4883 34.0941 46.1403C33.2712 47.7924 28.7571 45.907 28.7571 45.907H28.7509Z" fill="url(#paint20_linear_2424_15373)"/>
<path d="M21.9027 50.8818C17.3272 54.5054 16.1602 59.8179 18.9854 63.0484C18.9854 63.0484 20.6191 57.0726 25.3051 57.4718C29.9912 57.871 35.9424 56.3172 36.6364 53.4552C36.6364 53.4552 36.5443 57.3735 38.9395 58.6817C41.3348 59.9837 41.8568 61.7279 41.4146 62.8273C41.4146 62.8273 43.9757 59.4064 43.3431 54.0878C42.7105 48.7691 40.1801 45.4833 33.148 46.5458L21.8965 50.888L21.9027 50.8818Z" fill="url(#paint21_linear_2424_15373)"/>
<path d="M34.2653 47.1172C34.2653 47.1172 33.516 55.1566 28.2588 56.9131C28.2588 56.9131 38.331 56.2498 34.2653 47.1172Z" fill="#91462B"/>
<path d="M35.5557 47.0186C35.5557 47.0186 43.1467 50.3657 42.1948 60.6775C42.1948 60.6775 39.8425 50.2675 35.5557 47.0186Z" fill="#91462B"/>
<path d="M35.7033 47.7861C35.7033 47.7861 35.4699 53.547 39.9164 57.6926C39.9164 57.6926 37.3984 53.0434 35.7033 47.7861Z" fill="#91462B"/>
<path d="M29.6902 47.6943C29.6902 47.6943 26.3369 52.6998 20.0908 56.2312C20.0908 56.2312 27.037 54.88 29.6902 47.6943Z" fill="#91462B"/>
<path d="M37.0352 49.1064C37.0352 49.1064 37.9073 55.0945 41.3404 59.9833C41.3404 59.9833 39.848 54.9778 37.0352 49.1064Z" fill="#91462B"/>
<path d="M31.7289 46.5996C31.7289 46.5996 31.7658 52.6123 25.6426 55.8182C25.6426 55.8182 32.9143 54.4547 31.7289 46.5996Z" fill="#91462B"/>
<path d="M28.9478 46.5445C28.9478 46.5445 20.3987 46.0654 18.3535 56.4079C18.3535 56.4079 21.6209 48.172 28.9478 46.5506V46.5445Z" fill="#91462B"/>
<path d="M28.9596 47.0684C28.9596 47.0684 20.9817 48.6406 18.9795 58.1356C18.9795 58.1356 23.2602 51.4228 28.9596 47.0684Z" fill="#91462B"/>
<path d="M31.7294 46.6015C31.7171 46.2269 30.3844 51.9386 24.2305 56.2439C24.2305 56.2439 31.9321 54.0329 31.7294 46.6015Z" fill="#91462B"/>
<path d="M36.6975 47.0376C36.6975 47.0376 40.3641 46.7305 41.7951 49.3345C43.2261 51.9447 44.0859 55.8016 43.9324 55.8016C43.785 55.8016 41.8627 47.6947 36.6914 47.0376H36.6975Z" fill="#91462B"/>
<path d="M40.0884 59.1288C40.2788 55.106 44.0682 51.8571 47.4338 52.5634C52.0707 48.3072 59.7846 50.8376 61.8298 55.2596C64.1574 60.2957 62.8124 62.3531 65.1954 68.4272C66.8536 72.6526 67.8485 77.0746 64.0776 80.9377C58.1816 86.9688 40.2481 83.9594 37.6072 81.1035C34.1679 76.27 37.6256 70.8593 39.1119 66.64C40.0209 64.0666 40.0086 60.8116 40.0884 59.1349V59.1288Z" fill="url(#paint22_linear_2424_15373)"/>
<path style="mix-blend-mode:multiply" opacity="0.3" d="M64.2991 80.6983C65.0054 77.5784 63.5682 72.6098 62.3583 69.6926C60.7984 65.9277 58.2987 62.9736 54.104 61.8866C51.5736 61.2294 48.5028 61.5549 46.4331 63.2868C44.7871 64.6626 44.3081 65.7005 43.0982 67.4447C39.0693 73.2486 39.3764 79.5437 39.751 82.3627C46.3103 84.9422 59.4165 85.8573 64.2991 80.6983Z" fill="url(#paint23_linear_2424_15373)"/>
<g style="mix-blend-mode:multiply" opacity="0.2">
<path d="M59.5567 79.4149C59.5383 79.5193 59.698 79.5992 59.741 79.4886C60.5517 77.4619 60.9447 74.5999 59.4339 72.7636C59.397 72.7206 59.3234 72.7697 59.3418 72.8188C60.0296 74.9623 59.9191 77.2224 59.5567 79.4088V79.4149Z" fill="url(#paint24_linear_2424_15373)"/>
<path d="M44.0802 73.7707C44.0925 73.7215 44.0249 73.697 44.0003 73.7399C42.7782 75.9448 42.6615 78.8436 43.5152 81.4231C43.7424 81.4415 43.9696 81.46 44.203 81.4784C43.6933 78.7945 43.3923 76.5589 44.0802 73.7768V73.7707Z" fill="url(#paint25_linear_2424_15373)"/>
<path d="M46.5429 74.8024C46.4692 75.2753 46.3279 75.7237 46.3095 76.2089C46.2849 76.7432 46.506 76.909 46.678 77.4003C46.721 77.517 46.8868 77.4863 46.8868 77.3696C46.893 76.866 46.8622 76.7002 46.8131 76.2027C46.764 75.7237 46.8131 75.2876 46.7148 74.8024C46.6964 74.7165 46.5613 74.7226 46.5429 74.8024Z" fill="url(#paint26_linear_2424_15373)"/>
</g>
<path d="M45.4993 95.4206H57.8501L56.978 77.7635C56.0076 77.2169 53.4957 76.6703 51.7269 76.6641C49.9581 76.658 47.2005 77.2353 46.3653 77.7635L45.4932 95.4206H45.4993Z" fill="white"/>
<path d="M62.2778 95.2055C61.8295 93.9772 61.7927 92.6138 61.5286 91.1889C61.2706 89.7579 61.2276 89.6658 61.0311 88.2102C60.638 85.2868 60.4476 84.2857 60.0239 81.3193L56.8057 81.7247C57.3646 84.642 57.5058 85.7904 58.1568 88.72C58.4823 90.1878 58.6543 90.2861 59.0535 91.754C59.4588 93.2218 60.0423 94.3273 60.7486 95.8381L62.284 95.2117L62.2778 95.2055Z" fill="#F8B6A9"/>
<path d="M57.285 85.6673L56.4375 82.4368L54.9082 77.0752C57.0823 77.5849 58.7406 78.1131 60.9761 82.9097C60.018 83.9108 58.8511 84.8505 57.2789 85.6673H57.285Z" fill="white"/>
<path d="M41.0032 95.2055C41.4516 93.9772 41.4884 92.6138 41.7525 91.1889C42.0104 89.7579 42.0534 89.6658 42.25 88.2102C42.643 85.2868 42.8334 84.2857 43.2572 81.3193L46.4754 81.7247C45.9165 84.642 45.7753 85.7904 45.1242 88.72C44.7987 90.1878 44.6268 90.2861 44.2276 91.754C43.8222 93.2218 43.2388 94.3273 42.5325 95.8381L40.9971 95.2117L41.0032 95.2055Z" fill="#F8B6A9"/>
<path d="M46.0642 85.6673L46.9117 82.4368L48.441 77.0752C46.2668 77.5849 44.6086 78.1131 42.373 82.9097C43.3311 83.9108 44.498 84.8505 46.0703 85.6673H46.0642Z" fill="white"/>
<path d="M50.0437 73.5732V76.1036C50.0437 76.8836 49.8042 78.2225 51.7265 78.2225C53.6488 78.2225 53.3049 76.8836 53.3049 76.1036V73.5732H50.0437Z" fill="#F6AEA3"/>
<path d="M42.7673 71.9785C43.6102 71.6205 43.7486 70.0471 43.0764 68.4642C42.4042 66.8813 41.1759 65.8884 40.3329 66.2463C39.49 66.6043 39.3516 68.1777 40.0238 69.7606C40.696 71.3435 41.9243 72.3364 42.7673 71.9785Z" fill="#F8B6A9"/>
<g style="mix-blend-mode:multiply" opacity="0.2">
<path d="M40.4326 69.5814C40.924 70.7421 41.9742 71.6695 42.4962 71.4423C43.0183 71.215 42.834 69.9314 42.3366 68.7707C41.8391 67.6099 41.0161 66.8483 40.4879 67.0694C39.9597 67.2905 39.9352 68.4145 40.4265 69.5814H40.4326Z" fill="#F8B6A9"/>
</g>
<path d="M40.4326 69.5814C40.924 70.7421 41.9742 71.6695 42.4962 71.4423C43.0183 71.215 42.834 69.9314 42.3366 68.7707C41.8391 67.6099 41.0161 66.8483 40.4879 67.0694C39.9597 67.2905 39.9352 68.4145 40.4265 69.5814H40.4326Z" stroke="#E9A195" stroke-width="0.116691" stroke-miterlimit="10"/>
<path d="M63.4026 69.7545C64.0748 68.1717 63.9364 66.5983 63.0934 66.2403C62.2505 65.8823 61.0222 66.8753 60.35 68.4582C59.6778 70.041 59.8162 71.6144 60.6591 71.9724C61.5021 72.3304 62.7304 71.3374 63.4026 69.7545Z" fill="#F8B6A9"/>
<g style="mix-blend-mode:multiply" opacity="0.2">
<path d="M62.9959 69.5814C62.5045 70.7421 61.4543 71.6695 60.9323 71.4423C60.4102 71.215 60.5945 69.9314 61.0919 68.7707C61.5894 67.6099 62.4124 66.8483 62.9406 67.0694C63.4688 67.2905 63.4933 68.4145 63.002 69.5814H62.9959Z" fill="#F8B6A9"/>
</g>
<path d="M62.9959 69.5814C62.5045 70.7421 61.4543 71.6695 60.9323 71.4423C60.4102 71.215 60.5945 69.9314 61.0919 68.7707C61.5894 67.6099 62.4124 66.8483 62.9406 67.0694C63.4688 67.2905 63.4933 68.4145 63.002 69.5814H62.9959Z" stroke="#E9A195" stroke-width="0.116691" stroke-miterlimit="10"/>
<path d="M42.1083 66.5913C42.225 73.0523 44.6877 76.8233 51.7199 76.8233C58.7521 76.8233 61.1841 73.0523 61.3315 66.5913C61.4605 60.941 57.0263 56.3594 51.7199 56.3594C46.4135 56.3594 42.0039 60.941 42.1083 66.5913Z" fill="#F8B6A9"/>
<path d="M51.7212 54.1777C57.3285 54.1777 61.7627 55.9772 61.4557 64.4895L61.3328 66.59H42.1095L41.9867 64.4895C41.5506 56.9783 45.2663 54.1777 51.7212 54.1777Z" fill="#F8B6A9"/>
<path d="M51.6474 70.0481C51.7579 69.9621 51.8562 69.8577 51.8807 69.7042C51.9176 69.4708 51.8807 69.2804 51.8807 69.0532C51.8746 68.7707 51.7579 67.5055 51.7088 67.1616C51.7088 67.1493 51.6842 67.1493 51.6842 67.1616C51.6596 67.6713 51.7579 69.5077 51.5614 69.8086C51.4017 70.0481 50.9963 70.1525 50.9288 70.4535C50.8489 70.7913 51.2297 71.1413 51.457 71.3194C51.5552 71.3993 51.7211 71.3563 51.7579 71.2335C51.8009 71.0983 51.5921 70.9571 51.5122 70.865C51.414 70.7544 51.3341 70.6561 51.3341 70.4965C51.3341 70.2815 51.5061 70.1771 51.6596 70.0481H51.6474Z" fill="#B65050"/>
<path d="M46.8935 69.9877C48.196 69.9877 49.2519 68.8823 49.2519 67.5187C49.2519 66.1552 48.196 65.0498 46.8935 65.0498C45.591 65.0498 44.5352 66.1552 44.5352 67.5187C44.5352 68.8823 45.591 69.9877 46.8935 69.9877Z" fill="white"/>
<path d="M44.523 67.5187C44.4861 67.5248 44.394 67.101 44.6028 66.493C44.7932 65.8973 45.4074 65.148 46.2979 64.9392C47.1823 64.6997 48.0974 65.0866 48.5334 65.5656C48.9879 66.0385 49.0739 66.4807 49.0371 66.4869C48.9818 66.5114 48.8098 66.1307 48.3615 65.756C47.9254 65.3752 47.1393 65.0927 46.39 65.2954C45.6346 65.4735 45.0757 66.0754 44.8423 66.5913C44.5905 67.1133 44.5844 67.5187 44.523 67.5187Z" fill="#90452A"/>
<path d="M44.4803 65.2591C44.4803 65.2591 44.7936 65.3451 45.1436 65.3143C45.4876 65.3082 45.8254 65.2591 45.8376 65.3021C45.8499 65.3451 45.5121 65.4679 45.1436 65.474C44.9594 65.474 44.7813 65.4495 44.6523 65.3942C44.5233 65.3389 44.4619 65.2714 44.4742 65.2529L44.4803 65.2591Z" fill="#90452A"/>
<path d="M44.154 65.6934C44.154 65.6934 44.2277 65.7241 44.3076 65.7548C44.3936 65.7855 44.5225 65.7978 44.6515 65.7916C44.9217 65.7855 45.1981 65.7302 45.2104 65.7671C45.2288 65.81 44.9586 65.939 44.6577 65.9513C44.5041 65.9513 44.3506 65.9206 44.2523 65.853C44.154 65.7793 44.1356 65.7056 44.1479 65.6934H44.154Z" fill="#90452A"/>
<path d="M44.0376 66.1917C44.0684 66.1733 44.2219 66.2592 44.4369 66.2347C44.6395 66.2347 44.8606 66.1917 44.8729 66.2347C44.8913 66.2777 44.6825 66.3882 44.443 66.3944C44.3263 66.3944 44.2035 66.3698 44.1236 66.3145C44.0438 66.2592 44.0254 66.1978 44.0376 66.1855V66.1917Z" fill="#90452A"/>
<path d="M43.8344 66.825C43.8405 66.782 44.0616 66.7759 44.2705 66.6899C44.4854 66.6162 44.6942 66.5056 44.7249 66.5425C44.7556 66.5793 44.5714 66.7574 44.3257 66.8434C44.0801 66.9417 43.8221 66.8741 43.8344 66.8311V66.825Z" fill="#90452A"/>
<path d="M56.4248 69.9877C57.7273 69.9877 58.7832 68.8823 58.7832 67.5187C58.7832 66.1552 57.7273 65.0498 56.4248 65.0498C55.1223 65.0498 54.0664 66.1552 54.0664 67.5187C54.0664 68.8823 55.1223 69.9877 56.4248 69.9877Z" fill="white"/>
<path d="M58.777 67.5187C58.7156 67.5187 58.7156 67.1195 58.4699 66.5975C58.2427 66.0816 57.6838 65.4736 56.9345 65.2955C56.1852 65.0928 55.3991 65.3692 54.9569 65.7499C54.5024 66.1246 54.3304 66.5115 54.2752 66.4808C54.2383 66.4746 54.3243 66.0324 54.7849 65.5595C55.221 65.0866 56.1422 64.6997 57.0205 64.9392C57.911 65.1481 58.5252 65.8973 58.7094 66.4931C58.9121 67.1011 58.8138 67.5187 58.777 67.5126V67.5187Z" fill="#90452A"/>
<path d="M58.8453 65.2645C58.8822 65.3075 58.5444 65.5102 58.1759 65.4733C57.8074 65.4672 57.4696 65.3382 57.488 65.2952C57.5003 65.2522 57.8381 65.3075 58.182 65.3137C58.526 65.3444 58.8269 65.24 58.8515 65.2645H58.8453Z" fill="#90452A"/>
<path d="M59.1701 65.7007C59.1701 65.7007 59.1579 65.7867 59.0596 65.8604C58.9613 65.928 58.8016 65.9587 58.6542 65.9587C58.3472 65.9464 58.0831 65.8113 58.1015 65.7683C58.1138 65.7253 58.3902 65.7867 58.6604 65.7928C58.7955 65.7928 58.9183 65.7928 59.0105 65.756C59.0964 65.7253 59.1517 65.6823 59.1701 65.7007Z" fill="#90452A"/>
<path d="M59.287 66.1971C59.287 66.1971 59.2808 66.2708 59.201 66.3261C59.1211 66.3752 58.9983 66.4059 58.8816 66.3998C58.6421 66.3937 58.4394 66.277 58.4517 66.234C58.464 66.191 58.6789 66.234 58.8878 66.234C59.0966 66.2585 59.2563 66.1787 59.2931 66.1971H59.287Z" fill="#90452A"/>
<path d="M59.4835 66.8366C59.4958 66.8857 59.2317 66.941 58.9922 66.8366C58.7465 66.7506 58.5684 66.5663 58.5991 66.5295C58.6237 66.4926 58.8325 66.6093 59.0475 66.683C59.2624 66.769 59.4774 66.7874 59.4897 66.8304L59.4835 66.8366Z" fill="#90452A"/>
<path d="M43.8477 64.2142C43.8477 64.2142 43.8906 64.1221 44.0073 64.0054C44.124 63.8887 44.3021 63.729 44.5539 63.5878C45.0391 63.2807 45.8068 63.035 46.5991 63.0473C48.2144 63.0473 49.5471 63.9808 49.4672 64.0607C49.4242 64.1528 48.0731 63.422 46.593 63.4281C45.8621 63.4158 45.162 63.6001 44.6768 63.8212C44.425 63.9256 44.2346 64.0423 44.0933 64.116C43.9521 64.1897 43.8599 64.2265 43.8477 64.2081V64.2142Z" fill="#90452A"/>
<path d="M47.0166 69.7108C47.99 69.7108 48.7792 68.9217 48.7792 67.9482C48.7792 66.9747 47.99 66.1855 47.0166 66.1855C46.0431 66.1855 45.2539 66.9747 45.2539 67.9482C45.2539 68.9217 46.0431 69.7108 47.0166 69.7108Z" fill="url(#paint27_linear_2424_15373)"/>
<path d="M48.0461 67.5278C48.2118 67.4038 48.2141 67.1271 48.0515 66.9099C47.8888 66.6927 47.6227 66.6172 47.4571 66.7412C47.2915 66.8653 47.2891 67.1419 47.4518 67.3591C47.6144 67.5763 47.8805 67.6518 48.0461 67.5278Z" fill="white"/>
<path d="M48.3674 68.0034C48.476 68.0034 48.564 67.9154 48.564 67.8069C48.564 67.6983 48.476 67.6104 48.3674 67.6104C48.2589 67.6104 48.1709 67.6983 48.1709 67.8069C48.1709 67.9154 48.2589 68.0034 48.3674 68.0034Z" fill="white"/>
<path d="M59.5753 64.2314C59.5753 64.2314 59.4709 64.2191 59.3297 64.1393C59.1946 64.0594 59.0042 63.9427 58.7524 63.8383C58.2733 63.6111 57.5732 63.4207 56.8423 63.433C55.3622 63.433 54.0049 64.1454 53.9619 64.0533C53.8882 63.9734 55.2209 63.0583 56.8362 63.0522C57.6284 63.0399 58.3962 63.2917 58.8752 63.5988C59.127 63.7401 59.299 63.8997 59.4157 64.0164C59.5324 64.1331 59.5876 64.2068 59.5692 64.2252L59.5753 64.2314Z" fill="#90452A"/>
<path d="M56.3886 69.7108C57.3621 69.7108 58.1513 68.9217 58.1513 67.9482C58.1513 66.9747 57.3621 66.1855 56.3886 66.1855C55.4151 66.1855 54.626 66.9747 54.626 67.9482C54.626 68.9217 55.4151 69.7108 56.3886 69.7108Z" fill="url(#paint28_linear_2424_15373)"/>
<path d="M57.4202 67.5288C57.5858 67.4047 57.5882 67.1281 57.4255 66.9109C57.2628 66.6937 56.9967 66.6182 56.8311 66.7422C56.6655 66.8663 56.6631 67.1429 56.8258 67.3601C56.9884 67.5773 57.2546 67.6528 57.4202 67.5288Z" fill="white"/>
<path d="M57.7327 68.0034C57.8412 68.0034 57.9292 67.9154 57.9292 67.8069C57.9292 67.6983 57.8412 67.6104 57.7327 67.6104C57.6241 67.6104 57.5361 67.6983 57.5361 67.8069C57.5361 67.9154 57.6241 68.0034 57.7327 68.0034Z" fill="white"/>
<path style="mix-blend-mode:soft-light" opacity="0.7" d="M58.6112 68.7041C58.6112 68.7041 57.3337 71.0993 54.7911 69.5148C54.7911 69.5148 53.7286 71.8179 56.1852 72.0022C58.6419 72.1864 59.2867 70.2149 58.6173 68.7041H58.6112Z" fill="url(#paint29_radial_2424_15373)"/>
<path style="mix-blend-mode:soft-light" opacity="0.7" d="M44.6819 68.7041C44.6819 68.7041 45.9594 71.0993 48.502 69.5148C48.502 69.5148 49.5645 71.8179 47.1079 72.0022C44.6512 72.1864 44.0064 70.2149 44.6758 68.7041H44.6819Z" fill="url(#paint30_radial_2424_15373)"/>
<path d="M55.6207 72.6094C55.7865 72.6155 55.9155 72.8182 55.8541 72.9902C55.8418 73.027 55.8234 73.0577 55.7988 73.0761C55.7988 73.0761 55.7926 73.0761 55.7865 73.0761C55.7865 72.9103 55.7128 72.7383 55.6084 72.6155C55.6084 72.6155 55.6084 72.6155 55.6145 72.6094H55.6207Z" fill="#B65050"/>
<path d="M55.6207 72.6094C55.7865 72.6155 55.9155 72.8182 55.8541 72.9902C55.8418 73.027 55.8234 73.0577 55.7988 73.0761C55.7988 73.0761 55.7926 73.0761 55.7865 73.0761C55.7865 72.9103 55.7128 72.7383 55.6084 72.6155C55.6084 72.6155 55.6084 72.6155 55.6145 72.6094H55.6207Z" stroke="#B65050" stroke-width="0.110549" stroke-miterlimit="10"/>
<path d="M48.0669 73.0635C47.9379 73.002 47.9134 72.8055 48.0485 72.6888C48.1099 72.6397 48.1897 72.6274 48.2512 72.6458C48.2512 72.6458 48.2512 72.652 48.2573 72.6581C48.1345 72.738 48.0546 72.9099 48.0853 73.0635H48.073H48.0669Z" fill="#B65050"/>
<path d="M48.0669 73.0635C47.9379 73.002 47.9134 72.8055 48.0485 72.6888C48.1099 72.6397 48.1897 72.6274 48.2512 72.6458C48.2512 72.6458 48.2512 72.652 48.2573 72.6581C48.1345 72.738 48.0546 72.9099 48.0853 73.0635H48.073H48.0669Z" stroke="#B65050" stroke-width="0.110549" stroke-miterlimit="10"/>
<path d="M48.0911 72.8369C49.6941 73.359 51.991 73.8626 55.6453 72.8553C55.6453 72.8553 55.6453 72.8615 55.6453 72.8676C51.7208 74.2679 48.8588 73.1931 48.085 72.8492C48.085 72.8492 48.085 72.8431 48.085 72.8369H48.0911Z" fill="#B65050"/>
<path d="M48.0904 72.8369C48.0904 72.8369 48.0843 72.8369 48.0781 72.8491C48.0781 72.8491 48.0781 72.8491 48.0843 72.8491C48.1764 72.9167 48.9871 73.3466 50.3874 73.5554C51.7692 73.7765 53.7407 73.7028 55.6815 72.9781C55.6815 72.9781 55.6937 72.9781 55.6999 72.9781C55.7367 72.9658 55.7736 72.9535 55.8166 72.9351C55.8043 72.8983 55.792 72.8614 55.7797 72.8184C55.7797 72.8184 55.7797 72.8123 55.7797 72.8061C55.7674 72.7693 55.7552 72.7263 55.7429 72.6895C55.706 72.7017 55.663 72.714 55.62 72.7263C53.6056 73.322 51.6648 73.408 50.2953 73.2483C49.6074 73.1746 49.0608 73.0518 48.6861 72.9658C48.3115 72.8737 48.1088 72.8123 48.1027 72.8307C48.1027 72.843 48.2931 72.9351 48.6616 73.0579C49.0301 73.1746 49.5767 73.3282 50.2707 73.4264C51.6525 73.6353 53.6424 73.5738 55.6876 72.972C55.6323 72.9474 55.5832 72.9167 55.5279 72.8921C55.5279 72.8921 55.5279 72.8983 55.5279 72.9044C55.5525 72.8553 55.5832 72.8 55.6078 72.7509H55.5955C53.6977 73.4572 51.7754 73.5554 50.4181 73.3773C49.0424 73.2115 48.2194 72.843 48.0965 72.8369C48.0965 72.8369 48.0965 72.8369 48.0965 72.843C48.0965 72.8307 48.0965 72.8246 48.0965 72.8246L48.0904 72.8369Z" fill="#B35652"/>
<path d="M53.33 76.7862C53.244 76.7801 53.2194 77.1117 53.072 77.5109C52.9922 77.7075 52.8632 77.8671 52.6237 77.9593C52.3903 78.0575 52.0648 78.0882 51.7209 78.0882C51.3769 78.0882 51.0576 78.0452 50.818 77.947C50.5785 77.8487 50.4311 77.689 50.3451 77.4986C50.1732 77.1117 50.1363 76.7801 50.0442 76.7924C49.9828 76.7924 49.8661 77.0872 49.9705 77.6276C50.0258 77.8917 50.2469 78.2356 50.5908 78.4076C50.9347 78.5857 51.3278 78.641 51.7147 78.641C52.1016 78.641 52.4947 78.598 52.8448 78.4199C53.201 78.2541 53.416 77.8856 53.4528 77.6153C53.5265 77.0687 53.3914 76.7862 53.3361 76.7862H53.33Z" fill="#EEEEEE"/>
<path d="M45.597 92.3545H57.8188C57.5854 91.9492 57.5301 91.5131 57.3152 91.0648C55.9395 88.1414 55.5095 85.2978 55.4543 82.9824H47.9922C47.9369 85.218 47.5316 88.0308 46.1681 90.9358C45.9286 91.4394 45.8488 91.9123 45.5908 92.3545H45.597Z" fill="#615169"/>
<path d="M54.3799 82.5954L54.6931 77.0127C54.6931 77.0127 55.252 77.1294 55.817 77.3014C55.8662 77.3136 55.4055 82.0918 55.4608 82.5954H54.3799Z" fill="#615169"/>
<path d="M49.0795 82.4302L48.7663 77.001C48.7663 77.001 48.2074 77.0992 47.6423 77.2712C47.5932 77.2835 48.0538 81.9266 47.9986 82.4302H49.0795Z" fill="#615169"/>
<path d="M48.5274 83.0742C48.8326 83.0742 49.0801 82.8268 49.0801 82.5215C49.0801 82.2162 48.8326 81.9688 48.5274 81.9688C48.2221 81.9688 47.9746 82.2162 47.9746 82.5215C47.9746 82.8268 48.2221 83.0742 48.5274 83.0742Z" fill="#F8CA63"/>
<path d="M54.9326 83.0742C55.2379 83.0742 55.4854 82.8268 55.4854 82.5215C55.4854 82.2162 55.2379 81.9688 54.9326 81.9688C54.6274 81.9688 54.3799 82.2162 54.3799 82.5215C54.3799 82.8268 54.6274 83.0742 54.9326 83.0742Z" fill="#F8CA63"/>
<path d="M48.5273 90.4885V84.7461" stroke="#EAE4DD" stroke-width="0.178107" stroke-linecap="round" stroke-linejoin="round"/>
<path d="M48.5273 84.2241V83.6836H49.0678" stroke="#EAE4DD" stroke-width="0.178107" stroke-linecap="round" stroke-linejoin="round"/>
<path d="M50.1299 83.6836H53.8394" stroke="#EAE4DD" stroke-width="0.178107" stroke-linecap="round" stroke-linejoin="round"/>
<path d="M54.374 83.6836H54.9083V84.2241" stroke="#EAE4DD" stroke-width="0.178107" stroke-linecap="round" stroke-linejoin="round"/>
<path d="M54.9082 85.2676V91.01" stroke="#EAE4DD" stroke-width="0.178107" stroke-linecap="round" stroke-linejoin="round"/>
<path d="M60.1041 56.9839C59.4653 56.339 59.3056 56.6461 59.2688 57.2111C58.7775 56.5294 58.0773 55.8968 57.3342 55.3809C55.461 54.0851 42.9689 54.1158 42.5574 57.6902C42.5452 57.8192 42.5574 57.9604 42.5881 58.1201C42.4407 58.2122 42.3056 58.3166 42.1889 58.421C40.7149 59.7415 40.6658 64.6487 42.41 67.5045C44.6333 65.9077 45.2659 63.3958 45.3949 61.498C46.0643 61.9402 46.8504 62.3517 47.7594 62.6895C47.9129 62.7448 48.0603 62.7939 48.2139 62.843C50.2713 63.795 53.4527 64.3293 58.0528 62.4561C57.5 62.4438 56.9964 62.3763 56.5419 62.2718C57.7825 61.7191 58.7468 61.0558 59.2811 60.5031C59.4039 62.6342 59.883 65.5699 61.5842 67.0869C62.8371 63.4879 61.142 58.0096 60.1102 56.9716L60.1041 56.9839Z" fill="url(#paint31_linear_2424_15373)"/>
<path d="M47.5683 61.7332C45.9224 60.3882 45.0625 58.2141 44.4177 56.2549C44.4054 56.2119 44.3378 56.2365 44.3501 56.2795C44.9151 58.3922 45.6951 60.4926 47.3042 62.0403C47.7526 62.4702 48.2623 62.8141 48.8089 63.0844C49.5275 63.287 50.3443 63.416 51.2594 63.4406C49.9329 63.1274 48.68 62.6422 47.5683 61.7332Z" fill="#91462B"/>
<path d="M42.6308 57.1451C42.6369 57.1021 42.5694 57.0837 42.5571 57.1329C42.1579 59.0245 42.3299 62.6419 43.6012 64.9757C43.6933 64.8099 43.7731 64.6379 43.853 64.466C42.6615 62.2427 42.2807 59.2517 42.6308 57.1451Z" fill="#91462B"/>
<path d="M53.6061 61.2653C51.5978 60.2212 50.0256 58.0287 49.5895 55.8422C49.5772 55.787 49.4912 55.787 49.4974 55.8422C49.8966 59.3798 52.7156 61.9961 56.0444 62.6287C56.3269 62.5366 56.6094 62.4322 56.898 62.3217C55.7618 62.0944 54.6625 61.818 53.6 61.2653H53.6061Z" fill="#91462B"/>
<path d="M54.9633 58.6801C54.9572 58.631 54.8896 58.6371 54.8896 58.6801C54.9633 59.89 56.0873 61.1367 57.3463 61.149C57.4691 61.0692 57.5858 60.9893 57.6964 60.9095C56.4189 60.7314 55.166 60.0681 54.9572 58.6801H54.9633Z" fill="#91462B"/>
<path d="M61.099 58.8642C60.8411 59.073 59.8523 58.121 58.237 57.034C57.4263 56.4997 56.4375 55.9592 55.3259 55.5784C54.2081 55.2038 52.9614 55.0011 51.6655 55.0195C50.3635 55.0195 49.0799 55.2161 47.9252 55.56C46.7645 55.9039 45.7327 56.4014 44.8851 56.9111C43.1778 57.9429 42.2258 58.9686 41.9679 58.8028C41.7038 58.6554 42.2442 57.1875 43.9332 55.6583C44.7684 54.9028 45.8985 54.1474 47.2435 53.6192C48.5824 53.0911 50.1239 52.784 51.6593 52.784C53.2009 52.7655 54.7547 53.0788 56.069 53.6561C57.3833 54.2334 58.452 55.0318 59.232 55.7995C60.7858 57.3656 61.3263 58.6861 61.1052 58.858L61.099 58.8642Z" fill="#EE627B"/>
<path d="M45.1554 70.2389C43.62 69.3545 43.0672 67.3769 43.9271 65.8292C44.7992 64.2508 46.7891 63.6796 48.3675 64.5517L48.4166 64.5824C49.952 65.4668 50.5047 67.4444 49.6449 68.9921C48.7728 70.5705 46.7829 71.1417 45.2045 70.2696L45.1554 70.2389ZM48.2385 64.8834L48.1955 64.8588C46.7891 64.0788 45.008 64.5947 44.2341 66.0011C43.4726 67.383 43.9639 69.1518 45.3335 69.9379L45.3765 69.9625C46.7829 70.7425 48.564 70.2266 49.3378 68.8201C50.0994 67.4383 49.6081 65.6695 48.2385 64.8834Z" fill="black" stroke="black" stroke-width="0.171965" stroke-miterlimit="10"/>
<path d="M49.8405 67.4943C49.7852 67.4636 49.7422 67.4083 49.7422 67.3408C49.7422 67.2425 49.8159 67.1627 49.9142 67.1627L53.3289 67.1504C53.4272 67.1504 53.507 67.2241 53.507 67.3224C53.507 67.4206 53.4333 67.5005 53.335 67.5005L49.9203 67.5127C49.9203 67.5127 49.865 67.5127 49.8405 67.4943Z" fill="black" stroke="black" stroke-width="0.171965" stroke-miterlimit="10"/>
<path d="M58.0962 70.2644C56.5178 71.1365 54.5279 70.5592 53.6558 68.9869C52.8021 67.4393 53.3487 65.4555 54.8841 64.5773L54.9332 64.5466C56.5116 63.6744 58.5015 64.2518 59.3736 65.824C60.2273 67.3717 59.6807 69.3554 58.1453 70.2337L58.0962 70.2644ZM53.9629 68.815C54.7428 70.2214 56.5178 70.7373 57.9242 69.9573L57.9672 69.9328C59.3368 69.1466 59.8281 67.3778 59.0666 65.996C58.2927 64.5895 56.5116 64.0736 55.1052 64.8536L55.0622 64.8782C53.6926 65.6643 53.2013 67.4331 53.9629 68.815Z" fill="black" stroke="black" stroke-width="0.171965" stroke-miterlimit="10"/>
<mask id="mask2_2424_15373" style="mask-type:luminance" maskUnits="userSpaceOnUse" x="59" y="65" width="5" height="7">
<path d="M60.4111 71.8173C60.884 70.6258 61.1665 69.2378 61.2771 67.6717C61.3692 67.5488 61.3815 67.4567 61.3876 67.3523C61.3876 67.2479 61.3753 67.1373 61.3139 67.0329C61.2955 67.0022 61.3139 66.9654 61.3139 66.9347C61.9035 66.3082 62.5668 66.0196 63.0889 66.2407C63.0889 66.2407 59.6127 64.8219 59.1644 65.8783C58.716 66.9347 60.4111 71.8234 60.4111 71.8234V71.8173Z" fill="white"/>
</mask>
<g mask="url(#mask2_2424_15373)">
<path d="M62.1112 67.6819C62.148 67.6574 62.1787 67.6205 62.191 67.5714C62.2156 67.4793 62.1542 67.381 62.062 67.3564L59.6852 66.7607C59.5931 66.7361 59.4948 66.7914 59.4703 66.8897C59.4457 66.9818 59.5071 67.0801 59.5993 67.1046L61.9761 67.7004C62.0191 67.7126 62.0682 67.7004 62.105 67.6819H62.1112Z" fill="black" stroke="black" stroke-width="0.171965" stroke-miterlimit="10"/>
</g>
<mask id="mask3_2424_15373" style="mask-type:luminance" maskUnits="userSpaceOnUse" x="40" y="65" width="4" height="7">
<path d="M42.982 71.8476C42.5152 70.6377 42.2511 69.219 42.1529 67.6099C42.0792 67.5117 42.073 67.4011 42.0669 67.3028C42.0669 67.18 42.0669 67.0633 42.1222 66.9466C41.5264 66.314 40.857 66.0131 40.335 66.2342C40.335 66.2342 43.4733 64.6804 43.8787 66.5843C44.284 68.4882 42.982 71.8354 42.982 71.8354V71.8476Z" fill="white"/>
</mask>
<g mask="url(#mask3_2424_15373)">
<path d="M41.1888 67.6839C41.1519 67.6593 41.1212 67.6225 41.109 67.5733C41.0844 67.4812 41.1458 67.383 41.2379 67.3584L43.6147 66.7626C43.7069 66.7381 43.8051 66.7934 43.8297 66.8916C43.8543 66.9837 43.7928 67.082 43.7007 67.1066L41.3239 67.7023C41.2809 67.7146 41.2318 67.7023 41.1949 67.6839H41.1888Z" fill="black" stroke="black" stroke-width="0.171965" stroke-miterlimit="10"/>
</g>
<path opacity="0.3" d="M53.962 68.8136C54.742 70.2201 56.5169 70.736 57.9234 69.956L57.9663 69.9314C59.3359 69.1453 59.8273 67.3765 59.0657 65.9946C58.2918 64.5882 56.5108 64.0723 55.1043 64.8523L55.0614 64.8769C53.6918 65.663 53.2004 67.4318 53.962 68.8136Z" fill="#AADFF1"/>
<path opacity="0.3" d="M48.2437 64.8769L48.2007 64.8523C46.7943 64.0723 45.0132 64.5882 44.2393 65.9946C43.4778 67.3765 43.9691 69.1453 45.3387 69.9314L45.3817 69.956C46.7881 70.736 48.5692 70.2201 49.343 68.8136C50.1046 67.4318 49.6133 65.663 48.2437 64.8769Z" fill="#AADFF1"/>
</g>
<defs>
<linearGradient id="paint0_linear_2424_15373" x1="8.8621" y1="25.2742" x2="34.5671" y2="23.1932" gradientUnits="userSpaceOnUse">
<stop stop-color="#613527"/>
<stop offset="0.09" stop-color="#583023"/>
<stop offset="0.3" stop-color="#4B2A1D"/>
<stop offset="0.49" stop-color="#47281C"/>
<stop offset="0.84" stop-color="#522D20"/>
<stop offset="1" stop-color="#593123"/>
</linearGradient>
<linearGradient id="paint1_linear_2424_15373" x1="18.6671" y1="29.4594" x2="18.6671" y2="37.6337" gradientUnits="userSpaceOnUse">
<stop offset="0.3" stop-color="#6BBF6A"/>
<stop offset="0.42" stop-color="#52A158"/>
<stop offset="0.58" stop-color="#398245"/>
<stop offset="0.73" stop-color="#266B38"/>
<stop offset="0.87" stop-color="#1B5E30"/>
<stop offset="1" stop-color="#185A2E"/>
</linearGradient>
<linearGradient id="paint2_linear_2424_15373" x1="31.2202" y1="30.9965" x2="31.1481" y2="36.1686" gradientUnits="userSpaceOnUse">
<stop offset="0.3" stop-color="#333333"/>
<stop offset="0.34" stop-color="#303030"/>
<stop offset="0.68" stop-color="#252524"/>
<stop offset="1" stop-color="#212120"/>
</linearGradient>
<linearGradient id="paint3_linear_2424_15373" x1="18.4946" y1="30.8245" x2="18.428" y2="35.9966" gradientUnits="userSpaceOnUse">
<stop offset="0.3" stop-color="#333333"/>
<stop offset="0.34" stop-color="#303030"/>
<stop offset="0.68" stop-color="#252524"/>
<stop offset="1" stop-color="#212120"/>
</linearGradient>
<linearGradient id="paint4_linear_2424_15373" x1="18.872" y1="26.351" x2="4.37687" y2="26.6229" gradientUnits="userSpaceOnUse">
<stop stop-color="#47281C"/>
<stop offset="0.52" stop-color="#522D20"/>
<stop offset="1" stop-color="#613527"/>
</linearGradient>
<linearGradient id="paint5_linear_2424_15373" x1="55.3136" y1="36.6413" x2="55.3136" y2="44.8212" gradientUnits="userSpaceOnUse">
<stop offset="0.3" stop-color="#3A6E3C"/>
<stop offset="0.48" stop-color="#2B522C"/>
<stop offset="0.66" stop-color="#1F3B20"/>
<stop offset="0.84" stop-color="#182E19"/>
<stop offset="1" stop-color="#162A17"/>
</linearGradient>
<linearGradient id="paint6_linear_2424_15373" x1="67.8448" y1="36.6413" x2="67.8448" y2="44.8212" gradientUnits="userSpaceOnUse">
<stop offset="0.3" stop-color="#3A6E3C"/>
<stop offset="0.48" stop-color="#2B522C"/>
<stop offset="0.66" stop-color="#1F3B20"/>
<stop offset="0.84" stop-color="#182E19"/>
<stop offset="1" stop-color="#162A17"/>
</linearGradient>
<radialGradient id="paint7_radial_2424_15373" cx="0" cy="0" r="1" gradientUnits="userSpaceOnUse" gradientTransform="translate(68.372 43.6384) rotate(-7.69) scale(2.48615 1.06904)">
<stop stop-color="#E71A46"/>
<stop offset="0.14" stop-color="#E71C47" stop-opacity="0.98"/>
<stop offset="0.27" stop-color="#E8234C" stop-opacity="0.93"/>
<stop offset="0.4" stop-color="#E93055" stop-opacity="0.85"/>
<stop offset="0.53" stop-color="#EB4261" stop-opacity="0.74"/>
<stop offset="0.66" stop-color="#EE5970" stop-opacity="0.59"/>
<stop offset="0.78" stop-color="#F17583" stop-opacity="0.4"/>
<stop offset="0.9" stop-color="#F49599" stop-opacity="0.19"/>
<stop offset="1" stop-color="#F8B3AD" stop-opacity="0"/>
</radialGradient>
<radialGradient id="paint8_radial_2424_15373" cx="0" cy="0" r="1" gradientUnits="userSpaceOnUse" gradientTransform="translate(54.654 43.5585) rotate(-172.31) scale(2.48615 1.06904)">
<stop stop-color="#E71A46"/>
<stop offset="0.14" stop-color="#E71C47" stop-opacity="0.98"/>
<stop offset="0.27" stop-color="#E8234C" stop-opacity="0.93"/>
<stop offset="0.4" stop-color="#E93055" stop-opacity="0.85"/>
<stop offset="0.53" stop-color="#EB4261" stop-opacity="0.74"/>
<stop offset="0.66" stop-color="#EE5970" stop-opacity="0.59"/>
<stop offset="0.78" stop-color="#F17583" stop-opacity="0.4"/>
<stop offset="0.9" stop-color="#F49599" stop-opacity="0.19"/>
<stop offset="1" stop-color="#F8B3AD" stop-opacity="0"/>
</radialGradient>
<linearGradient id="paint9_linear_2424_15373" x1="58.3049" y1="15.8859" x2="69.9033" y2="15.8859" gradientUnits="userSpaceOnUse">
<stop stop-color="#904C2E"/>
<stop offset="1" stop-color="#B05D3B"/>
</linearGradient>
<linearGradient id="paint10_linear_2424_15373" x1="62.7619" y1="16.146" x2="59.1215" y2="27.2227" gradientUnits="userSpaceOnUse">
<stop stop-color="#904C2E"/>
<stop offset="1" stop-color="#B05D3B"/>
</linearGradient>
<linearGradient id="paint11_linear_2424_15373" x1="61.6013" y1="38.5157" x2="61.8122" y2="19.3313" gradientUnits="userSpaceOnUse">
<stop stop-color="#904C2E"/>
<stop offset="1" stop-color="#B05D3B"/>
</linearGradient>
<linearGradient id="paint12_linear_2424_15373" x1="68.4222" y1="47.9836" x2="74.2269" y2="47.9836" gradientUnits="userSpaceOnUse">
<stop stop-color="#904C2E"/>
<stop offset="1" stop-color="#B05D3B"/>
</linearGradient>
<linearGradient id="paint13_linear_2424_15373" x1="49.0986" y1="47.9836" x2="54.9033" y2="47.9836" gradientUnits="userSpaceOnUse">
<stop stop-color="#904C2E"/>
<stop offset="1" stop-color="#B05D3B"/>
</linearGradient>
<linearGradient id="paint14_linear_2424_15373" x1="16.7372" y1="54.401" x2="45.1483" y2="54.401" gradientUnits="userSpaceOnUse">
<stop stop-color="#904C2E"/>
<stop offset="1" stop-color="#B05D3B"/>
</linearGradient>
<linearGradient id="paint15_linear_2424_15373" x1="35.8441" y1="60.0385" x2="35.8441" y2="67.4392" gradientUnits="userSpaceOnUse">
<stop offset="0.3" stop-color="#583216"/>
<stop offset="0.36" stop-color="#512E14"/>
<stop offset="0.59" stop-color="#3A2111"/>
<stop offset="0.8" stop-color="#2D1A0F"/>
<stop offset="1" stop-color="#29180F"/>
</linearGradient>
<radialGradient id="paint16_radial_2424_15373" cx="0" cy="0" r="1" gradientUnits="userSpaceOnUse" gradientTransform="translate(36.3318 66.3879) rotate(-7.69) scale(2.25398 0.969209)">
<stop stop-color="#E71A46"/>
<stop offset="0.14" stop-color="#E71C47" stop-opacity="0.98"/>
<stop offset="0.27" stop-color="#E8234C" stop-opacity="0.93"/>
<stop offset="0.4" stop-color="#E93055" stop-opacity="0.85"/>
<stop offset="0.53" stop-color="#EB4261" stop-opacity="0.74"/>
<stop offset="0.66" stop-color="#EE5970" stop-opacity="0.59"/>
<stop offset="0.78" stop-color="#F17583" stop-opacity="0.4"/>
<stop offset="0.9" stop-color="#F49599" stop-opacity="0.19"/>
<stop offset="1" stop-color="#F8B3AD" stop-opacity="0"/>
</radialGradient>
<linearGradient id="paint17_linear_2424_15373" x1="24.851" y1="60.0385" x2="24.851" y2="67.4392" gradientUnits="userSpaceOnUse">
<stop offset="0.3" stop-color="#583216"/>
<stop offset="0.36" stop-color="#512E14"/>
<stop offset="0.59" stop-color="#3A2111"/>
<stop offset="0.8" stop-color="#2D1A0F"/>
<stop offset="1" stop-color="#29180F"/>
</linearGradient>
<radialGradient id="paint18_radial_2424_15373" cx="0" cy="0" r="1" gradientUnits="userSpaceOnUse" gradientTransform="translate(24.253 66.3018) rotate(-172.31) scale(2.25398 0.969209)">
<stop stop-color="#E71A46"/>
<stop offset="0.14" stop-color="#E71C47" stop-opacity="0.98"/>
<stop offset="0.27" stop-color="#E8234C" stop-opacity="0.93"/>
<stop offset="0.4" stop-color="#E93055" stop-opacity="0.85"/>
<stop offset="0.53" stop-color="#EB4261" stop-opacity="0.74"/>
<stop offset="0.66" stop-color="#EE5970" stop-opacity="0.59"/>
<stop offset="0.78" stop-color="#F17583" stop-opacity="0.4"/>
<stop offset="0.9" stop-color="#F49599" stop-opacity="0.19"/>
<stop offset="1" stop-color="#F8B3AD" stop-opacity="0"/>
</radialGradient>
<linearGradient id="paint19_linear_2424_15373" x1="17.6897" y1="50.256" x2="38.0431" y2="50.256" gradientUnits="userSpaceOnUse">
<stop stop-color="#904C2E"/>
<stop offset="1" stop-color="#B05D3B"/>
</linearGradient>
<linearGradient id="paint20_linear_2424_15373" x1="25.9258" y1="45.2805" x2="37.0913" y2="45.2805" gradientUnits="userSpaceOnUse">
<stop stop-color="#904C2E"/>
<stop offset="1" stop-color="#B05D3B"/>
</linearGradient>
<linearGradient id="paint21_linear_2424_15373" x1="17.4561" y1="54.6958" x2="43.4475" y2="54.6958" gradientUnits="userSpaceOnUse">
<stop stop-color="#904C2E"/>
<stop offset="1" stop-color="#B05D3B"/>
</linearGradient>
<linearGradient id="paint22_linear_2424_15373" x1="51.2969" y1="84.77" x2="51.6715" y2="52.502" gradientUnits="userSpaceOnUse">
<stop stop-color="#904C2E"/>
<stop offset="1" stop-color="#B05D3B"/>
</linearGradient>
<linearGradient id="paint23_linear_2424_15373" x1="39.5422" y1="73.0029" x2="64.4895" y2="73.0029" gradientUnits="userSpaceOnUse">
<stop stop-color="#904C2E"/>
<stop offset="1" stop-color="#B05D3B"/>
</linearGradient>
<linearGradient id="paint24_linear_2424_15373" x1="59.3356" y1="76.1476" x2="60.4595" y2="76.1476" gradientUnits="userSpaceOnUse">
<stop stop-color="#904C2E"/>
<stop offset="1" stop-color="#B05D3B"/>
</linearGradient>
<linearGradient id="paint25_linear_2424_15373" x1="42.9624" y1="77.5969" x2="44.203" y2="77.5969" gradientUnits="userSpaceOnUse">
<stop stop-color="#904C2E"/>
<stop offset="1" stop-color="#B05D3B"/>
</linearGradient>
<linearGradient id="paint26_linear_2424_15373" x1="46.3095" y1="76.1045" x2="46.893" y2="76.1045" gradientUnits="userSpaceOnUse">
<stop stop-color="#904C2E"/>
<stop offset="1" stop-color="#B05D3B"/>
</linearGradient>
<linearGradient id="paint27_linear_2424_15373" x1="47.0166" y1="66.247" x2="47.0166" y2="70.6321" gradientUnits="userSpaceOnUse">
<stop offset="0.3" stop-color="#3E3E3D"/>
<stop offset="0.47" stop-color="#313130"/>
<stop offset="0.74" stop-color="#252524"/>
<stop offset="1" stop-color="#212120"/>
</linearGradient>
<linearGradient id="paint28_linear_2424_15373" x1="56.3886" y1="66.247" x2="56.3886" y2="70.6321" gradientUnits="userSpaceOnUse">
<stop offset="0.3" stop-color="#3E3E3D"/>
<stop offset="0.47" stop-color="#313130"/>
<stop offset="0.74" stop-color="#252524"/>
<stop offset="1" stop-color="#212120"/>
</linearGradient>
<radialGradient id="paint29_radial_2424_15373" cx="0" cy="0" r="1" gradientUnits="userSpaceOnUse" gradientTransform="translate(56.8045 70.8117) rotate(-7.69) scale(1.96532 0.845087)">
<stop stop-color="#E71A46"/>
<stop offset="0.14" stop-color="#E71C47" stop-opacity="0.98"/>
<stop offset="0.27" stop-color="#E8234C" stop-opacity="0.93"/>
<stop offset="0.4" stop-color="#E93055" stop-opacity="0.85"/>
<stop offset="0.53" stop-color="#EB4261" stop-opacity="0.74"/>
<stop offset="0.66" stop-color="#EE5970" stop-opacity="0.59"/>
<stop offset="0.78" stop-color="#F17583" stop-opacity="0.4"/>
<stop offset="0.9" stop-color="#F49599" stop-opacity="0.19"/>
<stop offset="1" stop-color="#F8B3AD" stop-opacity="0"/>
</radialGradient>
<radialGradient id="paint30_radial_2424_15373" cx="0" cy="0" r="1" gradientUnits="userSpaceOnUse" gradientTransform="translate(46.5 70.7261) rotate(-172.31) scale(1.96532 0.845087)">
<stop stop-color="#E71A46"/>
<stop offset="0.14" stop-color="#E71C47" stop-opacity="0.98"/>
<stop offset="0.27" stop-color="#E8234C" stop-opacity="0.93"/>
<stop offset="0.4" stop-color="#E93055" stop-opacity="0.85"/>
<stop offset="0.53" stop-color="#EB4261" stop-opacity="0.74"/>
<stop offset="0.66" stop-color="#EE5970" stop-opacity="0.59"/>
<stop offset="0.78" stop-color="#F17583" stop-opacity="0.4"/>
<stop offset="0.9" stop-color="#F49599" stop-opacity="0.19"/>
<stop offset="1" stop-color="#F8B3AD" stop-opacity="0"/>
</radialGradient>
<linearGradient id="paint31_linear_2424_15373" x1="51.604" y1="68.0143" x2="51.4935" y2="57.6841" gradientUnits="userSpaceOnUse">
<stop stop-color="#904C2E"/>
<stop offset="1" stop-color="#B05D3B"/>
</linearGradient>
</defs>
</svg>
