<svg width="35" height="31" viewBox="0 0 35 31" fill="none" xmlns="http://www.w3.org/2000/svg">
<path fill-rule="evenodd" clip-rule="evenodd" d="M30.0687 16.7103L17.4337 29.2239L4.79879 16.7103M4.79912 16.7104C2.52702 14.4994 1.68878 11.1999 2.63009 8.17256C3.57139 5.14521 6.13279 2.90279 9.25802 2.37002C12.3832 1.83726 15.5429 3.10439 17.4341 5.64888C19.3332 3.12321 22.4861 1.8729 25.6 2.41065C28.7139 2.9484 31.2648 5.18374 32.2069 8.20005C33.1489 11.2164 32.3234 14.5062 30.069 16.7205" fill="#FF6969"/>
<path d="M31.1242 17.776C31.7128 17.1931 31.7174 16.2433 31.1345 15.6547C30.5515 15.0661 29.6018 15.0616 29.0132 15.6445L31.1242 17.776ZM17.4337 29.2239L16.3782 30.2897C16.9628 30.8687 17.9047 30.8687 18.4893 30.2897L17.4337 29.2239ZM5.85432 15.6445C5.26572 15.0616 4.31598 15.0661 3.73303 15.6547C3.15007 16.2433 3.15465 17.1931 3.74326 17.776L5.85432 15.6445ZM3.75302 17.7854C4.34674 18.3631 5.2964 18.3502 5.87415 17.7565C6.45189 17.1627 6.43894 16.2131 5.84523 15.6353L3.75302 17.7854ZM17.4341 5.64888L16.2302 6.54366C16.5123 6.92326 16.9569 7.14756 17.4299 7.14887C17.9029 7.15019 18.3487 6.92837 18.633 6.55035L17.4341 5.64888ZM29.0179 15.6503C28.4269 16.2308 28.4184 17.1806 28.9989 17.7716C29.5794 18.3626 30.5291 18.3711 31.1201 17.7906L29.0179 15.6503ZM29.0132 15.6445L16.3782 28.1582L18.4893 30.2897L31.1242 17.776L29.0132 15.6445ZM18.4893 28.1582L5.85432 15.6445L3.74326 17.776L16.3782 30.2897L18.4893 28.1582ZM5.84523 15.6353C3.97773 13.8181 3.28877 11.1062 4.06245 8.61793L1.19773 7.72719C0.0888019 11.2936 1.07631 15.1807 3.75302 17.7854L5.84523 15.6353ZM4.06245 8.61793C4.83613 6.12968 6.9414 4.28659 9.51009 3.84869L9.00595 0.891356C5.32419 1.519 2.30666 4.16074 1.19773 7.72719L4.06245 8.61793ZM9.51009 3.84869C12.0788 3.4108 14.6758 4.45228 16.2302 6.54366L18.638 4.7541C16.4101 1.75649 12.6877 0.263716 9.00595 0.891356L9.51009 3.84869ZM18.633 6.55035C20.1939 4.47444 22.7853 3.44679 25.3447 3.88877L25.8552 0.932532C22.1868 0.299022 18.4724 1.77198 16.2352 4.74741L18.633 6.55035ZM25.3447 3.88877C27.9041 4.33076 30.0008 6.16804 30.7751 8.64721L33.6387 7.75288C32.5289 4.19944 29.5236 1.56604 25.8552 0.932532L25.3447 3.88877ZM30.7751 8.64721C31.5493 11.1264 30.8709 13.8304 29.0179 15.6503L31.1201 17.7906C33.776 15.182 34.7484 11.3063 33.6387 7.75288L30.7751 8.64721Z" fill="#FF6969"/>
</svg>
