<svg width="35" height="34" viewBox="0 0 35 34" fill="none" xmlns="http://www.w3.org/2000/svg">
<path d="M14.781 33.9992C18.6889 33.995 22.4356 32.4407 25.1989 29.6773C27.9622 26.9139 29.5164 23.1672 29.5205 19.2592C29.5243 17.8009 29.3086 16.3504 28.8808 14.9562C28.8405 14.8099 28.7712 14.6732 28.677 14.5541C28.5829 14.4351 28.4658 14.3362 28.3327 14.2633C28.1996 14.1903 28.0532 14.1449 27.9022 14.1296C27.7512 14.1144 27.5987 14.1296 27.4537 14.1744C27.3087 14.2192 27.1741 14.2926 27.0581 14.3904C26.942 14.4882 26.8467 14.6082 26.7779 14.7435C26.7092 14.8788 26.6682 15.0265 26.6576 15.1779C26.647 15.3293 26.6669 15.4813 26.7162 15.6249C27.0759 16.8028 27.2572 18.0279 27.254 19.2595C27.254 21.7265 26.5224 24.1381 25.1517 26.1894C23.7811 28.2406 21.8329 29.8393 19.5537 30.7834C17.2744 31.7274 14.7664 31.9744 12.3468 31.493C9.92713 31.0117 7.70459 29.8236 5.96017 28.0791C4.21576 26.3346 3.02784 24.112 2.54661 21.6923C2.06539 19.2727 2.31248 16.7647 3.25665 14.4855C4.20082 12.2062 5.79965 10.2582 7.85096 8.88765C9.90227 7.51711 12.3139 6.78564 14.781 6.78573C16.0123 6.78232 17.2372 6.96422 18.4144 7.32529C18.7016 7.41423 19.0123 7.38545 19.2782 7.2453C19.5442 7.10514 19.7435 6.86509 19.8325 6.57794C19.9214 6.29079 19.8926 5.98007 19.7525 5.71414C19.6123 5.4482 19.3723 5.24884 19.0851 5.1599C17.6906 4.73203 16.2397 4.51618 14.781 4.51959C12.8418 4.51421 10.9207 4.89151 9.12764 5.62985C7.33457 6.3682 5.70481 7.45309 4.33174 8.82237C2.95866 10.1916 1.86925 11.8184 1.12594 13.6094C0.38262 15.4004 0 17.3205 0 19.2596C0 21.1988 0.38262 23.1188 1.12594 24.9099C1.86925 26.7009 2.95866 28.3276 4.33174 29.6969C5.70481 31.0662 7.33457 32.1511 9.12764 32.8894C10.9207 33.6278 12.8418 34.0046 14.781 33.9992Z" fill="white"/>
<path d="M14.7812 13.5895C14.8354 13.5901 14.8863 13.5857 14.9228 13.5907C15.2177 13.6494 15.5238 13.5885 15.7738 13.4215C16.0237 13.2546 16.1972 12.9951 16.2559 12.7003C16.3146 12.4054 16.2537 12.0993 16.0868 11.8494C15.9198 11.5994 15.6603 11.4259 15.3655 11.3672C15.1726 11.3337 14.9769 11.3188 14.7812 11.3229C13.2114 11.3229 11.6769 11.7883 10.3717 12.6604C9.06647 13.5325 8.04917 14.772 7.44843 16.2223C6.84769 17.6725 6.6905 19.2683 6.99673 20.8079C7.30296 22.3475 8.05887 23.7617 9.16885 24.8717C10.2788 25.9817 11.693 26.7376 13.2326 27.0438C14.7722 27.3501 16.368 27.1929 17.8183 26.5921C19.2685 25.9914 20.5081 24.9741 21.3802 23.6689C22.2522 22.3637 22.7177 20.8291 22.7176 19.2594C22.7215 19.0652 22.7071 18.871 22.6745 18.6795C22.6192 18.3944 22.4531 18.143 22.2126 17.9804C21.972 17.8178 21.6768 17.7573 21.3917 17.8123C21.0997 17.8662 20.8393 18.0297 20.6638 18.2692C20.4883 18.5088 20.411 18.8064 20.4476 19.1011C20.4522 19.1538 20.4533 19.2068 20.451 19.2597C20.451 20.3811 20.1185 21.4773 19.4955 22.4098C18.8725 23.3422 17.987 24.0689 16.9509 24.498C15.9149 24.9272 14.7749 25.0394 13.675 24.8207C12.5752 24.6019 11.5649 24.0619 10.772 23.2689C9.97901 22.476 9.43901 21.4657 9.22023 20.3659C9.00146 19.266 9.11374 18.126 9.54288 17.09C9.97202 16.0539 10.6987 15.1684 11.6311 14.5454C12.5636 13.9224 13.6598 13.5895 14.7812 13.5895Z" fill="white"/>
<path d="M13.9798 18.4576C13.7673 18.6702 13.6479 18.9584 13.6479 19.2589C13.6479 19.5595 13.7673 19.8477 13.9798 20.0602C14.1941 20.2694 14.4817 20.3866 14.7811 20.3866C15.0806 20.3866 15.3682 20.2694 15.5824 20.0602L23.7545 11.8881H28.0962C28.245 11.8882 28.3924 11.8589 28.5299 11.8019C28.6674 11.7449 28.7923 11.6614 28.8975 11.5561L33.7073 6.74627C33.8658 6.58778 33.9737 6.38586 34.0175 6.16603C34.0612 5.94621 34.0388 5.71835 33.953 5.51127C33.8672 5.3042 33.722 5.1272 33.5357 5.00267C33.3493 4.87813 33.1302 4.81164 32.9061 4.81162H29.2294V1.13339C29.2295 0.909256 29.163 0.690145 29.0385 0.503767C28.914 0.31739 28.737 0.172118 28.53 0.086319C28.3229 0.000520361 28.095 -0.0219509 27.8752 0.0217467C27.6554 0.0654443 27.4534 0.173348 27.2949 0.331814L22.484 5.14311C22.2714 5.35559 22.152 5.6438 22.1519 5.94435V10.2855L13.9798 18.4576ZM24.4185 6.41365L26.9629 3.86928V5.94435C26.9629 6.24492 27.0823 6.53317 27.2948 6.74571C27.5073 6.95824 27.7956 7.07764 28.0962 7.07764H30.1701L27.627 9.62155H24.4185V6.41365Z" fill="white"/>
</svg>
