<svg width="25" height="28" viewBox="0 0 25 28" fill="none" xmlns="http://www.w3.org/2000/svg">
<path fill-rule="evenodd" clip-rule="evenodd" d="M0.600098 11.6449C0.600098 5.20505 5.98153 0 12.4909 0C19.0187 0 24.4001 5.20505 24.4001 11.6449C24.4001 14.89 23.2199 17.9027 21.2774 20.4562C19.1344 23.2729 16.4931 25.7271 13.5201 27.6534C12.8396 28.0986 12.2255 28.1322 11.4787 27.6534C8.48873 25.7271 5.84742 23.2729 3.7228 20.4562C1.77887 17.9027 0.600098 14.89 0.600098 11.6449ZM8.57227 12.0078C8.57227 14.1651 10.3327 15.8619 12.4912 15.8619C14.6511 15.8619 16.4284 14.1651 16.4284 12.0078C16.4284 9.86724 14.6511 8.08789 12.4912 8.08789C10.3327 8.08789 8.57227 9.86724 8.57227 12.0078Z" fill="white"/>
</svg>
