<svg width="17" height="19" viewBox="0 0 17 19" fill="none" xmlns="http://www.w3.org/2000/svg">
<path d="M7.05302 4.66675H3.96296C2.56621 4.66675 1.86783 4.66675 1.43392 5.10066C1 5.53458 1 6.23296 1 7.62971V15.0371C1 16.4339 1 17.1322 1.43392 17.5662C1.86783 18.0001 2.56621 18.0001 3.96296 18.0001H8.40741C9.80416 18.0001 10.5025 18.0001 10.9365 17.5662C11.3704 17.1322 11.3704 16.4339 11.3704 15.0371V8.9841C11.3704 8.68132 11.3704 8.52993 11.314 8.39381C11.2576 8.25768 11.1506 8.15063 10.9365 7.93654L8.10058 5.10066C7.88649 4.88657 7.77944 4.77952 7.64331 4.72313C7.50718 4.66675 7.35579 4.66675 7.05302 4.66675Z" stroke="#121027" stroke-width="2"/>
<path d="M10.719 1H7.62898C6.23222 1 5.53385 1 5.09993 1.43392C4.66602 1.86783 4.66602 2.56621 4.66602 3.96296V11.3704C4.66602 12.7671 4.66602 13.4655 5.09993 13.8994C5.53385 14.3333 6.23222 14.3333 7.62898 14.3333H12.0734C13.4702 14.3333 14.1686 14.3333 14.6025 13.8994C15.0364 13.4655 15.0364 12.7671 15.0364 11.3704V5.31735C15.0364 5.01458 15.0364 4.86319 14.98 4.72706C14.9236 4.59093 14.8166 4.48388 14.6025 4.26979L11.7666 1.43392C11.5525 1.21982 11.4455 1.11277 11.3093 1.05639C11.1732 1 11.0218 1 10.719 1Z" fill="white" stroke="#121027" stroke-width="2"/>
<path d="M10.5918 1V3.96296C10.5918 4.66134 10.5918 5.01053 10.8088 5.22749C11.0257 5.44444 11.3749 5.44444 12.0733 5.44444H15.0362" stroke="#121027" stroke-width="2"/>
</svg>
