<svg width="86" height="86" viewBox="0 0 86 86" fill="none" xmlns="http://www.w3.org/2000/svg">
<circle cx="43" cy="51" r="35" fill="#3BC4FF"/>
<mask id="mask0_2492_11699" style="mask-type:alpha" maskUnits="userSpaceOnUse" x="0" y="0" width="86" height="86">
<circle cx="43" cy="43" r="43" fill="#FFC800"/>
</mask>
<g mask="url(#mask0_2492_11699)">
<path fill-rule="evenodd" clip-rule="evenodd" d="M57.288 82.5487L62.064 83.9535L62.0633 83.9555C57.2481 89.4876 50.1728 93.0002 42.2629 93.0002C35.6985 93.0002 29.7088 90.5809 25.1088 86.5958C24.7474 86.2833 24.3972 85.9633 24.0565 85.6347L30.7636 82.6756L32.8692 74.6476L53.7531 73.7313V77.8242C53.7531 80.0088 55.1922 81.9323 57.288 82.5487Z" fill="#F4AA73"/>
<path fill-rule="evenodd" clip-rule="evenodd" d="M30.7722 77.8232L30.751 68.376L53.7532 68.3762V73.7305C50.3215 75.5455 46.4152 76.5837 42.2627 76.5837C40.38 76.5837 38.5519 76.3613 36.7938 75.9535C35.3856 75.6269 34.0524 76.7392 34.0552 78.1846C34.0552 81.8073 31.6332 84.6761 28.1644 85.6967L28.164 85.6975L25.1106 86.5955C25.1104 86.5953 25.1101 86.5951 25.1098 86.5948C24.1599 85.7734 23.287 84.9006 22.4626 83.9531L22.4609 83.9536L22.4611 83.9523L27.2371 82.5476H27.2375C29.3331 81.9309 30.7722 80.0077 30.7722 77.8232Z" fill="#E29A6C"/>
<path d="M76.162 45.396H72.879V27.3395C72.879 17.383 64.7789 9.283 54.8225 9.283H31.8415C21.885 9.283 13.785 17.383 13.785 27.3395V45.396H10.502V27.3395C10.502 15.5725 20.0752 6 31.8415 6H54.8225C66.5887 6 76.162 15.5725 76.162 27.3395V45.396Z" fill="#E7E7E7"/>
<path d="M74.5211 43.7549H67.9551V56.8869H74.5211C76.3343 56.8869 77.8041 55.4171 77.8041 53.6039L74.5211 43.7549Z" fill="#FFC800"/>
<path d="M77.8045 53.6039V47.0379C77.8045 45.2247 76.3347 43.7549 74.5215 43.7549V50.3209C74.5215 52.1339 75.9913 53.6039 77.8045 53.6039Z" fill="#FFE27A"/>
<path d="M43.3316 73.0677C31.5462 73.0677 24.3975 63.7467 24.3975 51.9613V25.6973H66.0512L64.6711 51.9613C64.6711 62.6226 56.8528 71.4577 46.6368 73.0463C45.5596 73.2137 44.4558 73.0677 43.3316 73.0677Z" fill="#FBBD80"/>
<path d="M58.101 30.3883L59.7477 25.6973H20.2529L21.9932 51.9613C21.9932 63.7467 31.5473 73.3008 43.3327 73.3008C44.4521 73.3008 45.565 73.2125 46.6379 73.0463C36.4153 71.4636 28.5592 62.6273 28.5592 51.9613V41.067C28.5592 38.4982 30.534 36.3362 33.0969 36.1609C45.6159 35.3045 55.8876 31.3342 58.101 30.3883Z" fill="#FBBD80"/>
<path d="M30.2001 71.6599H25.2756C18.0347 71.6599 12.1436 65.7687 12.1436 58.5279V55.2451H15.4266V58.5281C15.4266 63.9592 19.8445 68.3771 25.2756 68.3771H30.2001V71.6599Z" fill="#E7E7E7"/>
<path d="M33.4831 66.7354H31.8416C30.0284 66.7354 28.5586 68.2052 28.5586 70.0184C28.5586 71.8315 30.0284 73.3014 31.8416 73.3014H33.4831C35.2963 73.3014 36.7661 71.8315 36.7661 70.0184C36.7661 68.2054 35.2963 66.7354 33.4831 66.7354Z" fill="#615260"/>
<path d="M12.1443 43.7549L8.86133 53.6039C8.86133 55.4171 10.3311 56.8869 12.1443 56.8869H18.7103V43.7549H12.1443Z" fill="#FFC800"/>
<path d="M8.86133 53.6039V47.0379C8.86133 45.2247 10.3311 43.7549 12.1443 43.7549V50.3209C12.1443 52.1339 10.6745 53.6039 8.86133 53.6039Z" fill="#FFE27A"/>
<path d="M20.3514 56.8868H18.7099C17.8034 56.8868 17.0684 56.1518 17.0684 55.2453V43.7548C17.0684 42.8483 17.8034 42.1133 18.7099 42.1133H20.3514C21.2579 42.1133 21.9929 42.8483 21.9929 43.7548V55.2453C21.9929 56.1518 21.2581 56.8868 20.3514 56.8868Z" fill="#615260"/>
<path d="M21.9928 55.2453C20.1796 55.2453 18.7098 53.7755 18.7098 51.9623V42.1133H17.0683C16.1618 42.1133 15.4268 42.8483 15.4268 43.7548V56.8868C15.4268 57.7933 16.1618 58.5283 17.0683 58.5283H20.3513C21.2577 58.5283 21.9928 57.7933 21.9928 56.8868V55.2453Z" fill="#4E3D4D"/>
<path d="M69.5975 56.8868H67.956C67.0495 56.8868 66.3145 56.1518 66.3145 55.2453V43.7548C66.3145 42.8483 67.0495 42.1133 67.956 42.1133H69.5975C70.5039 42.1133 71.239 42.8483 71.239 43.7548V55.2453C71.239 56.1518 70.5039 56.8868 69.5975 56.8868Z" fill="#615260"/>
<path d="M71.2379 55.2453C69.4247 55.2453 67.9549 53.7755 67.9549 51.9623V42.1133H66.3134C65.4069 42.1133 64.6719 42.8483 64.6719 43.7548V56.8868C64.6719 57.7933 65.4069 58.5283 66.3134 58.5283H69.5964C70.5029 58.5283 71.2379 57.7933 71.2379 56.8868V55.2453Z" fill="#4E3D4D"/>
<path d="M18.7109 32.2632V43.7537H21.9939C23.8071 43.7537 25.2769 42.2839 25.2769 40.4707V30.6217L18.7109 32.2632Z" fill="url(#paint0_linear_2492_11699)"/>
<path d="M63.4096 19.4486C62.6531 19.2042 61.9815 18.7954 61.4172 18.2608L58.6171 17.8813L59.2786 15.7609C58.1413 14.7926 56.6698 14.2076 55.056 14.2076C55.056 14.2076 43.2421 10.2182 31.8429 14.2076C20.4437 18.197 20.5104 18.4517 19.0945 24.1762L18.7109 27.4384V32.2632C38.4089 35.5462 56.4654 27.3396 56.4654 27.3396L62.6313 27.664L66.2276 21.2584C65.4692 20.4325 64.5019 19.8013 63.4096 19.4486Z" fill="url(#paint1_linear_2492_11699)"/>
<path d="M65.2536 43.7547H67.9553V25.6982C67.9553 23.986 67.3011 22.4273 66.2276 21.2584C61.5865 24.7737 56.4654 27.3396 56.4654 27.3396L62.2053 41.6908C62.704 42.9372 63.9112 43.7547 65.2536 43.7547Z" fill="url(#paint2_linear_2492_11699)"/>
<path d="M28.4589 28.0251C48.0539 28.0251 58.5388 20.6456 61.4172 18.2608C61.0872 17.9485 60.544 17.2047 60.544 17.2047C60.544 17.2047 59.7684 16.1774 59.2786 15.7609C56.2713 18.1669 43.365 26.9632 19.0945 24.1762C18.8434 25.1902 18.7109 26.2476 18.7109 27.3389V27.4384C22.1779 27.8375 25.4317 28.0251 28.4589 28.0251Z" fill="url(#paint3_linear_2492_11699)"/>
<path d="M45.8917 15.6348C45.8917 15.6348 44.6624 28.8022 36.0508 31.6844C36.0508 31.6844 52.5449 30.601 45.8917 15.6348Z" fill="#40241A"/>
<path d="M56.4927 19.9893C56.4927 19.9893 56.1107 29.4273 63.3959 36.2194C63.3959 36.2194 59.2706 28.6009 56.4927 19.9893Z" fill="#40241A"/>
<path d="M38.3912 16.5791C38.3912 16.5791 32.8908 24.7741 22.668 30.5591C22.668 30.5591 34.0506 28.3437 38.3912 16.5791Z" fill="#40241A"/>
<path d="M41.7316 14.7959C41.7316 14.7959 41.7872 24.6437 31.7588 29.8941C31.7588 29.8941 43.6692 27.6648 41.7316 14.7959Z" fill="#40241A"/>
<path d="M37.1765 14.7039C37.1765 14.7039 23.1757 13.9191 19.8213 30.8507C19.8213 30.8507 25.1758 17.3568 37.1835 14.7039H37.1765Z" fill="#40241A"/>
<path d="M37.2028 15.5527C37.2028 15.5527 24.1326 18.1293 20.8477 33.6858C20.8477 33.6858 27.862 22.6921 37.2028 15.5527Z" fill="#40241A"/>
<path d="M53.6758 16.7036C53.6758 16.7036 59.6831 16.2036 62.0305 20.4677C64.3778 24.7388 65.7807 31.0586 65.5376 31.0586C65.2946 31.0586 62.1485 17.78 53.6758 16.7036Z" fill="#40241A"/>
<path d="M51.1331 58C51.5184 58.0171 51.8353 58.4966 51.6897 58.9077C51.664 58.9933 51.6126 59.0704 51.5613 59.1132C51.5527 59.1132 51.5441 59.1132 51.5356 59.1132C51.5356 58.7193 51.3643 58.3168 51.1074 58.0171C51.1074 58.0171 51.1245 58.0086 51.1245 58H51.1331Z" fill="#B65050" stroke="#B65050" stroke-width="0.265449" stroke-miterlimit="10"/>
<path d="M33.2619 59.0799C32.9537 58.9343 32.8937 58.4634 33.2106 58.1893C33.3561 58.0695 33.5531 58.0352 33.6815 58.0866C33.6815 58.0952 33.6901 58.1037 33.6987 58.1123C33.4075 58.3007 33.2191 58.7117 33.2962 59.0628C33.2876 59.0628 33.2705 59.0628 33.2619 59.0628V59.0799Z" fill="#B65050" stroke="#B65050" stroke-width="0.265449" stroke-miterlimit="10"/>
<path d="M33.3314 58.548C33.3314 58.548 33.3142 58.548 33.3057 58.5737C33.3057 58.5737 33.3057 58.5737 33.3057 58.5823C33.3057 58.5823 33.3142 58.5823 33.3228 58.5909C33.5369 58.7536 35.4635 59.764 38.7602 60.2692C42.0227 60.7915 46.6894 60.6203 51.2791 58.9077C51.2877 58.9077 51.3048 58.8991 51.3134 58.8906C51.4076 58.8563 51.4932 58.8306 51.5788 58.7964C51.5531 58.7107 51.5189 58.6165 51.4932 58.5309C51.4932 58.5224 51.4932 58.5138 51.4846 58.4967C51.4589 58.4025 51.4247 58.3083 51.399 58.2227C51.3048 58.2483 51.2106 58.2826 51.1164 58.3083C46.3555 59.7126 41.7572 59.9181 38.529 59.5328C36.9021 59.3615 35.6176 59.0704 34.7271 58.8563C33.8366 58.6422 33.357 58.4967 33.3399 58.5395C33.3314 58.5737 33.7852 58.7878 34.6586 59.0704C35.532 59.353 36.825 59.704 38.4691 59.9352C41.7401 60.4233 46.4411 60.2863 51.2791 58.8563C51.1507 58.7878 51.0308 58.7279 50.9109 58.6594C50.9109 58.6679 50.9109 58.6765 50.9195 58.6936C50.9794 58.5737 51.0394 58.4539 51.1079 58.334C51.0993 58.334 51.0822 58.334 51.0736 58.3425C46.5781 60.0123 42.0398 60.2349 38.8201 59.8325C35.5748 59.4386 33.6139 58.5737 33.3314 58.548C33.3314 58.548 33.3314 58.5652 33.3399 58.5737C33.3399 58.548 33.3399 58.5395 33.3399 58.5395L33.3314 58.548Z" fill="#B35652"/>
<path d="M41.9901 51.9909C42.2201 51.8109 42.4301 51.6009 42.4801 51.2809C42.5501 50.8009 42.4801 50.4009 42.4801 49.9309C42.4601 49.2309 42.2301 46.7309 42.1201 46.0209C42.1201 45.9909 42.0701 46.0009 42.0701 46.0209C42.0201 47.0709 42.2201 50.8809 41.8101 51.4909C41.4801 51.9809 40.6501 52.2009 40.5001 52.8209C40.3301 53.5109 41.1201 54.2409 41.5901 54.6209C41.7901 54.7809 42.1401 54.7009 42.2101 54.4409C42.3001 54.1609 41.8601 53.8609 41.7001 53.6709C41.5001 53.4409 41.3301 53.2309 41.3301 52.9109C41.3301 52.4609 41.6901 52.2509 42.0101 51.9909H41.9901Z" fill="#B65050"/>
<path d="M27 40.6713C27 40.6713 27.07 40.4813 27.28 40.2613C27.49 40.0313 27.82 39.7313 28.29 39.4613C29.2 38.8813 30.64 38.4113 32.14 38.4313C33.64 38.4313 35.06 38.8913 36.04 39.3513C37.02 39.8213 37.58 40.3013 37.51 40.3913C37.42 40.5913 34.88 39.2613 32.14 39.2713C30.78 39.2513 29.49 39.5813 28.58 39.9913C28.11 40.1713 27.75 40.3813 27.49 40.5213C27.22 40.6513 27.05 40.7113 27.01 40.6713H27Z" fill="#90452A"/>
<path d="M58.7204 40.3813C58.7204 40.3813 58.5004 40.3613 58.2204 40.2213C57.9504 40.0713 57.5704 39.8413 57.0804 39.6513C56.1304 39.2113 54.7704 38.8513 53.3404 38.8713C50.4504 38.8713 47.7704 40.2313 47.6604 40.0313C47.6004 39.9313 48.1904 39.4313 49.2204 38.9513C50.2504 38.4813 51.7504 37.9913 53.3304 38.0013C54.9104 37.9713 56.4204 38.4813 57.3704 39.1113C57.8604 39.4013 58.2004 39.7213 58.4204 39.9613C58.6404 40.1913 58.7504 40.3513 58.7104 40.3913L58.7204 40.3813Z" fill="#90452A"/>
<path style="mix-blend-mode:soft-light" opacity="0.7" d="M28.8304 49.001C28.8304 49.001 31.2204 53.491 35.9804 50.511C35.9804 50.511 37.9704 54.831 33.3804 55.171C28.7904 55.511 27.5804 51.831 28.8304 49.001Z" fill="url(#paint4_radial_2492_11699)"/>
<path style="mix-blend-mode:soft-light" opacity="0.7" d="M57.1005 49.1006C57.1005 49.1006 54.5805 53.8206 49.5705 50.6906C49.5705 50.6906 47.4705 55.2306 52.3105 55.6006C57.1505 55.9706 58.4205 52.0806 57.1005 49.1006Z" fill="url(#paint5_radial_2492_11699)"/>
<path d="M52.7398 51.5105C55.308 51.5105 57.3898 49.3301 57.3898 46.6405C57.3898 43.9509 55.308 41.7705 52.7398 41.7705C50.1717 41.7705 48.0898 43.9509 48.0898 46.6405C48.0898 49.3301 50.1717 51.5105 52.7398 51.5105Z" fill="white"/>
<path d="M52.48 51.0625C54.396 51.0625 55.9492 49.5093 55.9492 47.5933C55.9492 45.6773 54.396 44.124 52.48 44.124C50.564 44.124 49.0107 45.6773 49.0107 47.5933C49.0107 49.5093 50.564 51.0625 52.48 51.0625Z" fill="url(#paint6_linear_2492_11699)"/>
<path d="M51.6411 46.4448C51.9622 46.016 51.9574 45.4697 51.6302 45.2248C51.3031 44.9798 50.7776 45.1288 50.4565 45.5576C50.1353 45.9864 50.1402 46.5326 50.4673 46.7776C50.7944 47.0226 51.3199 46.8736 51.6411 46.4448Z" fill="white"/>
<path d="M49.85 47.7204C50.0654 47.7204 50.24 47.5458 50.24 47.3304C50.24 47.115 50.0654 46.9404 49.85 46.9404C49.6346 46.9404 49.46 47.115 49.46 47.3304C49.46 47.5458 49.6346 47.7204 49.85 47.7204Z" fill="white"/>
<path d="M32.92 51.281C35.3611 51.281 37.34 49.2126 37.34 46.661C37.34 44.1095 35.3611 42.041 32.92 42.041C30.4789 42.041 28.5 44.1095 28.5 46.661C28.5 49.2126 30.4789 51.281 32.92 51.281Z" fill="white"/>
<path d="M32.9995 50.9053C34.8287 50.9053 36.3115 49.4224 36.3115 47.5933C36.3115 45.7641 34.8287 44.2812 32.9995 44.2812C31.1703 44.2812 29.6875 45.7641 29.6875 47.5933C29.6875 49.4224 31.1703 50.9053 32.9995 50.9053Z" fill="url(#paint7_linear_2492_11699)"/>
<path d="M32.1818 46.4632C32.4864 46.0565 32.4825 45.5389 32.173 45.3072C31.8636 45.0754 31.3658 45.2173 31.0613 45.624C30.7567 46.0307 30.7606 46.5482 31.0701 46.78C31.3795 47.0117 31.8773 46.8699 32.1818 46.4632Z" fill="white"/>
<path d="M30.4706 47.6804C30.6749 47.6804 30.8406 47.5148 30.8406 47.3104C30.8406 47.1061 30.6749 46.9404 30.4706 46.9404C30.2662 46.9404 30.1006 47.1061 30.1006 47.3104C30.1006 47.5148 30.2662 47.6804 30.4706 47.6804Z" fill="white"/>
</g>
<defs>
<linearGradient id="paint0_linear_2492_11699" x1="43.3331" y1="14.208" x2="43.3331" y2="43.7551" gradientUnits="userSpaceOnUse">
<stop offset="0.322917" stop-color="#4E2C1F"/>
<stop offset="1" stop-color="#4F2C1F"/>
</linearGradient>
<linearGradient id="paint1_linear_2492_11699" x1="43.3331" y1="14.208" x2="43.3331" y2="43.7551" gradientUnits="userSpaceOnUse">
<stop offset="0.322917" stop-color="#4E2C1F"/>
<stop offset="1" stop-color="#4F2C1F"/>
</linearGradient>
<linearGradient id="paint2_linear_2492_11699" x1="43.3331" y1="14.208" x2="43.3331" y2="43.7551" gradientUnits="userSpaceOnUse">
<stop offset="0.322917" stop-color="#4E2C1F"/>
<stop offset="1" stop-color="#4F2C1F"/>
</linearGradient>
<linearGradient id="paint3_linear_2492_11699" x1="43.3331" y1="14.208" x2="43.3331" y2="43.7551" gradientUnits="userSpaceOnUse">
<stop offset="0.322917" stop-color="#4E2C1F"/>
<stop offset="1" stop-color="#4F2C1F"/>
</linearGradient>
<radialGradient id="paint4_radial_2492_11699" cx="0" cy="0" r="1" gradientUnits="userSpaceOnUse" gradientTransform="translate(32.2072 52.9352) rotate(-172.31) scale(3.67 1.5781)">
<stop stop-color="#E71A46"/>
<stop offset="0.14" stop-color="#E71C47" stop-opacity="0.98"/>
<stop offset="0.27" stop-color="#E8234C" stop-opacity="0.93"/>
<stop offset="0.4" stop-color="#E93055" stop-opacity="0.85"/>
<stop offset="0.53" stop-color="#EB4261" stop-opacity="0.74"/>
<stop offset="0.66" stop-color="#EE5970" stop-opacity="0.59"/>
<stop offset="0.78" stop-color="#F17583" stop-opacity="0.4"/>
<stop offset="0.9" stop-color="#F49599" stop-opacity="0.19"/>
<stop offset="1" stop-color="#F8B3AD" stop-opacity="0"/>
</radialGradient>
<radialGradient id="paint5_radial_2492_11699" cx="0" cy="0" r="1" gradientUnits="userSpaceOnUse" gradientTransform="translate(53.5397 53.1731) rotate(-7.69) scale(3.87 1.6641)">
<stop stop-color="#E71A46"/>
<stop offset="0.14" stop-color="#E71C47" stop-opacity="0.98"/>
<stop offset="0.27" stop-color="#E8234C" stop-opacity="0.93"/>
<stop offset="0.4" stop-color="#E93055" stop-opacity="0.85"/>
<stop offset="0.53" stop-color="#EB4261" stop-opacity="0.74"/>
<stop offset="0.66" stop-color="#EE5970" stop-opacity="0.59"/>
<stop offset="0.78" stop-color="#F17583" stop-opacity="0.4"/>
<stop offset="0.9" stop-color="#F49599" stop-opacity="0.19"/>
<stop offset="1" stop-color="#F8B3AD" stop-opacity="0"/>
</radialGradient>
<linearGradient id="paint6_linear_2492_11699" x1="52.48" y1="42.3531" x2="52.48" y2="55.0253" gradientUnits="userSpaceOnUse">
<stop offset="0.3" stop-color="#583216"/>
<stop offset="0.36" stop-color="#512E14"/>
<stop offset="0.59" stop-color="#3A2111"/>
<stop offset="0.8" stop-color="#2D1A0F"/>
<stop offset="1" stop-color="#29180F"/>
</linearGradient>
<linearGradient id="paint7_linear_2492_11699" x1="32.9995" y1="42.5906" x2="32.9995" y2="54.6885" gradientUnits="userSpaceOnUse">
<stop offset="0.3" stop-color="#583216"/>
<stop offset="0.36" stop-color="#512E14"/>
<stop offset="0.59" stop-color="#3A2111"/>
<stop offset="0.8" stop-color="#2D1A0F"/>
<stop offset="1" stop-color="#29180F"/>
</linearGradient>
</defs>
</svg>
