<svg width="38" height="27" viewBox="0 0 38 27" fill="none" xmlns="http://www.w3.org/2000/svg">
<path fill-rule="evenodd" clip-rule="evenodd" d="M26.0172 7.14294C26.0172 11.108 22.8562 14.2874 18.914 14.2874C14.9718 14.2874 11.8108 11.108 11.8108 7.14294C11.8108 3.17633 14.9718 0 18.914 0C22.8562 0 26.0172 3.17633 26.0172 7.14294ZM18.9141 26.9999C13.1239 26.9999 8.17998 26.0819 8.17998 22.4102C8.17998 18.7369 13.0922 17.7855 18.9141 17.7855C24.7042 17.7855 29.6482 18.7034 29.6482 22.3767C29.6482 26.0485 24.7359 26.9999 18.9141 26.9999ZM29.0527 7.27167C29.0527 9.29297 28.4498 11.176 27.3921 12.7413C27.2833 12.9024 27.38 13.1198 27.5719 13.1532C27.8363 13.1988 28.1098 13.2246 28.3879 13.2322C31.1605 13.3052 33.6491 11.5103 34.3366 8.80816C35.355 4.79444 32.3648 1.19106 28.5571 1.19106C28.1431 1.19106 27.7472 1.23513 27.3619 1.31416C27.309 1.32632 27.2531 1.35063 27.2229 1.39774C27.1866 1.4555 27.2138 1.533 27.2501 1.58316C28.3939 3.19564 29.0527 5.16222 29.0527 7.27167ZM33.6445 16.0523C35.5076 16.4186 36.733 17.1663 37.2407 18.2529C37.6698 19.1451 37.6698 20.18 37.2407 21.0706C36.464 22.756 33.9603 23.2971 32.9872 23.4369C32.7863 23.4673 32.6246 23.2925 32.6457 23.0904C33.1429 18.4201 29.1886 16.2058 28.1657 15.6967C28.1218 15.6739 28.1128 15.6389 28.1173 15.6177C28.1203 15.6025 28.1385 15.5781 28.1717 15.5736C30.3853 15.5325 32.7651 15.8365 33.6445 16.0523ZM9.61255 13.2322C9.89057 13.2246 10.1626 13.2003 10.4285 13.1532C10.6204 13.1198 10.7171 12.9024 10.6083 12.7413C9.5506 11.176 8.94772 9.29297 8.94772 7.27167C8.94772 5.16222 9.60651 3.19564 10.7503 1.58316C10.7866 1.533 10.8123 1.4555 10.7775 1.39774C10.7473 1.35215 10.6899 1.32632 10.6385 1.31416C10.2517 1.23513 9.85582 1.19106 9.44181 1.19106C5.63411 1.19106 2.64386 4.79444 3.66378 8.80816C4.35128 11.5103 6.83988 13.3052 9.61255 13.2322ZM9.88233 15.617C9.88687 15.6398 9.8778 15.6732 9.83549 15.6975C8.81104 16.2066 4.85677 18.4209 5.35389 23.0897C5.37504 23.2933 5.21488 23.4666 5.01392 23.4377C4.04084 23.2979 1.53712 22.7569 0.760475 21.0714C0.329842 20.1793 0.329842 19.1459 0.760475 18.2538C1.26817 17.1671 2.49207 16.4194 4.35512 16.0516C5.23603 15.8373 7.61433 15.5334 9.82945 15.5744C9.86269 15.579 9.87931 15.6033 9.88233 15.617Z" fill="white"/>
</svg>
