<svg width="17" height="16" viewBox="0 0 17 16" fill="none" xmlns="http://www.w3.org/2000/svg">
<path d="M12.7842 9.49398C12.5925 9.67654 12.5044 9.94056 12.5481 10.1995L13.2062 13.7779C13.2617 14.0812 13.1314 14.3882 12.8731 14.5635C12.6199 14.7453 12.2831 14.7671 12.007 14.6216L8.72831 12.9415C8.61431 12.8819 8.48772 12.8499 8.35817 12.8462H8.15756C8.08798 12.8564 8.01987 12.8782 7.95769 12.9117L4.6783 14.5998C4.51618 14.6798 4.3326 14.7082 4.15271 14.6798C3.71447 14.5984 3.42207 14.1882 3.49387 13.7554L4.15271 10.1769C4.19639 9.91583 4.10829 9.65036 3.91656 9.46489L1.24346 6.91924C1.0199 6.70614 0.942167 6.38611 1.04432 6.09736C1.14352 5.80934 1.39669 5.59914 1.70242 5.55187L5.38155 5.02746C5.66138 4.9991 5.90715 4.83181 6.03299 4.58452L7.65418 1.31882C7.69267 1.24609 7.74227 1.17918 7.80223 1.12244L7.86886 1.07153C7.90365 1.03371 7.94362 1.00244 7.98804 0.976979L8.06873 0.947886L8.19457 0.896973H8.50623C8.78457 0.925338 9.0296 1.08899 9.15766 1.33337L10.8003 4.58452C10.9188 4.82236 11.149 4.98746 11.4147 5.02746L15.0939 5.55187C15.4048 5.59551 15.6646 5.80643 15.7675 6.09736C15.8645 6.38902 15.7808 6.70905 15.5528 6.91924L12.7842 9.49398Z" stroke="white" stroke-width="1.5"/>
</svg>
