<svg width="25" height="28" viewBox="0 0 25 28" fill="none" xmlns="http://www.w3.org/2000/svg">
<path d="M3.52829 24.872L4.21229 20.882H2.46429C1.36229 20.882 0.488289 20.008 0.488289 18.906C0.488289 17.842 1.36229 16.93 2.46429 16.93H4.89629L6.03629 10.318H3.83229C2.76829 10.318 1.85629 9.406 1.85629 8.342C1.85629 7.278 2.76829 6.366 3.83229 6.366H6.72029L7.48029 1.844C7.63229 0.855999 8.46829 0.209998 9.45629 0.209998C10.7103 0.209998 11.5843 1.35 11.4323 2.528L10.7483 6.366H16.7143L17.4743 1.844C17.6263 0.855999 18.4623 0.209998 19.4883 0.209998C20.7043 0.209998 21.6163 1.35 21.4263 2.528L20.7803 6.366H22.5283C23.5923 6.366 24.5043 7.24 24.5043 8.342C24.5043 9.406 23.5923 10.318 22.5283 10.318H20.0963L18.9563 16.93H21.1223C22.2243 16.93 23.0983 17.804 23.0983 18.906C23.0983 19.97 22.2243 20.882 21.1223 20.882H18.2723L17.4743 25.556C17.3223 26.506 16.4863 27.19 15.4983 27.19C14.2443 27.19 13.3323 26.05 13.5223 24.872L14.2443 20.882H8.27829L7.48029 25.556C7.32829 26.392 6.60629 27.19 5.46629 27.19C4.25029 27.19 3.33829 26.164 3.52829 24.872ZM8.96229 16.93H14.8903L16.0303 10.318H10.1023L8.96229 16.93Z" fill="white"/>
</svg>
