<svg width="34" height="34" viewBox="0 0 34 34" fill="none" xmlns="http://www.w3.org/2000/svg">
<path fill-rule="evenodd" clip-rule="evenodd" d="M20.1449 29.238C19.5877 30.4919 18.3062 31.2599 16.9424 31.1652C11.9032 31.145 7.25207 28.4487 4.73098 24.082C2.20035 19.6988 2.20035 14.2985 4.73098 9.91536C7.26161 5.53218 11.9384 2.83203 16.9997 2.83203C24.6622 2.83203 31.1663 8.38815 31.1663 15.582C31.1663 17.5181 30.2997 19.3358 28.8237 20.6478C27.3531 21.955 25.3908 22.6654 23.3747 22.6654H19.833L19.8102 22.6652C19.1599 22.6547 18.5861 23.0883 18.4185 23.7166C18.251 24.345 18.5327 25.0067 19.1018 25.3214C19.2012 25.3764 19.2936 25.4431 19.377 25.5201C20.4031 26.4669 20.712 27.9622 20.1449 29.238ZM16.9997 8.4987C15.8261 8.4987 14.8747 9.45009 14.8747 10.6237C14.8747 11.7973 15.8261 12.7487 16.9997 12.7487C18.1733 12.7487 19.1247 11.7973 19.1247 10.6237C19.1247 9.45009 18.1733 8.4987 16.9997 8.4987ZM10.6247 12.7487C9.45107 12.7487 8.49967 13.7001 8.49967 14.8737C8.49967 16.0473 9.45107 16.9987 10.6247 16.9987C11.7983 16.9987 12.7497 16.0473 12.7497 14.8737C12.7497 13.7001 11.7983 12.7487 10.6247 12.7487ZM23.3747 12.7487C22.2011 12.7487 21.2497 13.7001 21.2497 14.8737C21.2497 16.0473 22.2011 16.9987 23.3747 16.9987C24.5483 16.9987 25.4997 16.0473 25.4997 14.8737C25.4997 13.7001 24.5483 12.7487 23.3747 12.7487Z" fill="white"/>
</svg>
