<svg width="16" height="15" viewBox="0 0 16 15" fill="none" xmlns="http://www.w3.org/2000/svg">
<path d="M12.6812 9.49398C12.4895 9.67654 12.4014 9.94056 12.4451 10.1995L13.1032 13.7779C13.1587 14.0812 13.0284 14.3882 12.77 14.5635C12.5169 14.7453 12.18 14.7671 11.9039 14.6216L8.62528 12.9415C8.51128 12.8819 8.38469 12.8499 8.25515 12.8462H8.05453C7.98495 12.8564 7.91684 12.8782 7.85466 12.9117L4.57527 14.5998C4.41315 14.6798 4.22957 14.7082 4.04968 14.6798C3.61144 14.5984 3.31904 14.1882 3.39084 13.7554L4.04968 10.1769C4.09336 9.91583 4.00527 9.65036 3.81354 9.46489L1.14043 6.91924C0.916868 6.70614 0.83914 6.38611 0.941297 6.09736C1.04049 5.80934 1.29366 5.59914 1.5994 5.55187L5.27853 5.02746C5.55835 4.9991 5.80412 4.83181 5.92996 4.58452L7.55115 1.31882C7.58964 1.24609 7.63924 1.17918 7.6992 1.12244L7.76583 1.07153C7.80062 1.03371 7.8406 1.00244 7.88501 0.976979L7.9657 0.947886L8.09155 0.896973H8.4032C8.68154 0.925338 8.92657 1.08899 9.05464 1.33337L10.6973 4.58452C10.8157 4.82236 11.046 4.98746 11.3117 5.02746L14.9908 5.55187C15.3018 5.59551 15.5616 5.80643 15.6645 6.09736C15.7615 6.38902 15.6778 6.70905 15.4498 6.91924L12.6812 9.49398Z" fill="#FFB800"/>
</svg>
