<svg width="73" height="67" viewBox="0 0 73 67" fill="none" xmlns="http://www.w3.org/2000/svg">
<path d="M15.5131 17.1257C11.3158 17.1257 7.91797 13.7279 7.91797 9.53065C7.91797 5.33336 11.3158 1.93555 15.5131 1.93555C19.7104 1.93555 23.1082 5.33336 23.1082 9.53065C23.1082 13.8279 19.7104 17.1257 15.5131 17.1257Z" fill="#FFC800"/>
<path d="M11.6156 66.1951C9.91667 66.1951 8.51758 64.796 8.51758 63.0971V43.5098H14.8135V62.9972C14.8135 64.796 13.4144 66.1951 11.6156 66.1951Z" fill="#FFC800"/>
<path d="M19.5101 66.1951C17.8112 66.1951 16.4121 64.796 16.4121 63.0971V43.5098H22.6081V62.9972C22.6081 64.796 21.209 66.1951 19.5101 66.1951Z" fill="#FFC800"/>
<path d="M31.1024 36.8146L27.4048 25.0222C26.5054 21.3246 23.2075 18.8262 19.41 18.8262H11.8149C8.01734 18.8262 4.71947 21.3246 3.72011 25.0222L0.122436 36.8146C-0.277306 38.1137 0.322307 39.5128 1.62147 40.1124C1.92128 40.2124 2.22108 40.3123 2.52089 40.3123C3.72012 40.3123 4.71947 39.5128 5.01928 38.4135L8.61695 27.0209C8.71689 26.6211 9.0167 26.3213 9.41644 26.3213C9.81618 26.3213 10.116 26.821 9.81618 27.9203C9.11663 30.9184 5.71882 44.4097 5.21915 46.4084C5.11921 46.6082 5.21915 46.9081 5.41902 47.1079C5.51895 47.3078 5.81876 47.4077 6.01863 47.4077H25.4061C25.606 47.4077 25.8059 47.3078 26.0057 47.1079C26.2056 46.9081 26.2056 46.7082 26.2056 46.4084C25.8059 44.4097 22.3081 30.9184 21.6086 27.9203C21.3088 26.821 21.6086 26.3213 22.0083 26.3213C22.4081 26.3213 22.7079 26.6211 22.8078 27.0209L26.3055 38.3136C26.6053 39.4129 27.6047 40.2124 28.8039 40.2124C29.1037 40.2124 29.4035 40.1124 29.7033 40.0125C30.9026 39.5128 31.5022 38.1137 31.1024 36.8146Z" fill="#FFC800"/>
<path d="M26.605 1.23702C27.6044 2.33631 28.104 3.83535 28.104 5.33438C28.104 7.9327 28.6037 9.13193 29.0035 9.53167C29.1034 9.63161 29.0035 9.73154 29.0035 9.83148H28.9035C24.1066 10.1313 22.4077 7.43303 21.7082 6.53361C20.3091 5.03458 20.2091 2.83599 21.4084 1.13709C22.8075 -0.361943 25.106 -0.361943 26.5051 1.03715C26.5051 1.13709 26.5051 1.13709 26.605 1.23702Z" fill="#FFC800"/>
<path d="M4.52002 1.23702C3.52066 2.33631 3.02099 3.83535 3.02099 5.33438C3.02099 7.9327 2.52131 9.13193 2.12156 9.53167C2.02163 9.63161 2.12156 9.73154 2.12156 9.83148H2.2215C7.0184 10.1313 8.71731 7.43303 9.41686 6.53361C10.9159 4.63483 10.816 2.33632 9.71666 1.13709C8.31757 -0.361943 6.01905 -0.361943 4.61995 1.03715C4.61995 1.13709 4.52002 1.13709 4.52002 1.23702Z" fill="#FFC800"/>
<path d="M71.2439 59.7022H68.7923C69.984 58.9296 70.5819 57.4411 70.1626 56.0083L66.0139 41.834C65.6025 40.428 64.313 39.4619 62.8481 39.4619C61.7662 39.4619 58.4419 39.4619 57.3604 39.4619V35.5315C58.7653 34.8852 62.9691 32.9515 65.0151 32.0102C66.3944 31.3758 66.9982 29.7433 66.3636 28.364C65.7292 26.9848 64.0967 26.381 62.7174 27.0155C61.5561 27.5497 58.3585 29.0206 57.3604 29.4798V25.461C57.3604 22.8711 55.261 20.7715 52.6709 20.7715H46.8008C44.2109 20.7715 42.1112 22.871 42.1112 25.461V28.3428L45.3577 25.9592L40.0677 31.8384C39.1678 32.8386 39.124 34.3432 39.9644 35.3939L47.589 44.9281C47.66 45.0167 47.7354 45.0995 47.8144 45.1769V48.5706C48.1524 48.4874 48.5052 48.4425 48.8684 48.4425C49.2317 48.4425 49.5845 48.4875 49.9224 48.5706V45.9526C50.4627 45.9163 50.9977 45.7219 51.4527 45.358C52.6384 44.4098 52.8309 42.68 51.8827 41.4944L45.7148 33.7819L49.4446 29.6365L47.3607 33.2102L50.9885 37.7466C58.467 38.7912 64.124 45.2173 64.124 52.8543C64.124 54.2733 63.9286 55.6474 63.5643 56.9518L63.8305 57.8615C64.0617 58.6514 64.5634 59.2877 65.204 59.7022H62.4979C61.8493 60.9877 61.0243 62.1694 60.0548 63.2154H71.2435C72.2136 63.2154 73 62.4289 73 61.4588C73 60.4887 72.2142 59.7022 71.2439 59.7022Z" fill="#FFC800"/>
<path d="M50.6872 19.0763C50.7016 19.0774 50.7156 19.0794 50.73 19.0804C54.1018 19.3196 57.0142 16.7776 57.2522 13.4226C57.491 10.0591 54.9579 7.139 51.5944 6.90035C48.231 6.66157 45.3109 9.19467 45.0722 12.5582C44.8346 15.9072 47.3453 18.8157 50.6872 19.0763Z" fill="#FFC800"/>
<path d="M52.9197 40.1602C52.9741 40.274 54.7021 41.904 53.9447 44.4611C55.0541 45.1347 56.0187 46.023 56.7837 47.0664L52.0487 49.8002C52.5361 50.3077 52.9033 50.9309 53.1048 51.6244L57.8398 48.8907C58.3776 50.1034 58.6788 51.4435 58.6788 52.8534C58.6788 54.2632 58.3776 55.6033 57.8398 56.8161L53.1048 54.0823C52.9033 54.7758 52.5361 55.399 52.0487 55.9066L56.7837 58.6403C55.193 60.8101 52.7341 62.3047 49.9223 62.6065V57.1372C49.5844 57.2204 49.2317 57.2654 48.8684 57.2654C48.5052 57.2654 48.1524 57.2203 47.8144 57.1372V62.6065C45.0027 62.3047 42.5439 60.8101 40.9532 58.6403L45.6882 55.9066C45.2007 55.399 44.8335 54.7758 44.632 54.0823L39.897 56.8161C39.3593 55.6033 39.058 54.2632 39.058 52.8534C39.058 51.4435 39.3593 50.1035 39.897 48.8907L44.632 51.6244C44.8335 50.9309 45.2007 50.3077 45.6882 49.8002L40.9532 47.0664C41.9239 45.7424 43.2177 44.6705 44.7181 43.9669L42.4777 41.1655C38.3497 43.4317 35.5449 47.8209 35.5449 52.8532C35.5449 60.1999 41.5219 66.1769 48.8684 66.1769C56.2151 66.1769 62.1921 60.1999 62.1921 52.8532C62.1919 46.9188 58.2915 41.8787 52.9197 40.1602Z" fill="#FFC800"/>
<path d="M50.4813 55.4205C51.8944 54.5471 52.3318 52.6935 51.4584 51.2804C50.585 49.8674 48.7314 49.4299 47.3184 50.3033C45.9053 51.1767 45.4678 53.0303 46.3412 54.4434C47.2146 55.8564 49.0682 56.2939 50.4813 55.4205Z" fill="#FFC800"/>
<path d="M30.7814 25.1405C30.4426 24.2302 30.9059 23.2176 31.8163 22.8788C32.7323 22.5379 33.7506 23.0093 34.0833 23.9284L39.9119 40.0268L37.1017 42.1242L30.7814 25.1405Z" fill="#FFC800"/>
</svg>
