<svg width="67" height="76" viewBox="0 0 67 76" fill="none" xmlns="http://www.w3.org/2000/svg">
<path d="M18.1963 3.22051C16.8201 3.12341 15.849 3.70604 15.1727 4.79429C14.0409 6.61585 15.0354 9.18747 17.1081 9.84042C18.8091 10.3762 20.4398 9.82033 21.2702 8.39389C21.8026 7.47976 21.8729 6.5221 21.4477 5.541C21.2334 5.04542 20.8483 4.70723 20.3829 4.45609C20.182 4.3456 20.048 4.2217 20.1183 3.94713C20.3326 3.11336 20.5168 2.26955 20.7177 1.43243C20.7545 1.27505 20.7545 1.09759 21.0358 1.16121C22.5058 1.4994 24.0059 1.65678 25.4893 1.91126C26.678 2.11552 27.8667 2.32312 29.0587 2.50059C29.3467 2.54412 29.4271 2.63453 29.3634 2.9091C29.1927 3.64242 29.0353 4.37908 28.8679 5.11574C28.8009 5.4171 28.6502 5.58788 28.2986 5.61131C26.7918 5.71512 25.6266 7.01432 25.6299 8.55796C25.6299 10.8014 27.9136 12.6665 30.1235 12.2882C31.3256 12.0805 32.5579 10.7144 32.5679 9.54576C32.578 8.42402 32.4105 7.386 31.3658 6.72635C31.1381 6.58237 31.1381 6.42499 31.2118 6.18725C31.5031 5.26307 31.7844 4.3322 32.0355 3.39798C32.1259 3.06313 32.2733 3.033 32.588 3.07988C34.8717 3.41807 37.1084 3.97392 39.3519 4.49628C40.0015 4.64696 40.6478 4.81773 41.3041 4.93827C41.6188 4.99855 41.6992 5.13583 41.6289 5.42045C41.515 5.87919 41.3978 6.34128 41.3041 6.80337C41.2471 7.08464 41.0328 7.11477 40.8219 7.14491C40.3196 7.21858 39.891 7.44962 39.4691 7.71415C37.152 9.17073 37.7179 12.1341 39.1142 13.4199C40.2627 14.478 42.5196 15.0573 44.2507 14.1767C46.3067 13.132 46.7721 10.7345 45.2251 9.01335C44.8501 8.5948 44.4717 8.17624 43.9192 7.98872C43.6614 7.90166 43.658 7.74429 43.7317 7.53668C43.9226 7.01097 44.1268 6.48861 44.3009 5.95621C44.388 5.68833 44.5353 5.6448 44.7898 5.70507C45.9249 5.96625 47.0601 6.20734 48.1952 6.46517C50.442 6.98084 52.6855 7.5032 54.9323 8.01886C55.8096 8.21977 55.8297 8.2633 55.4915 9.11046C55.3877 9.36829 55.3509 9.64956 55.2839 9.92079C55.2337 10.125 55.1098 10.2088 54.9022 10.1585C53.8407 9.9007 52.9567 10.3293 52.1497 10.9354C50.9443 11.8428 50.9242 13.3429 51.2323 14.3307C51.537 15.3018 52.1765 16.0116 53.0203 16.5474C54.6376 17.572 56.3119 17.629 57.9861 16.7249C59.3657 15.9782 60.0454 14.5752 59.7842 13.1688C59.6302 12.3451 59.2183 11.6921 58.5152 11.2233C58.1971 11.009 57.735 10.8316 57.6245 10.5336C57.4972 10.1853 57.8723 9.79355 58.0129 9.41182C58.0363 9.35155 58.0765 9.29462 58.0899 9.23435C58.1736 8.87941 58.3913 8.83923 58.7161 8.9196C60.1157 9.26784 61.5221 9.60268 62.9251 9.93753C64.0133 10.1987 65.1016 10.4599 66.1932 10.7211C66.6184 10.8215 66.6352 10.8215 66.5146 11.2669C66.1028 12.8072 65.6943 14.3475 65.259 15.8811C63.3671 22.578 61.4551 29.2716 59.5766 35.9718C58.3678 40.288 57.1892 44.6109 56.0273 48.9404C55.0997 52.396 54.2258 55.8617 53.3083 59.3207C52.6051 61.966 51.8685 64.6012 51.1586 67.2431C50.442 69.9052 49.7288 72.5705 49.0256 75.2359C48.7912 76.1199 48.808 76.1166 47.9709 75.8252C42.0675 73.7693 36.2378 71.5124 30.3144 69.5167C22.8607 67.0054 15.3803 64.5744 7.86966 62.2338C5.42193 61.4704 2.97085 60.717 0.523127 59.9569C0.0175089 59.7995 0.0175089 59.7961 0.114614 59.2972C1.14594 53.8627 2.16387 48.4214 3.21529 42.9902C4.23657 37.7063 5.29804 32.4258 6.32601 27.1419C7.2234 22.5344 8.08731 17.9203 8.99809 13.3161C9.42334 11.1631 9.92226 9.02005 10.3877 6.87369C10.8197 4.87465 11.2516 2.87562 11.6735 0.873238C11.8744 -0.0777251 11.8677 -0.0676797 12.8053 0.0629103C14.4259 0.290606 16.0466 0.498211 17.6706 0.715861C17.7979 0.732603 17.9251 0.766088 18.0557 0.766088C18.3403 0.766088 18.424 0.893329 18.3905 1.17125C18.3135 1.83425 18.2633 2.49724 18.1997 3.21716L18.1963 3.22051Z" fill="#FD71AF"/>
<path d="M43.3491 50.5644C41.7117 55.8114 35.5974 59.6622 25.1535 56.4041C20.6766 55.0078 16.0691 52.5634 13.1426 49.6335L19.2468 43.1877C21.5673 45.5919 24.5675 47.2929 27.3166 48.1535C29.7878 48.9236 31.8069 48.6892 32.2958 47.1155C32.7043 45.8029 31.8772 44.6811 29.0813 43.8105L24.745 42.4577L26.7239 36.1158L32.9588 33.0218L21.3028 29.3853L23.7304 21.6035L48.0704 29.1978L46.0915 35.5398L38.2293 39.4207C42.9908 42.1999 44.6717 46.3252 43.3491 50.5677V50.5644Z" fill="white"/>
</svg>
