<svg width="31" height="32" viewBox="0 0 31 32" fill="none" xmlns="http://www.w3.org/2000/svg">
<path fill-rule="evenodd" clip-rule="evenodd" d="M24 32C27.8663 32 31 28.8663 31 25C31 21.1337 27.8663 18 24 18C20.1337 18 17 21.1337 17 25C17 28.8663 20.1337 32 24 32ZM24.9939 21.8568C24.9939 21.1664 24.4343 20.6068 23.7439 20.6068C23.0536 20.6068 22.4939 21.1664 22.4939 21.8568V25.5248C22.4939 25.965 22.7255 26.3728 23.1035 26.5983L25.9565 28.3002C26.5494 28.6539 27.3167 28.46 27.6704 27.8671C28.0241 27.2743 27.8302 26.5069 27.2373 26.1532L24.9939 24.8149V21.8568Z" fill="white"/>
<path fill-rule="evenodd" clip-rule="evenodd" d="M4.35 4.35C4.35 1.94756 6.29756 0 8.7 0H14.5C16.9024 0 18.85 1.94756 18.85 4.35V4.35099C20.4143 4.35781 21.2722 4.41179 21.9112 4.83874C22.2278 5.05032 22.4997 5.32219 22.7113 5.63885C23.2 6.37029 23.2 7.38853 23.2 9.425V15.0315C18.0509 15.439 14 19.746 14 25C14 26.4222 14.2968 27.7751 14.832 29H5.8C3.06585 29 1.69878 29 0.84939 28.1506C0 27.3012 0 25.9341 0 23.2V9.425C0 7.38853 0 6.37029 0.488738 5.63885C0.700318 5.32219 0.972195 5.05032 1.28885 4.83874C1.92783 4.41179 2.78567 4.35781 4.35 4.35099V4.35ZM10.15 2.9C9.34916 2.9 8.69998 3.54919 8.69998 4.35C8.69998 5.15081 9.34916 5.8 10.15 5.8H13.05C13.8508 5.8 14.5 5.15081 14.5 4.35C14.5 3.54919 13.8508 2.9 13.05 2.9H10.15ZM4 14.5C4 13.8096 4.55964 13.25 5.25 13.25H13.95C14.6404 13.25 15.2 13.8096 15.2 14.5C15.2 15.1904 14.6404 15.75 13.95 15.75H5.25C4.55964 15.75 4 15.1904 4 14.5ZM4 20.3C4 19.6096 4.55964 19.05 5.25 19.05L11.05 19.05C11.7404 19.05 12.3 19.6096 12.3 20.3C12.3 20.9904 11.7404 21.55 11.05 21.55L5.25 21.55C4.55964 21.55 4 20.9904 4 20.3Z" fill="white"/>
</svg>
