<svg width="36" height="36" viewBox="0 0 36 36" fill="none" xmlns="http://www.w3.org/2000/svg">
<g clip-path="url(#clip0_2713_11641)">
<path d="M29.2972 6.69238C25.8428 6.69238 22.9906 9.31905 22.6323 12.6799C25.1395 14.2353 26.8128 17.0125 26.8128 20.1737V24.6925C26.8128 26.3409 26.07 27.8562 24.8534 28.8657V34.9346C24.8534 35.5171 25.3256 35.9893 25.9081 35.9893H32.6862C33.2687 35.9893 33.7409 35.5171 33.7409 34.9346V24.4454C35.0529 24.0038 36.0003 22.7622 36.0003 21.3033V13.3955C36.0003 9.69944 32.9932 6.69238 29.2972 6.69238Z" fill="white"/>
<path d="M29.2969 6.693C31.1449 6.693 32.6485 5.1895 32.6485 3.34141C32.48 -1.09882 26.1131 -1.09756 25.9453 3.34148C25.9453 5.1895 27.4488 6.693 29.2969 6.693Z" fill="white"/>
<path d="M21.3517 10.1201C21.3517 8.27205 19.8482 6.76855 18.0001 6.76855C13.5599 6.93702 13.5611 13.3039 18.0002 13.4717C19.8482 13.4717 21.3517 11.9682 21.3517 10.1201Z" fill="white"/>
<path d="M17.9998 13.4707C14.5454 13.4707 11.6933 16.0974 11.335 19.4582C13.8421 21.0136 15.5155 23.7908 15.5155 26.952V28.0816C15.5155 29.73 14.7726 31.2454 13.5561 32.2549V34.9348C13.5561 35.5173 14.0283 35.9895 14.6108 35.9895H21.3889C21.9713 35.9895 22.4436 35.5173 22.4436 34.9348V27.8346C23.7555 27.3931 24.7029 26.1515 24.7029 24.6926V20.1738C24.7029 16.4777 21.6959 13.4707 17.9998 13.4707Z" fill="white"/>
<path d="M6.7031 20.249C2.9944 20.249 0 23.2509 0 26.9521V28.0818C0 29.5407 0.947391 30.7823 2.25935 31.2238V34.9349C2.25935 35.5174 2.73157 35.9896 3.31404 35.9896H10.0922C10.6746 35.9896 11.1469 35.5174 11.1469 34.9349V31.2238C12.4588 30.7823 13.4062 29.5407 13.4062 28.0818V26.9521C13.4063 23.244 10.4052 20.249 6.7031 20.249Z" fill="white"/>
<path d="M6.70315 20.2496C8.55117 20.2496 10.0547 18.7461 10.0547 16.8981C9.88626 12.4578 3.5194 12.4591 3.35156 16.8981C3.35163 18.7461 4.85512 20.2496 6.70315 20.2496Z" fill="white"/>
</g>
<defs>
<clipPath id="clip0_2713_11641">
<rect width="36" height="36" fill="white"/>
</clipPath>
</defs>
</svg>
