<svg width="18" height="15" viewBox="0 0 18 15" fill="none" xmlns="http://www.w3.org/2000/svg">
<path d="M1.60616 6.69006C6.16955 4.70187 9.21253 3.39112 10.7351 2.75784C15.0823 0.949679 15.9856 0.635583 16.5744 0.625101C16.7039 0.62293 16.9934 0.655022 17.181 0.807207C17.3393 0.935709 17.3829 1.1093 17.4038 1.23113C17.4246 1.35296 17.4506 1.63051 17.4299 1.84737C17.1944 4.3226 16.175 10.3293 15.6564 13.1016C15.437 14.2747 15.0049 14.668 14.5867 14.7065C13.6776 14.7902 12.9873 14.1058 12.1069 13.5286C10.7291 12.6255 9.9508 12.0633 8.61347 11.182C7.06795 10.1635 8.06985 9.60376 8.95063 8.68894C9.18114 8.44953 13.1864 4.80643 13.2639 4.47594C13.2736 4.43461 13.2826 4.28054 13.1911 4.19918C13.0996 4.11783 12.9645 4.14565 12.867 4.16778C12.7288 4.19914 10.5279 5.65388 6.26413 8.53202C5.6394 8.96101 5.07354 9.17002 4.56654 9.15907C4.00762 9.14699 2.93248 8.84305 2.13323 8.58324C1.15291 8.26458 0.373773 8.0961 0.441618 7.55491C0.476956 7.27303 0.865138 6.98474 1.60616 6.69006Z" fill="white"/>
</svg>
