<svg width="27" height="27" viewBox="0 0 27 27" fill="none" xmlns="http://www.w3.org/2000/svg">
<path d="M16.4171 4.61378C15.7877 4.49752 15.2098 4.89913 15.0899 5.51344C14.9701 6.12775 15.373 6.72752 15.9852 6.84774C17.8284 7.20707 19.2516 8.63385 19.6124 10.4834V10.4847C19.7151 11.0171 20.1838 11.4042 20.7236 11.4042C20.796 11.4042 20.8684 11.3976 20.9421 11.3844C21.5543 11.2615 21.9572 10.663 21.8374 10.0474C21.2989 7.28502 19.1726 5.15146 16.4171 4.61378Z" fill="white"/>
<path d="M16.3347 0.0104831C16.0398 -0.0317917 15.7436 0.0554001 15.5079 0.242995C15.2657 0.433231 15.1143 0.708018 15.0814 1.01583C15.0116 1.63806 15.4605 2.20085 16.082 2.27086C20.3674 2.7491 23.6984 6.08749 24.1802 10.3863C24.2447 10.9623 24.7279 11.3969 25.3046 11.3969C25.348 11.3969 25.3902 11.3943 25.4336 11.389C25.7351 11.356 26.0037 11.2067 26.1933 10.9689C26.3816 10.7311 26.4671 10.4352 26.4329 10.1327C25.8325 4.76904 21.6814 0.606294 16.3347 0.0104831Z" fill="white"/>
<path fill-rule="evenodd" clip-rule="evenodd" d="M11.9399 14.5067C17.2135 19.7788 18.4098 13.6796 21.7675 17.0349C25.0046 20.2711 26.8651 20.9194 22.7638 25.0196C22.25 25.4325 18.986 30.3995 7.51502 18.9318C-3.95736 7.46259 1.00681 4.1952 1.41978 3.68162C5.53105 -0.429928 6.16825 1.44141 9.40532 4.67758C12.763 8.03435 6.66637 9.23461 11.9399 14.5067Z" fill="white"/>
</svg>
