<svg width="28" height="28" viewBox="0 0 28 28" fill="none" xmlns="http://www.w3.org/2000/svg">
<path fill-rule="evenodd" clip-rule="evenodd" d="M14 28C21.7325 28 28 21.7325 28 14C28 6.26746 21.7325 0 14 0C6.26746 0 0 6.26746 0 14C0 21.7325 6.26746 28 14 28ZM14.7378 7.71289C14.7378 7.02253 14.1781 6.46289 13.4878 6.46289C12.7974 6.46289 12.2378 7.02253 12.2378 7.71289V15.0489C12.2378 15.4891 12.4693 15.8969 12.8474 16.1224L18.5533 19.5263C19.1462 19.88 19.9136 19.6861 20.2672 19.0932C20.6209 18.5003 20.427 17.733 19.8341 17.3793L14.7378 14.3391V7.71289Z" fill="white"/>
</svg>
