<svg width="29" height="34" viewBox="0 0 29 34" fill="none" xmlns="http://www.w3.org/2000/svg">
<path fill-rule="evenodd" clip-rule="evenodd" d="M22 34C25.8663 34 29 30.8663 29 27C29 23.1337 25.8663 20 22 20C18.1337 20 15 23.1337 15 27C15 30.8663 18.1337 34 22 34ZM25.1339 26.3839C25.622 25.8957 25.622 25.1043 25.1339 24.6161C24.6457 24.128 23.8543 24.128 23.3661 24.6161L21.25 26.7322L20.6339 26.1161C20.1457 25.628 19.3543 25.628 18.8661 26.1161C18.378 26.6043 18.378 27.3957 18.8661 27.8839L20.3661 29.3839C20.8543 29.872 21.6457 29.872 22.1339 29.3839L25.1339 26.3839Z" fill="white"/>
<path fill-rule="evenodd" clip-rule="evenodd" d="M12.0001 15.8747C16.4087 15.8747 19.941 12.3421 19.941 7.93658C19.941 3.53104 16.4087 0 12.0001 0C7.59291 0 4.05908 3.53104 4.05908 7.93658C4.05908 12.3421 7.59291 15.8747 12.0001 15.8747ZM0 24.8623C0 28.9423 5.49356 29.9998 12 29.9998C12.1529 29.9998 12.3053 29.9993 12.4571 29.9981C12.1601 29.0516 12 28.0445 12 27C12 24.1975 13.1526 21.6644 15.0096 19.8489C14.0441 19.7875 13.0349 19.7607 12 19.7607C5.52807 19.7607 0 20.7808 0 24.8623Z" fill="white"/>
</svg>
