<svg width="30" height="27" viewBox="0 0 30 27" fill="none" xmlns="http://www.w3.org/2000/svg">
<path fill-rule="evenodd" clip-rule="evenodd" d="M18.3186 7.14362C18.3186 11.1093 15.0735 14.2872 11.024 14.2872C6.97608 14.2872 3.72949 11.1093 3.72949 7.14362C3.72949 3.17798 6.97608 0 11.024 0C15.0735 0 18.3186 3.17798 18.3186 7.14362ZM0 22.3759C0 18.705 5.07829 17.7865 11.024 17.7865C17.002 17.7865 22.048 18.7366 22.048 22.4104C22.048 26.0814 16.9697 26.9999 11.024 26.9999C5.046 26.9999 0 26.0498 0 22.3759ZM21.2601 7.2731C21.2601 9.29257 20.6407 11.1769 19.5546 12.7422C19.4416 12.9032 19.5414 13.1202 19.7381 13.1547C20.0111 13.1993 20.2914 13.2266 20.5776 13.2323C23.425 13.3056 25.9803 11.5104 26.6862 8.80675C27.7327 4.79511 24.6623 1.19312 20.7508 1.19312C20.3266 1.19312 19.9201 1.23624 19.5238 1.31529C19.4695 1.32679 19.4108 1.35266 19.3814 1.39866C19.3433 1.45759 19.3712 1.53377 19.4093 1.58407C20.585 3.19822 21.2601 5.16307 21.2601 7.2731ZM25.9758 16.0533C27.8897 16.4198 29.1476 17.1658 29.6686 18.2539C30.1104 19.145 30.1104 20.1799 29.6686 21.0711C28.8716 22.7556 26.3002 23.2975 25.3007 23.437C25.0937 23.4657 24.9279 23.2932 24.9499 23.0891C25.4607 18.4206 21.3995 16.2071 20.3486 15.6983C20.3046 15.6738 20.2943 15.6393 20.2987 15.6163C20.3017 15.602 20.3207 15.579 20.3545 15.5747C22.628 15.5315 25.0732 15.8377 25.9758 16.0533Z" fill="white"/>
</svg>
