<svg width="54" height="54" viewBox="0 0 54 54" fill="none" xmlns="http://www.w3.org/2000/svg">
<rect width="54" height="54" rx="15.6" fill="#3BC4FF"/>
<path d="M26.781 41.9992C30.6889 41.995 34.4356 40.4407 37.1989 37.6773C39.9622 34.9139 41.5164 31.1672 41.5205 27.2592C41.5243 25.8009 41.3086 24.3504 40.8808 22.9562C40.8405 22.8099 40.7712 22.6732 40.677 22.5541C40.5829 22.4351 40.4658 22.3362 40.3327 22.2633C40.1996 22.1903 40.0532 22.1449 39.9022 22.1296C39.7512 22.1144 39.5987 22.1296 39.4537 22.1744C39.3087 22.2192 39.1741 22.2926 39.0581 22.3904C38.942 22.4882 38.8467 22.6082 38.7779 22.7435C38.7092 22.8788 38.6682 23.0265 38.6576 23.1779C38.647 23.3293 38.6669 23.4813 38.7162 23.6249C39.0759 24.8028 39.2572 26.0279 39.254 27.2595C39.254 29.7265 38.5224 32.1381 37.1517 34.1894C35.7811 36.2406 33.8329 37.8393 31.5537 38.7834C29.2744 39.7274 26.7664 39.9744 24.3468 39.493C21.9271 39.0117 19.7046 37.8236 17.9602 36.0791C16.2158 34.3346 15.0278 32.112 14.5466 29.6923C14.0654 27.2727 14.3125 24.7647 15.2567 22.4855C16.2008 20.2062 17.7996 18.2582 19.851 16.8877C21.9023 15.5171 24.3139 14.7856 26.781 14.7857C28.0123 14.7823 29.2372 14.9642 30.4144 15.3253C30.7016 15.4142 31.0123 15.3855 31.2782 15.2453C31.5442 15.1051 31.7435 14.8651 31.8325 14.5779C31.9214 14.2908 31.8926 13.9801 31.7525 13.7141C31.6123 13.4482 31.3723 13.2488 31.0851 13.1599C29.6906 12.732 28.2397 12.5162 26.781 12.5196C24.8418 12.5142 22.9207 12.8915 21.1276 13.6299C19.3346 14.3682 17.7048 15.4531 16.3317 16.8224C14.9587 18.1916 13.8693 19.8184 13.1259 21.6094C12.3826 23.4004 12 25.3205 12 27.2596C12 29.1988 12.3826 31.1188 13.1259 32.9099C13.8693 34.7009 14.9587 36.3276 16.3317 37.6969C17.7048 39.0662 19.3346 40.1511 21.1276 40.8894C22.9207 41.6278 24.8418 42.0046 26.781 41.9992Z" fill="white"/>
<path d="M26.7812 21.5895C26.8354 21.5901 26.8863 21.5857 26.9228 21.5907C27.2177 21.6494 27.5238 21.5885 27.7738 21.4215C28.0237 21.2546 28.1972 20.9951 28.2559 20.7003C28.3146 20.4054 28.2537 20.0993 28.0868 19.8494C27.9198 19.5994 27.6603 19.4259 27.3655 19.3672C27.1726 19.3337 26.9769 19.3188 26.7812 19.3229C25.2114 19.3229 23.6769 19.7883 22.3717 20.6604C21.0665 21.5325 20.0492 22.772 19.4484 24.2223C18.8477 25.6725 18.6905 27.2683 18.9967 28.8079C19.303 30.3475 20.0589 31.7617 21.1688 32.8717C22.2788 33.9817 23.693 34.7376 25.2326 35.0438C26.7722 35.3501 28.368 35.1929 29.8183 34.5921C31.2685 33.9914 32.5081 32.9741 33.3802 31.6689C34.2522 30.3637 34.7177 28.8291 34.7176 27.2594C34.7215 27.0652 34.7071 26.871 34.6745 26.6795C34.6192 26.3944 34.4531 26.143 34.2126 25.9804C33.972 25.8178 33.6768 25.7573 33.3917 25.8123C33.0997 25.8662 32.8393 26.0297 32.6638 26.2692C32.4883 26.5088 32.411 26.8064 32.4476 27.1011C32.4522 27.1538 32.4533 27.2068 32.451 27.2597C32.451 28.3811 32.1185 29.4773 31.4955 30.4098C30.8725 31.3422 29.987 32.0689 28.9509 32.498C27.9149 32.9272 26.7749 33.0394 25.675 32.8207C24.5752 32.6019 23.5649 32.0619 22.772 31.2689C21.979 30.476 21.439 29.4657 21.2202 28.3659C21.0015 27.266 21.1137 26.126 21.5429 25.09C21.972 24.0539 22.6987 23.1684 23.6311 22.5454C24.5636 21.9224 25.6598 21.5895 26.7812 21.5895Z" fill="white"/>
<path d="M25.9798 26.4576C25.7673 26.6702 25.6479 26.9584 25.6479 27.2589C25.6479 27.5595 25.7673 27.8477 25.9798 28.0602C26.1941 28.2694 26.4817 28.3866 26.7811 28.3866C27.0806 28.3866 27.3682 28.2694 27.5824 28.0602L35.7545 19.8881H40.0962C40.245 19.8882 40.3924 19.8589 40.5299 19.8019C40.6674 19.7449 40.7923 19.6614 40.8975 19.5561L45.7073 14.7463C45.8658 14.5878 45.9737 14.3859 46.0175 14.166C46.0612 13.9462 46.0388 13.7184 45.953 13.5113C45.8672 13.3042 45.722 13.1272 45.5357 13.0027C45.3493 12.8781 45.1302 12.8116 44.9061 12.8116H41.2294V9.13339C41.2295 8.90926 41.163 8.69014 41.0385 8.50377C40.914 8.31739 40.737 8.17212 40.53 8.08632C40.3229 8.00052 40.095 7.97805 39.8752 8.02175C39.6554 8.06544 39.4534 8.17335 39.2949 8.33181L34.484 13.1431C34.2714 13.3556 34.152 13.6438 34.1519 13.9443V18.2855L25.9798 26.4576ZM36.4185 14.4136L38.9629 11.8693V13.9443C38.9629 14.2449 39.0823 14.5332 39.2948 14.7457C39.5073 14.9582 39.7956 15.0776 40.0962 15.0776H42.1701L39.627 17.6216H36.4185V14.4136Z" fill="white"/>
</svg>
