<svg width="186" height="66" viewBox="0 0 186 66" fill="none" xmlns="http://www.w3.org/2000/svg">
<rect opacity="0.2" y="14" width="186" height="37" rx="18.5" fill="#AECF55"/>
<circle cx="93" cy="33" r="33" fill="#AECF55"/>
<path d="M95.7136 25.6947C95.1795 25.5961 94.6889 25.9369 94.5872 26.4583C94.4856 26.9797 94.8275 27.4887 95.3471 27.5907C96.9114 27.8957 98.1193 29.1066 98.4255 30.6764V30.6775C98.5127 31.1293 98.9105 31.4579 99.3686 31.4579C99.4301 31.4579 99.4915 31.4522 99.5541 31.441C100.074 31.3368 100.416 30.8288 100.314 30.3064C99.8569 27.9619 98.0523 26.1511 95.7136 25.6947Z" fill="white"/>
<path d="M95.6441 21.7882C95.3938 21.7523 95.1423 21.8263 94.9423 21.9855C94.7367 22.147 94.6082 22.3802 94.5803 22.6415C94.5211 23.1695 94.9021 23.6472 95.4295 23.7066C99.0667 24.1125 101.894 26.9459 102.303 30.5943C102.357 31.0832 102.767 31.4521 103.257 31.4521C103.294 31.4521 103.33 31.4498 103.366 31.4453C103.622 31.4173 103.85 31.2906 104.011 31.0888C104.171 30.887 104.244 30.6358 104.215 30.3791C103.705 25.8269 100.182 22.2939 95.6441 21.7882Z" fill="white"/>
<path fill-rule="evenodd" clip-rule="evenodd" d="M91.9139 34.0914C96.3896 38.5659 97.405 33.3894 100.255 36.2371C103.002 38.9837 104.581 39.534 101.1 43.0139C100.664 43.3643 97.894 47.5799 88.1584 37.847C78.4216 28.1129 82.6348 25.3398 82.9853 24.9039C86.4746 21.4144 87.0154 23.0026 89.7627 25.7492C92.6125 28.5982 87.4381 29.6169 91.9139 34.0914Z" fill="white"/>
<line x1="149.5" y1="24.5" x2="149.5" y2="39.5" stroke="#AECF55" stroke-width="3" stroke-linecap="round"/>
<line x1="25.5" y1="24.5" x2="25.5" y2="39.5" stroke="#AECF55" stroke-width="3" stroke-linecap="round"/>
<line x1="171.5" y1="24.5" x2="171.5" y2="39.5" stroke="#AECF55" stroke-width="3" stroke-linecap="round"/>
<line x1="47.5" y1="24.5" x2="47.5" y2="39.5" stroke="#AECF55" stroke-width="3" stroke-linecap="round"/>
<line x1="138.5" y1="28.5" x2="138.5" y2="35.5" stroke="#AECF55" stroke-width="3" stroke-linecap="round"/>
<line x1="14.5" y1="28.5" x2="14.5" y2="35.5" stroke="#AECF55" stroke-width="3" stroke-linecap="round"/>
<line x1="160.5" y1="28.5" x2="160.5" y2="35.5" stroke="#AECF55" stroke-width="3" stroke-linecap="round"/>
<line x1="36.5" y1="28.5" x2="36.5" y2="35.5" stroke="#AECF55" stroke-width="3" stroke-linecap="round"/>
</svg>
