<svg width="18" height="18" viewBox="0 0 18 18" fill="none" xmlns="http://www.w3.org/2000/svg">
<path fill-rule="evenodd" clip-rule="evenodd" d="M4.797 0H13.194C16.254 0 18 1.728 18 4.797V13.203C18 16.254 16.263 18 13.203 18H4.797C1.728 18 0 16.254 0 13.203V4.797C0 1.728 1.728 0 4.797 0ZM9.7375 9.74754H12.2935C12.7075 9.73854 13.0405 9.40554 13.0405 8.99154C13.0405 8.57754 12.7075 8.24454 12.2935 8.24454H9.7375V5.70654C9.7375 5.29254 9.4045 4.95954 8.9905 4.95954C8.5765 4.95954 8.2435 5.29254 8.2435 5.70654V8.24454H5.6965C5.4985 8.24454 5.3095 8.32554 5.1655 8.46054C5.0305 8.60454 4.9495 8.79264 4.9495 8.99154C4.9495 9.40554 5.2825 9.73854 5.6965 9.74754H8.2435V12.2945C8.2435 12.7085 8.5765 13.0415 8.9905 13.0415C9.4045 13.0415 9.7375 12.7085 9.7375 12.2945V9.74754Z" fill="#7B68EE"/>
</svg>
