<svg width="74" height="70" viewBox="0 0 74 70" fill="none" xmlns="http://www.w3.org/2000/svg">
<path d="M60.675 14.1621L65.1116 58.6044V58.6729L56.2536 65.6588C49.7623 66.5416 40.95 67.508 33.2563 67.5537C17.6482 67.6526 2.3826 64.0912 1.90317 63.977H1.89556L0.0996094 19.0021L7.83134 14.1165C7.83134 14.1165 46.315 16.6506 60.6674 14.1621H60.675Z" fill="#FF8A00"/>
<path d="M10.274 2.0166L3.25001 6.06511C1.21053 7.24465 -0.0298923 9.42872 0.000547638 11.7802L0.0994773 19.0097L8.84334 13.4392L10.274 2.02421V2.0166Z" fill="#7B68EE"/>
<path d="M8.23463 5.15222C8.01394 8.78218 7.78564 14.2157 7.78564 14.2157L63.0036 13.3938L62.6231 4.77933C62.5242 2.53439 60.6521 0.784096 58.4072 0.837366L11.5754 1.92559C9.79468 1.96364 8.34117 3.37149 8.23463 5.15222Z" fill="#5342B9"/>
<path d="M1.88795 63.9772L11.0428 58.0491L7.78568 14.208L0.0996094 19.0099L1.88795 63.9772Z" fill="#FFA234"/>
<path d="M63.0036 13.386C63.0036 13.386 62.547 36.6421 73.1249 51.9914C73.1249 51.9914 47.5858 59.8677 17.8689 54.7842C17.8689 54.7842 8.91192 38.537 7.78564 14.2079C7.78564 14.2079 40.2726 14.2079 63.0036 13.386Z" fill="#FFC800"/>
<path d="M65.2326 58.5815L65.1109 58.6728L56.2453 65.6588L52.2729 68.7865C52.2729 68.7865 16.7038 73.0633 1.89482 63.9846H1.88721L11.0344 58.0564C11.0344 58.0564 31.1552 66.8079 65.1033 58.6119C65.1489 58.6119 65.187 58.5891 65.225 58.5815H65.2326Z" fill="#F56801"/>
<path d="M37.8846 26.4067L37.8599 26.4232V26.4067C37.8599 26.4067 37.8763 26.4067 37.8846 26.4067Z" fill="#F2A711"/>
<path d="M25.6539 21.5267L26.5442 30.4151C19.7485 32.0589 15.7305 30.301 15.7305 30.301L15.0836 21.5343L13.5464 22.4932L15.0912 21.5115C15.0912 21.5115 22.7925 22.0213 25.6615 21.5191L25.6539 21.5267Z" fill="white"/>
<path d="M41.5962 21.4884L42.4866 30.3768C35.6909 32.0206 31.6728 30.2627 31.6728 30.2627L31.026 21.496L29.4888 22.4548L31.0336 21.4731C31.0336 21.4731 38.7349 21.983 41.6038 21.4808L41.5962 21.4884Z" fill="white"/>
<path d="M57.6763 21.1993L58.5667 30.0878C51.771 31.7315 47.7529 29.9736 47.7529 29.9736L47.1061 21.2069L45.5688 22.1658L47.1137 21.1841C47.1137 21.1841 54.815 21.694 57.6839 21.1917L57.6763 21.1993Z" fill="white"/>
<path d="M26.9922 35.9627L27.8826 44.8512C21.0869 46.4949 17.0688 44.737 17.0688 44.737L16.422 35.9703L14.8848 36.9292L16.4296 35.9475C16.4296 35.9475 24.1309 36.4574 26.9998 35.9551L26.9922 35.9627Z" fill="white"/>
<path d="M42.9434 35.9246L43.8338 44.8131C37.0381 46.4568 33.02 44.6989 33.02 44.6989L32.3732 35.9323L30.8359 36.8911L32.3808 35.9094C32.3808 35.9094 40.0821 36.4193 42.951 35.917L42.9434 35.9246Z" fill="white"/>
<path d="M59.0157 35.6353L59.906 44.5238C53.1103 46.1675 49.0923 44.4096 49.0923 44.4096L48.4454 35.6429L46.9082 36.6018L48.453 35.6201C48.453 35.6201 56.1543 36.13 59.0233 35.6277L59.0157 35.6353Z" fill="white"/>
<path d="M58.5916 27.2058L58.5669 27.2223V27.2058C58.5669 27.2058 58.5834 27.2058 58.5916 27.2058Z" fill="#F2A711"/>
</svg>
