<svg width="24" height="35" viewBox="0 0 24 35" fill="none" xmlns="http://www.w3.org/2000/svg">
<path d="M23.6099 15.9899V16.7795C23.6099 17.9409 22.6812 18.8852 21.5388 18.8852H2.70457C1.56221 18.8852 0.633444 17.9409 0.633444 16.7795V15.9899C0.633444 14.8284 1.56221 13.8841 2.70457 13.8841H21.5388C22.6812 13.8841 23.6099 14.8284 23.6099 15.9899ZM13.1771 6.25128C12.6856 6.25167 11.703 6.25095 9.719 6.25088C9.4337 6.25088 9.202 6.48554 9.20109 6.7756L9.18368 12.3031C9.18277 12.5945 9.41487 12.8313 9.70146 12.8313H13.1608C13.4461 12.8313 13.6777 12.5965 13.6785 12.3064L13.6948 6.77936C13.6957 6.48778 13.4638 6.25108 13.1771 6.25128ZM22.808 1.33007L21.6171 1.00171C20.7576 0.764158 19.869 1.28203 19.6353 2.15591L19.2734 3.5114C19.1979 3.79403 19.3639 4.08502 19.6426 4.15878C19.6697 4.16595 22.9622 5.03772 22.9601 5.0372C23.2348 5.10991 23.5158 4.94422 23.5902 4.66573L23.9433 3.34433C24.1769 2.46644 23.6675 1.56789 22.808 1.33007ZM8.02935 12.1861L5.55307 1.30967C5.34783 0.406449 4.5654 -0.142619 3.82109 0.0324195L1.05162 0.683878C0.296951 0.861548 -0.15287 1.72358 0.0477696 2.60535L0.561408 4.86144C0.625871 5.14472 0.904049 5.32121 1.18268 5.2556C1.81062 5.10774 1.40332 5.20362 2.89304 4.85321C3.17199 4.78741 3.4503 4.96442 3.51437 5.24737C3.5791 5.53099 3.40564 5.81329 3.12669 5.87909C3.11756 5.88126 1.41626 6.28155 1.41626 6.28155C1.1377 6.34715 0.964176 6.62985 1.02864 6.91307L1.6437 9.61511C1.70816 9.89839 1.9864 10.0749 2.26503 10.0093C2.86728 9.86746 2.72437 9.90115 4.46457 9.49172C4.74287 9.42592 5.02118 9.60293 5.0859 9.88589C5.14998 10.1688 4.97652 10.4518 4.69821 10.5176C2.67648 10.9932 3.2716 10.8531 1.99411 11.1539L2.28329 12.4243C2.33791 12.6642 2.54845 12.8336 2.79065 12.832C3.25891 12.8289 4.41272 12.8309 7.52452 12.8312C7.85752 12.8313 8.10443 12.5161 8.02935 12.1861ZM14.2588 4.14516H13.7029L13.7074 2.63694C13.7101 1.73055 12.9877 0.993287 12.088 0.990524C12.0807 0.990524 10.8463 0.986575 10.8389 0.986575C9.94508 0.986575 9.21695 1.71963 9.21436 2.62312L9.20769 4.66982C9.20672 4.96126 9.43882 5.19802 9.72547 5.19802H14.2588C14.8121 5.19802 15.2607 5.65411 15.2607 6.21667V10.7913C15.2607 11.0937 15.5111 11.3363 15.8128 11.3167C16.088 11.2987 16.2963 11.0539 16.2963 10.7734V6.21667C16.2963 5.0726 15.3841 4.14516 14.2588 4.14516ZM22.6784 6.05038C21.6159 5.76913 20.2877 5.41721 19.361 5.17196C19.0863 5.09925 18.8052 5.26494 18.7308 5.54343L16.9618 12.1668C16.8724 12.5016 17.1203 12.8313 17.4614 12.8313H21.0141C21.2478 12.8313 21.4525 12.6721 21.5138 12.4428L23.0477 6.69776C23.1231 6.41506 22.9572 6.12415 22.6784 6.05038ZM3.41794 19.9381C3.1208 19.9381 2.88462 20.1918 2.90093 20.4934L3.38804 32.9213C3.45082 34.0866 4.39965 35 5.54783 35H18.6308C19.779 35 20.7278 34.0866 20.7906 32.9213L21.2777 20.4934C21.294 20.1918 21.0579 19.9381 20.7607 19.9381H3.41794Z" fill="white"/>
</svg>
