<svg width="66" height="66" viewBox="0 0 66 66" fill="none" xmlns="http://www.w3.org/2000/svg">
<path d="M60.4997 46.7503C63.5242 46.7503 66 44.2736 66 41.25V5.50027C66 2.47582 63.5242 0 60.4997 0H5.50027C2.47417 0 0 2.47582 0 5.50027V41.25C0 44.2736 2.47417 46.7503 5.50027 46.7503H10.9997V35.7497H22.0003C25.0247 35.7497 29.7132 34.6434 32.42 33.2904L43.9997 27.4997L46.4599 32.42L34.8793 38.2107C32.8729 39.2147 30.1744 40.0579 27.4997 40.6057V52.2497H0V57.75H5.50027V66H60.4997V57.75H66V52.2497H33V46.7503H60.4997ZM19.2497 30.2503C14.6949 30.2503 10.9997 26.5551 10.9997 22.0003C10.9997 17.4454 14.6949 13.7503 19.2497 13.7503C23.8046 13.7503 27.4997 17.4454 27.4997 22.0003C27.4997 26.5551 23.8046 30.2503 19.2497 30.2503ZM30.2503 12.375V8.25H57.75V12.375H30.2503ZM35.7497 20.625V16.5H57.75V20.625H35.7497Z" fill="#7B68EE"/>
</svg>
