<svg width="53" height="69" viewBox="0 0 53 69" fill="none" xmlns="http://www.w3.org/2000/svg">
<path fill-rule="evenodd" clip-rule="evenodd" d="M34.3987 61.1845C34.3987 65.5003 30.8291 68.9998 26.4222 68.9998C22.0153 68.9998 18.4492 65.5003 18.4492 61.1845C18.4492 56.8687 22.0188 53.3691 26.4222 53.3691C30.8256 53.3691 34.3987 56.8687 34.3987 61.1845Z" fill="#AECF55"/>
<path fill-rule="evenodd" clip-rule="evenodd" d="M46.2771 65.0068L41.1276 61.6509C40.984 61.5563 40.8824 61.4091 40.8473 61.241C40.8123 61.0728 40.8473 60.8977 40.9384 60.7541L41.6811 59.6191C41.7757 59.4754 41.9228 59.3739 42.0909 59.3388C42.2486 59.3073 42.4132 59.3353 42.5533 59.4159C42.5604 59.4194 42.5709 59.4264 42.5779 59.4299L47.7589 62.8384C47.906 62.9365 48.0076 63.0871 48.0392 63.2623C48.0707 63.4339 48.0321 63.6126 47.9306 63.7562L47.1564 64.8386C46.9602 65.1119 46.5889 65.189 46.2981 65.0173C46.2911 65.0138 46.2841 65.0068 46.2736 65.0033L46.2771 65.0068Z" fill="#FFC800"/>
<path fill-rule="evenodd" clip-rule="evenodd" d="M42.6084 57.6959C42.5769 57.6784 42.5489 57.6574 42.5209 57.6329C42.3912 57.5208 42.3107 57.3632 42.2967 57.1915L42.1916 55.8393C42.1776 55.6677 42.2336 55.4995 42.3457 55.3699C42.4578 55.2403 42.6154 55.1597 42.7871 55.1457L48.97 54.6763C49.1031 54.6658 49.2362 54.6973 49.3483 54.7639C49.3834 54.7849 49.4184 54.8094 49.4499 54.8374C49.5795 54.953 49.6601 55.1212 49.6636 55.2963L49.7127 56.624C49.7267 56.9708 49.4639 57.2651 49.1171 57.2931L42.9903 57.7835C42.8572 57.794 42.7205 57.7625 42.6084 57.6959Z" fill="#FFC800"/>
<path fill-rule="evenodd" clip-rule="evenodd" d="M42.4632 53.6216C42.4036 53.5866 42.3476 53.5376 42.2986 53.4815L41.4263 52.4446C41.3142 52.3115 41.2616 52.1433 41.2757 51.9717C41.2897 51.8 41.3737 51.6424 41.5034 51.5303L46.2535 47.5438C46.3866 47.4317 46.5618 47.3757 46.7369 47.3967C46.8315 47.4072 46.9191 47.4352 46.9997 47.4843C47.0697 47.5263 47.1293 47.5788 47.1818 47.6454L47.9945 48.6963C48.2082 48.9696 48.1662 49.3619 47.9 49.5861L43.2094 53.5551C43.0797 53.6672 42.9081 53.7197 42.7364 53.7057C42.6384 53.6987 42.5438 53.6672 42.4597 53.6181L42.4632 53.6216Z" fill="#FFC800"/>
<path fill-rule="evenodd" clip-rule="evenodd" d="M5.34297 47.53L10.8848 50.1888C11.039 50.2624 11.1581 50.3955 11.2141 50.5566C11.2702 50.7178 11.2597 50.8964 11.1861 51.0505L10.5976 52.2696C10.524 52.4237 10.3909 52.5428 10.2262 52.5989C10.0721 52.6514 9.90747 52.6444 9.75684 52.5814C9.74983 52.5779 9.73932 52.5744 9.72881 52.5709L4.14842 49.8665C3.99078 49.7894 3.87168 49.6528 3.81563 49.4847C3.75958 49.3165 3.7771 49.1344 3.86117 48.9802L4.48822 47.8067C4.64586 47.5089 5.00667 47.3863 5.31494 47.5159C5.32195 47.5159 5.33246 47.523 5.33947 47.5265L5.34297 47.53Z" fill="#FFC800"/>
<path fill-rule="evenodd" clip-rule="evenodd" d="M9.88239 54.0558C9.91742 54.0698 9.94895 54.0873 9.98047 54.1083C10.1241 54.2029 10.2257 54.35 10.2607 54.5182L10.541 55.8423C10.576 56.0105 10.541 56.1856 10.4499 56.3293C10.3553 56.4729 10.2082 56.5745 10.04 56.6095L3.97271 57.8776C3.8431 57.9056 3.70648 57.8916 3.58387 57.8391C3.54534 57.8216 3.5103 57.8041 3.47527 57.7795C3.33165 57.6814 3.23006 57.5273 3.20203 57.3522L2.98134 56.042C2.92529 55.6987 3.14599 55.3729 3.48578 55.3029L9.49705 54.0207C9.63017 53.9927 9.76679 54.0067 9.88589 54.0593L9.88239 54.0558Z" fill="#FFC800"/>
<path fill-rule="evenodd" clip-rule="evenodd" d="M10.6057 58.3228C10.6723 58.3508 10.7318 58.3893 10.7844 58.4384L11.7828 59.3527C11.9089 59.4683 11.9859 59.6294 11.9929 59.8011C12 59.9727 11.9404 60.1409 11.8248 60.267L7.63513 64.835C7.51602 64.9646 7.34788 65.0416 7.17272 65.0451C7.07814 65.0451 6.98706 65.0311 6.90299 64.9926C6.82942 64.9611 6.76286 64.9155 6.70331 64.856L5.76099 63.9207C5.51577 63.6755 5.50526 63.2831 5.73997 63.0274L9.87359 58.4804C9.98919 58.3543 10.1503 58.2772 10.322 58.2702C10.4201 58.2667 10.5182 58.2842 10.6092 58.3228H10.6057Z" fill="#FFC800"/>
<path fill-rule="evenodd" clip-rule="evenodd" d="M38.0144 2.18592C34.5393 0.756663 30.5073 0.0105092 26.4227 0C22.3416 0.0105092 18.3096 0.756663 14.8311 2.18592C2.37764 7.29689 -3.11868 22.5563 3.54767 34.2915C5.76511 38.1975 8.8408 41.2557 12.7888 43.3925C13.9203 44.0056 14.6524 44.8288 15.0728 46.0023C15.5177 47.2424 15.9976 48.472 16.4635 49.7086H26.4227H36.3854C36.8513 48.472 37.3313 47.2459 37.7762 46.0023C38.2 44.8253 38.9287 44.0056 40.0602 43.3925C44.0046 41.2592 47.0838 38.1975 49.3013 34.2915C55.9676 22.5563 50.4713 7.3004 38.0144 2.18592Z" fill="#3BC4FF"/>
<path fill-rule="evenodd" clip-rule="evenodd" d="M32.0999 29.4642C29.8194 29.1173 27.5284 29.9476 26.0291 31.517C26.0291 31.517 26.0221 31.524 26.0186 31.5275C25.5001 30.8934 24.8696 30.3399 24.1549 29.9301C22.7607 29.1279 20.9181 28.8861 19.4153 29.5798C17.6182 30.4065 17.2784 32.3857 17.5236 34.0216C17.8704 36.3372 19.3207 38.2639 20.8165 40.0995C21.5907 41.0488 22.4069 41.9946 23.0375 43.0315C23.7591 44.2191 23.8957 45.6063 23.6505 46.9235C23.4718 47.8868 23.1005 48.8116 22.6591 49.7014H23.7626C24.6804 47.7011 25.1813 45.5362 24.3441 43.4239C23.8887 42.2749 23.034 41.2765 22.2458 40.2991C21.4961 39.3743 20.7289 38.46 20.0599 37.4827C19.3908 36.5053 18.8758 35.4614 18.6131 34.3334C18.3959 33.4086 18.3469 32.3332 18.7987 31.4574C19.4959 30.1052 21.2089 29.8775 22.6416 30.2944C23.8011 30.6342 24.7189 31.3943 25.3845 32.3192C24.4212 33.7449 24.0148 35.5805 24.4667 37.1849C24.7224 38.0957 25.8294 38.6737 26.6807 37.9696C27.5389 37.2585 27.6825 36.0499 27.5669 35.0586C27.4583 34.1337 27.122 33.1949 26.6036 32.3472C27.3883 31.4294 28.4882 30.7428 29.7599 30.4415C31.5289 30.0246 33.8094 30.417 34.2823 32.2281C34.5801 33.3701 34.1772 34.6697 33.6763 35.7171C33.4136 36.2636 33.0843 36.7751 32.7094 37.262C32.0579 38.1062 31.5114 39.017 31.077 39.9699C29.6443 43.1016 29.6968 46.454 30.45 49.7014H31.4904C31.014 47.7467 30.7828 45.7499 31.0245 43.7427C31.1716 42.5236 31.5429 41.315 32.0754 40.1871C32.5868 39.1011 33.3295 38.1693 33.9986 37.1639C34.8848 35.8362 35.4979 34.1863 35.3718 32.6239C35.2352 30.9074 33.9495 29.7409 32.0999 29.4571V29.4642ZM26.5125 36.3092C26.446 36.6104 26.2428 37.3566 25.7909 37.3811C25.4055 37.4021 25.3565 36.4633 25.346 36.2636C25.318 35.7697 25.3355 35.2547 25.4266 34.7678C25.5246 34.2458 25.7068 33.7484 25.959 33.286C26.1762 33.7239 26.3409 34.1758 26.4565 34.6242C26.6001 35.1742 26.6316 35.7557 26.5125 36.3127V36.3092Z" fill="#B6FBFF"/>
<path d="M19.2445 55.9302H33.6106C35.2956 55.9302 36.6618 57.2964 36.6618 58.9813V59.8361C36.6618 61.5211 35.2956 62.8873 33.6106 62.8873H19.2445C17.5596 62.8873 16.1934 61.5211 16.1934 59.8361V58.9813C16.1934 57.2964 17.5596 55.9302 19.2445 55.9302Z" fill="#7B68EE"/>
<path d="M16.784 49.2532H36.0719C37.7569 49.2532 39.1231 50.6194 39.1231 52.3043V53.4744C39.1231 55.1593 37.7569 56.5255 36.0719 56.5255H16.7875C15.1025 56.5255 13.7363 55.1593 13.7363 53.4744V52.3043C13.7363 50.6194 15.1025 49.2532 16.7875 49.2532H16.784Z" fill="#FD71AF"/>
<path fill-rule="evenodd" clip-rule="evenodd" d="M9.92702 37.8233C10.8658 36.9475 9.48913 35.5638 8.55031 36.4361C7.61149 37.3119 8.98819 38.6956 9.92702 37.8233Z" fill="white"/>
<path fill-rule="evenodd" clip-rule="evenodd" d="M4.26686 20.837C5.20568 19.9612 3.82898 18.5775 2.89015 19.4498C1.95133 20.3255 3.32804 21.7092 4.26686 20.837Z" fill="white"/>
<path fill-rule="evenodd" clip-rule="evenodd" d="M7.72754 34.4744C5.20883 31.3426 3.32068 27.2791 3.96874 23.191C4.11938 22.2417 2.59904 22.0805 2.44841 23.0298C1.73729 27.4998 3.75506 31.9732 6.51548 35.4062C7.118 36.1558 8.33007 35.2275 7.72754 34.4779V34.4744Z" fill="white"/>
<path fill-rule="evenodd" clip-rule="evenodd" d="M44.3159 9.48257C43.321 10.2953 44.6066 11.7666 45.6015 10.9539C46.5964 10.1412 45.3107 8.66986 44.3159 9.48257Z" fill="white"/>
<path fill-rule="evenodd" clip-rule="evenodd" d="M48.8745 26.798C47.8796 27.6107 49.1652 29.082 50.1601 28.2693C51.155 27.4566 49.8693 25.9853 48.8745 26.798Z" fill="white"/>
<path fill-rule="evenodd" clip-rule="evenodd" d="M46.3029 12.9646C48.6149 16.2505 50.2403 20.4296 49.326 24.4687C49.1158 25.4075 50.6221 25.6632 50.8323 24.7279C51.8272 20.314 50.1037 15.718 47.571 12.1169C47.0175 11.3322 45.7494 12.1799 46.3029 12.9646Z" fill="white"/>
</svg>
