<svg width="86" height="86" viewBox="0 0 86 86" fill="none" xmlns="http://www.w3.org/2000/svg">
<path d="M43 86C62.33 86 78 70.33 78 51C78 31.67 62.33 16 43 16C23.67 16 8 31.67 8 51C8 70.33 23.67 86 43 86Z" fill="#FFC800"/>
<mask id="mask0_2424_15373" style="mask-type:luminance" maskUnits="userSpaceOnUse" x="8" y="6" width="70" height="80">
<path d="M43 6C62.33 6 78 31.67 78 51C78 70.33 62.33 86 43 86C23.67 86 8 70.33 8 51C8 31.67 23.67 6 43 6Z" fill="white"/>
</mask>
<g mask="url(#mask0_2424_15373)">
<path d="M44.9839 14.0061C44.9839 14.0061 27.5841 10.2641 20.7339 19.0924C13.8836 27.9207 14.7056 31.8768 14.7056 31.8768L18.7045 27.8265C18.7045 27.8265 10.8266 35.7386 17.1974 46.1596C23.5682 56.5892 66.0913 47.7694 68.2149 46.0226C70.3385 44.2758 70.5098 36.7918 70.5098 36.7918L71.1349 39.4121C71.1349 39.4121 74.0034 32.1593 69.6535 23.7763C65.295 15.3932 53.3412 9.81882 44.9839 14.0061Z" fill="url(#paint0_linear_2424_15373)"/>
<path d="M58.4965 102.75H65.715C65.578 101.963 65.441 101.115 65.3125 100.139C64.3364 92.8859 63.8654 90.3941 62.8122 83.0215L54.8145 84.0233C56.2016 91.259 56.5613 94.119 58.1711 101.397C58.2738 101.877 58.3852 102.314 58.4879 102.742L58.4965 102.75Z" fill="#F6A49E"/>
<path d="M56.0221 93.8279L53.9242 85.8045L50.1309 72.4893C55.5255 73.748 59.6528 75.0667 65.2015 86.9862C62.8296 89.4694 59.9182 91.7985 56.0221 93.8279Z" fill="#E0E1EA"/>
<path d="M25.5034 102.752C25.6062 102.323 25.7175 101.887 25.8203 101.407C27.4301 94.1287 27.7897 91.2687 29.1769 84.0331L21.1792 83.0312C20.1259 90.4039 19.655 92.8957 18.6788 100.148C18.5504 101.125 18.4134 101.964 18.2764 102.76H25.4949L25.5034 102.752Z" fill="#F6A49E"/>
<path d="M28.1589 93.8279L30.2568 85.8045L34.0501 72.4893C28.6555 73.748 24.5282 75.0667 18.9795 86.9862C21.3514 89.4694 24.2628 91.7985 28.1589 93.8279Z" fill="#E0E1EA"/>
<path d="M56.3724 102.751C56.0042 93.2719 55.636 83.8784 55.2592 74.1938C52.853 72.8324 46.6193 71.488 42.2179 71.4709C37.8252 71.4537 30.9835 72.8923 28.9113 74.1938L27.8066 102.751H56.3809H56.3724Z" fill="#009ECF"/>
<path d="M38.0399 63.8086V70.0937C38.0399 72.0375 37.4491 75.3513 42.2186 75.3513C46.9881 75.3513 46.1318 72.0289 46.1318 70.0937V63.8086H38.0399Z" fill="#ED9A99"/>
<path d="M21.0425 58.1924C23.0361 57.3457 23.362 53.6212 21.7704 49.8734C20.1787 46.1255 17.2723 43.7737 15.2787 44.6203C13.2851 45.467 12.9592 49.1915 14.5508 52.9394C16.1425 56.6872 19.0489 59.039 21.0425 58.1924Z" fill="#F6A49E"/>
<path d="M15.5108 52.5319C16.6753 55.2806 19.15 57.4641 20.4002 56.9332C21.6503 56.4023 21.1879 53.3625 20.0234 50.6138C18.8588 47.8651 16.8979 46.0669 15.6563 46.5893C14.4147 47.1116 14.3462 49.7746 15.5193 52.5233L15.5108 52.5319Z" fill="#F7AAA5"/>
<path opacity="0.5" d="M15.5108 52.5319C16.6753 55.2806 19.15 57.4641 20.4002 56.9332C21.6503 56.4023 21.1879 53.3625 20.0234 50.6138C18.8588 47.8651 16.8979 46.0669 15.6563 46.5893C14.4147 47.1116 14.3462 49.7746 15.5193 52.5233L15.5108 52.5319Z" stroke="#E4807F" stroke-width="0.274012" stroke-miterlimit="10"/>
<path d="M69.5536 52.9352C71.1452 49.1874 70.8193 45.4629 68.8257 44.6162C66.8321 43.7696 63.9257 46.1214 62.334 49.8692C60.7424 53.6171 61.0683 57.3416 63.0619 58.1883C65.0555 59.0349 67.9619 56.6831 69.5536 52.9352Z" fill="#F6A49E"/>
<path d="M68.5922 52.5319C67.4277 55.2806 64.953 57.4641 63.7028 56.9332C62.4527 56.4023 62.9151 53.3625 64.0796 50.6138C65.2441 47.8651 67.205 46.0669 68.4467 46.5893C69.6883 47.1116 69.7568 49.7746 68.5837 52.5233L68.5922 52.5319Z" fill="#F7AAA5"/>
<path opacity="0.5" d="M68.5922 52.5319C67.4277 55.2806 64.953 57.4641 63.7028 56.9332C62.4527 56.4023 62.9151 53.3625 64.0796 50.6138C65.2441 47.8651 67.205 46.0669 68.4467 46.5893C69.6883 47.1116 69.7568 49.7746 68.5837 52.5233L68.5922 52.5319Z" stroke="#E4807F" stroke-width="0.274012" stroke-miterlimit="10"/>
<path d="M42.209 70.4691C54.7649 70.4691 64.9434 59.6312 64.9434 46.2619C64.9434 32.8926 54.7649 22.0547 42.209 22.0547C29.6531 22.0547 19.4746 32.8926 19.4746 46.2619C19.4746 59.6312 29.6531 70.4691 42.209 70.4691Z" fill="#F6A49E"/>
<path d="M42.209 16.8918C61.3898 15.7444 65.9966 28.0492 65.2259 41.2874L64.9348 46.2624H19.4746L19.1834 41.2874C18.1644 23.5109 26.9499 16.8918 42.209 16.8918Z" fill="#F6A49E"/>
<path d="M42.0391 54.431C42.3045 54.2169 42.5357 53.9857 42.5957 53.6175C42.6813 53.0695 42.5957 52.6071 42.5957 52.0762C42.5785 51.4083 42.3045 48.4198 42.1846 47.5978C42.1846 47.5635 42.1247 47.5721 42.1247 47.5978C42.0648 48.8052 42.296 53.1465 41.825 53.8572C41.4482 54.4138 40.4978 54.6707 40.3265 55.3729C40.1381 56.1692 41.0286 56.9912 41.5681 57.428C41.7993 57.6078 42.1932 57.5136 42.2788 57.2224C42.3816 56.9056 41.8849 56.5631 41.6966 56.3405C41.4654 56.075 41.2684 55.8438 41.2684 55.4671C41.2684 54.9618 41.6794 54.705 42.0476 54.4138L42.0391 54.431Z" fill="#B65050"/>
<path d="M60.6535 41.1334C60.585 41.2104 60.3624 41.1591 60.0199 41.0135C59.8486 40.9364 59.6517 40.8422 59.4376 40.7224C59.215 40.611 58.941 40.5254 58.6669 40.397C57.5538 39.9175 55.9868 39.5321 54.3427 39.5578C52.6986 39.5407 51.0546 39.926 49.8215 40.2514C48.5884 40.5854 47.7664 40.8765 47.6637 40.7052C47.5609 40.5425 48.2288 39.9089 49.4533 39.3009C50.6692 38.7015 52.4503 38.1021 54.3341 38.1107C56.218 38.0764 58.0419 38.7187 59.155 39.4979C59.429 39.6948 59.6945 39.8575 59.8914 40.0459C60.0884 40.2428 60.2511 40.4141 60.3709 40.5597C60.6193 40.8594 60.7306 41.0563 60.6621 41.1334H60.6535Z" fill="#90452A"/>
<path d="M53.3076 54.1231C56.3295 54.1231 58.7793 51.5584 58.7793 48.3946C58.7793 45.2308 56.3295 42.666 53.3076 42.666C50.2857 42.666 47.8359 45.2308 47.8359 48.3946C47.8359 51.5584 50.2857 54.1231 53.3076 54.1231Z" fill="white"/>
<path d="M58.7524 48.3938C58.6154 48.3938 58.6068 47.4604 58.0417 46.2531C57.7591 45.6537 57.331 45.0029 56.723 44.4463C56.115 43.8983 55.3358 43.4359 54.4795 43.2389C53.6232 43.0163 52.7156 43.042 51.9192 43.2561C51.1143 43.4701 50.4293 43.8726 49.8984 44.2922C48.8452 45.1656 48.4427 46.0561 48.3143 45.9876C48.2286 45.9705 48.4341 44.9515 49.4959 43.8469C50.0268 43.316 50.7718 42.7937 51.6966 42.5025C52.6128 42.2028 53.6832 42.1515 54.685 42.4083C55.6955 42.6481 56.5946 43.2133 57.2625 43.8726C57.9304 44.5491 58.3585 45.3197 58.5983 46.0133C59.0692 47.4176 58.8466 48.3938 58.761 48.3767L58.7524 48.3938Z" fill="#90452A"/>
<path d="M53.2727 53.5328C55.5333 53.5328 57.3658 51.7003 57.3658 49.4397C57.3658 47.1792 55.5333 45.3467 53.2727 45.3467C51.0122 45.3467 49.1797 47.1792 49.1797 49.4397C49.1797 51.7003 51.0122 53.5328 53.2727 53.5328Z" fill="url(#paint1_linear_2424_15373)"/>
<path d="M55.6577 48.4668C56.04 48.1805 56.042 47.5372 55.6621 47.03C55.2823 46.5228 54.6644 46.3437 54.2821 46.63C53.8998 46.9163 53.8978 47.5596 54.2777 48.0669C54.6575 48.5741 55.2754 48.7532 55.6577 48.4668Z" fill="white"/>
<path d="M56.3979 49.5762C56.6533 49.5762 56.8603 49.3691 56.8603 49.1138C56.8603 48.8584 56.6533 48.6514 56.3979 48.6514C56.1426 48.6514 55.9355 48.8584 55.9355 49.1138C55.9355 49.3691 56.1426 49.5762 56.3979 49.5762Z" fill="white"/>
<path style="mix-blend-mode:soft-light" opacity="0.7" d="M58.427 51.2031C58.427 51.2031 55.4643 56.7604 49.5645 53.0784C49.5645 53.0784 47.0984 58.4216 52.7927 58.8498C58.487 59.2779 59.9769 54.7139 58.427 51.2031Z" fill="url(#paint2_radial_2424_15373)"/>
<path d="M23.6975 41.0649C23.629 40.9879 23.7404 40.7909 23.9973 40.4998C24.1257 40.3542 24.2884 40.183 24.4939 39.9946C24.6908 39.8062 24.9563 39.6521 25.2389 39.4551C26.3606 38.693 28.1931 38.0765 30.0769 38.1107C31.9693 38.1022 33.7504 38.7187 34.9492 39.3181C36.1651 39.9346 36.8244 40.5854 36.7131 40.7481C36.6103 40.9194 35.7969 40.6197 34.5724 40.2771C33.3479 39.9432 31.7038 39.5493 30.0598 39.5579C28.4157 39.5322 26.8401 39.9004 25.7098 40.3628C25.4272 40.4827 25.1532 40.5683 24.9306 40.671C24.708 40.7824 24.511 40.8765 24.3312 40.9536C23.9887 41.0992 23.7489 41.1506 23.689 41.0735L23.6975 41.0649Z" fill="#90452A"/>
<path d="M30.8291 54.1231C33.851 54.1231 36.3008 51.5584 36.3008 48.3946C36.3008 45.2308 33.851 42.666 30.8291 42.666C27.8072 42.666 25.3574 45.2308 25.3574 48.3946C25.3574 51.5584 27.8072 54.1231 30.8291 54.1231Z" fill="white"/>
<path d="M25.333 48.393C25.2473 48.4102 25.0333 47.4254 25.5214 46.0211C25.7697 45.3275 26.2064 44.5569 26.8743 43.8804C27.5508 43.2211 28.4413 42.6559 29.4603 42.4162C30.4621 42.1593 31.5325 42.2106 32.4487 42.5103C33.3649 42.8015 34.1099 43.3324 34.6408 43.8633C35.694 44.9679 35.891 45.9783 35.8054 46.004C35.6855 46.0639 35.283 45.182 34.2383 44.3085C33.716 43.8804 33.031 43.4779 32.2261 43.2639C31.4297 43.0412 30.5221 43.0156 29.6658 43.2382C28.8009 43.4437 28.0303 43.8975 27.4137 44.4456C26.8058 45.0021 26.3691 45.6529 26.0779 46.2438C25.5042 47.4511 25.4785 48.4016 25.3415 48.393H25.333Z" fill="#90452A"/>
<path d="M31.0598 53.5328C33.3204 53.5328 35.1529 51.7003 35.1529 49.4397C35.1529 47.1792 33.3204 45.3467 31.0598 45.3467C28.7993 45.3467 26.9668 47.1792 26.9668 49.4397C26.9668 51.7003 28.7993 53.5328 31.0598 53.5328Z" fill="url(#paint3_linear_2424_15373)"/>
<path d="M33.4526 48.4668C33.835 48.1805 33.8369 47.5372 33.4571 47.03C33.0772 46.5228 32.4593 46.3437 32.077 46.63C31.6947 46.9163 31.6927 47.5596 32.0726 48.0669C32.4525 48.5741 33.0703 48.7532 33.4526 48.4668Z" fill="white"/>
<path d="M34.1782 49.5762C34.4336 49.5762 34.6406 49.3691 34.6406 49.1138C34.6406 48.8584 34.4336 48.6514 34.1782 48.6514C33.9228 48.6514 33.7158 48.8584 33.7158 49.1138C33.7158 49.3691 33.9228 49.5762 34.1782 49.5762Z" fill="white"/>
<path style="mix-blend-mode:soft-light" opacity="0.7" d="M25.6489 51.2031C25.6489 51.2031 28.6116 56.7604 34.5114 53.0784C34.5114 53.0784 36.9775 58.4216 31.2832 58.8498C25.5889 59.2779 24.099 54.7139 25.6489 51.2031Z" fill="url(#paint4_radial_2424_15373)"/>
<path d="M51.4319 60.4844C51.8173 60.5015 52.1341 60.981 51.9885 61.392C51.9628 61.4777 51.9115 61.5547 51.8601 61.5975C51.8515 61.5975 51.843 61.5975 51.8344 61.5975C51.8344 61.2037 51.6631 60.8012 51.4062 60.5015C51.4062 60.5015 51.4234 60.4929 51.4234 60.4844H51.4319Z" fill="#B65050"/>
<path d="M51.4319 60.4844C51.8173 60.5015 52.1341 60.981 51.9885 61.392C51.9628 61.4777 51.9115 61.5547 51.8601 61.5975C51.8515 61.5975 51.843 61.5975 51.8344 61.5975C51.8344 61.2037 51.6631 60.8012 51.4062 60.5015C51.4062 60.5015 51.4234 60.4929 51.4234 60.4844H51.4319Z" stroke="#B65050" stroke-width="0.265449" stroke-miterlimit="10"/>
<path d="M33.5608 61.5643C33.2525 61.4187 33.1926 60.9477 33.5094 60.6737C33.655 60.5538 33.8519 60.5196 33.9804 60.571C33.9804 60.5795 33.9889 60.5881 33.9975 60.5967C33.7063 60.785 33.518 61.1961 33.595 61.5471C33.5865 61.5471 33.5693 61.5471 33.5608 61.5471V61.5643Z" fill="#B65050"/>
<path d="M33.5608 61.5643C33.2525 61.4187 33.1926 60.9477 33.5094 60.6737C33.655 60.5538 33.8519 60.5196 33.9804 60.571C33.9804 60.5795 33.9889 60.5881 33.9975 60.5967C33.7063 60.785 33.518 61.1961 33.595 61.5471C33.5865 61.5471 33.5693 61.5471 33.5608 61.5471V61.5643Z" stroke="#B65050" stroke-width="0.265449" stroke-miterlimit="10"/>
<path d="M33.6294 61.0332C37.4142 62.2663 42.8516 63.4565 51.4916 61.076C51.4916 61.0846 51.4916 61.0931 51.5001 61.1103C42.218 64.4241 35.4448 61.8724 33.6123 61.0675C33.6123 61.0589 33.6123 61.0503 33.6209 61.0332H33.6294Z" fill="#B65050"/>
<path d="M33.6302 61.0324C33.6302 61.0324 33.6131 61.0324 33.6045 61.0581C33.6045 61.0581 33.6045 61.0581 33.6045 61.0667C33.6045 61.0667 33.6131 61.0667 33.6216 61.0752C33.8357 61.2379 35.7623 62.2483 39.059 62.7536C42.3215 63.2759 46.9882 63.1046 51.5779 61.3921C51.5865 61.3921 51.6036 61.3835 51.6122 61.3749C51.7064 61.3407 51.792 61.315 51.8776 61.2807C51.852 61.1951 51.8177 61.1009 51.792 61.0153C51.792 61.0067 51.792 60.9982 51.7835 60.981C51.7578 60.8869 51.7235 60.7927 51.6978 60.707C51.6036 60.7327 51.5094 60.767 51.4152 60.7927C46.6543 62.197 42.056 62.4025 38.8278 62.0171C37.2009 61.8459 35.9165 61.5548 35.0259 61.3407C34.1354 61.1266 33.6559 60.981 33.6387 61.0239C33.6302 61.0581 34.084 61.2722 34.9574 61.5548C35.8308 61.8373 37.1238 62.1884 38.7679 62.4196C42.0389 62.9077 46.7399 62.7707 51.5779 61.3407C51.4495 61.2722 51.3296 61.2122 51.2097 61.1437C51.2097 61.1523 51.2097 61.1609 51.2183 61.178C51.2782 61.0581 51.3382 60.9382 51.4067 60.8183C51.3981 60.8183 51.381 60.8183 51.3724 60.8269C46.8769 62.4967 42.3386 62.7193 39.119 62.3168C35.8737 61.923 33.9128 61.0581 33.6302 61.0324C33.6302 61.0324 33.6302 61.0495 33.6387 61.0581C33.6387 61.0324 33.6387 61.0239 33.6387 61.0239L33.6302 61.0324Z" fill="#B35652"/>
<path d="M46.1922 71.7703C46.0552 71.7532 46.0809 72.5152 45.6613 73.4657C45.4472 73.9281 45.0362 74.3734 44.4025 74.6217C43.786 74.8786 42.9982 74.9728 42.1676 74.9642C41.337 74.9642 40.5578 74.8529 39.9327 74.596C39.3076 74.3391 38.8709 73.911 38.6312 73.4486C38.1602 72.5153 38.1516 71.7617 38.0146 71.7788C37.9633 71.7788 37.9119 71.9587 37.9033 72.2841C37.9033 72.6094 37.9119 73.0975 38.1431 73.6712C38.3486 74.2449 38.888 74.8872 39.6416 75.2297C40.3865 75.5893 41.2685 75.7178 42.1676 75.7263C43.0582 75.7263 43.9487 75.615 44.7022 75.2554C45.4643 74.9214 45.9952 74.245 46.175 73.6627C46.372 73.0718 46.3634 72.5838 46.3377 72.2584C46.3121 71.933 46.2521 71.7617 46.2007 71.7617L46.1922 71.7703Z" fill="#FBFBFB"/>
<path d="M16.5898 33.958C16.5898 33.958 17.763 6.17154 57.7087 14.6488C57.7087 14.6488 49.8651 28.7176 16.5898 33.958Z" fill="url(#paint5_linear_2424_15373)"/>
<path d="M38.9399 14.7252C38.9399 14.7252 36.765 12.0107 33.2285 12.5845C33.2285 12.5845 39.154 9.29632 43.992 12.5845C43.992 12.5845 47.9566 8.75686 55.7831 11.1288C55.7831 11.1288 51.3818 11.8566 49.7206 15.1961C48.0508 18.5356 38.9399 14.7252 38.9399 14.7252Z" fill="url(#paint6_linear_2424_15373)"/>
<path d="M25.1014 24.7685C15.8621 32.0812 13.5073 42.819 19.2102 49.3439C19.2102 49.3439 22.5069 37.2788 31.9774 38.0752C41.448 38.8801 53.4617 35.7461 54.866 29.9662C54.866 29.9662 54.6776 37.8782 59.5242 40.5156C64.3622 43.153 65.424 46.6637 64.5249 48.8901C64.5249 48.8901 69.7054 41.9799 68.421 31.2335C67.1451 20.4956 62.0245 13.8594 47.8273 16.0001L25.1014 24.7685Z" fill="url(#paint7_linear_2424_15373)"/>
<path d="M50.0799 17.1572C50.0799 17.1572 48.5642 33.3924 37.9463 36.946C37.9463 36.946 58.2831 35.6102 50.0799 17.1572Z" fill="#91462B"/>
<path d="M52.6826 16.96C52.6826 16.96 68.0187 23.7246 66.1006 44.5409C66.1006 44.5409 61.3482 23.5106 52.6826 16.96Z" fill="#91462B"/>
<path d="M52.9818 18.5107C52.9818 18.5107 52.5108 30.1477 61.4933 38.5222C61.4933 38.5222 56.4069 29.1287 52.9818 18.5107Z" fill="#91462B"/>
<path d="M40.8316 18.3213C40.8316 18.3213 34.0498 28.4255 21.4453 35.5583C21.4453 35.5583 35.4798 32.8268 40.8316 18.3213Z" fill="#91462B"/>
<path d="M55.6699 21.1797C55.6699 21.1797 57.4339 33.279 64.3612 43.152C64.3612 43.152 61.3471 33.0478 55.6699 21.1797Z" fill="#91462B"/>
<path d="M44.9496 16.1221C44.9496 16.1221 45.0181 28.2642 32.6533 34.7377C32.6533 34.7377 47.3386 31.9891 44.9496 16.1221Z" fill="#91462B"/>
<path d="M39.3332 16.0089C39.3332 16.0089 22.0704 15.0413 17.9346 35.9176C17.9346 35.9176 24.5365 19.2799 39.3417 16.0089H39.3332Z" fill="#91462B"/>
<path d="M39.3667 17.0557C39.3667 17.0557 23.2514 20.2325 19.2012 39.4133C19.2012 39.4133 27.8497 25.8583 39.3667 17.0557Z" fill="#91462B"/>
<path d="M44.9495 16.1188C44.9238 15.3568 42.235 26.9081 29.8018 35.5994C29.8018 35.5994 45.3519 31.1295 44.9495 16.1188Z" fill="#91462B"/>
<path d="M54.9941 17.0037C54.9941 17.0037 62.401 16.3872 65.2953 21.6448C68.1895 26.9109 69.9192 34.7031 69.6195 34.7031C69.3198 34.7031 65.4408 18.3309 54.9941 17.0037Z" fill="#91462B"/>
</g>
<defs>
<linearGradient id="paint0_linear_2424_15373" x1="14.6713" y1="31.8768" x2="72.0597" y2="31.8768" gradientUnits="userSpaceOnUse">
<stop stop-color="#904C2E"/>
<stop offset="1" stop-color="#B05D3B"/>
</linearGradient>
<linearGradient id="paint1_linear_2424_15373" x1="53.2727" y1="43.2573" x2="53.2727" y2="58.2081" gradientUnits="userSpaceOnUse">
<stop offset="0.3" stop-color="#583216"/>
<stop offset="0.36" stop-color="#512E14"/>
<stop offset="0.59" stop-color="#3A2111"/>
<stop offset="0.8" stop-color="#2D1A0F"/>
<stop offset="1" stop-color="#29180F"/>
</linearGradient>
<radialGradient id="paint2_radial_2424_15373" cx="0" cy="0" r="1" gradientUnits="userSpaceOnUse" gradientTransform="translate(54.2543 56.0921) rotate(-7.69) scale(4.54688 1.95516)">
<stop stop-color="#E71A46"/>
<stop offset="0.14" stop-color="#E71C47" stop-opacity="0.98"/>
<stop offset="0.27" stop-color="#E8234C" stop-opacity="0.93"/>
<stop offset="0.4" stop-color="#E93055" stop-opacity="0.85"/>
<stop offset="0.53" stop-color="#EB4261" stop-opacity="0.74"/>
<stop offset="0.66" stop-color="#EE5970" stop-opacity="0.59"/>
<stop offset="0.78" stop-color="#F17583" stop-opacity="0.4"/>
<stop offset="0.9" stop-color="#F49599" stop-opacity="0.19"/>
<stop offset="1" stop-color="#F8B3AD" stop-opacity="0"/>
</radialGradient>
<linearGradient id="paint3_linear_2424_15373" x1="31.0598" y1="43.2573" x2="31.0598" y2="58.2081" gradientUnits="userSpaceOnUse">
<stop offset="0.3" stop-color="#583216"/>
<stop offset="0.36" stop-color="#512E14"/>
<stop offset="0.59" stop-color="#3A2111"/>
<stop offset="0.8" stop-color="#2D1A0F"/>
<stop offset="1" stop-color="#29180F"/>
</linearGradient>
<radialGradient id="paint4_radial_2424_15373" cx="0" cy="0" r="1" gradientUnits="userSpaceOnUse" gradientTransform="translate(29.8357 55.9971) rotate(-172.31) scale(4.54688 1.95516)">
<stop stop-color="#E71A46"/>
<stop offset="0.14" stop-color="#E71C47" stop-opacity="0.98"/>
<stop offset="0.27" stop-color="#E8234C" stop-opacity="0.93"/>
<stop offset="0.4" stop-color="#E93055" stop-opacity="0.85"/>
<stop offset="0.53" stop-color="#EB4261" stop-opacity="0.74"/>
<stop offset="0.66" stop-color="#EE5970" stop-opacity="0.59"/>
<stop offset="0.78" stop-color="#F17583" stop-opacity="0.4"/>
<stop offset="0.9" stop-color="#F49599" stop-opacity="0.19"/>
<stop offset="1" stop-color="#F8B3AD" stop-opacity="0"/>
</radialGradient>
<linearGradient id="paint5_linear_2424_15373" x1="16.5898" y1="23.4942" x2="57.7087" y2="23.4942" gradientUnits="userSpaceOnUse">
<stop stop-color="#904C2E"/>
<stop offset="1" stop-color="#B05D3B"/>
</linearGradient>
<linearGradient id="paint6_linear_2424_15373" x1="33.2285" y1="13.4579" x2="55.7831" y2="13.4579" gradientUnits="userSpaceOnUse">
<stop stop-color="#904C2E"/>
<stop offset="1" stop-color="#B05D3B"/>
</linearGradient>
<linearGradient id="paint7_linear_2424_15373" x1="16.1276" y1="32.4751" x2="68.6265" y2="32.4751" gradientUnits="userSpaceOnUse">
<stop stop-color="#904C2E"/>
<stop offset="1" stop-color="#B05D3B"/>
</linearGradient>
</defs>
</svg>
