<svg width="14" height="9" viewBox="0 0 14 9" fill="none" xmlns="http://www.w3.org/2000/svg">
<path fill-rule="evenodd" clip-rule="evenodd" d="M7.62341 4.50496L7.62227 4.77053C7.61315 5.82389 7.54965 6.7637 7.44014 7.35928C7.44014 7.37002 7.32069 7.96071 7.2446 8.15733C7.12515 8.44153 6.90915 8.68276 6.63833 8.8356C6.42152 8.94465 6.19407 9 5.95598 9C5.76882 8.99133 5.46017 8.89715 5.23987 8.81818L5.05681 8.74803C3.84428 8.26639 1.5264 6.69258 0.63868 5.73013L0.573233 5.66285L0.281138 5.34762C0.0970497 5.10639 -0.000312805 4.81146 -0.000312805 4.49422C-0.000312805 4.21002 0.0864134 3.92583 0.259866 3.69616C0.311792 3.62176 0.395435 3.5263 0.469884 3.44564L0.754186 3.14804C1.73253 2.15679 3.85082 0.766373 4.94881 0.305673C4.94881 0.295759 5.63116 0.0107399 5.95598 0H5.99934C6.49761 0 6.96315 0.284193 7.20124 0.743529C7.26628 0.869102 7.32867 1.11509 7.37612 1.33112L7.46141 1.73903C7.55878 2.39499 7.62341 3.40123 7.62341 4.50496ZM12.3726 3.36182C12.9952 3.36182 13.5 3.87155 13.5 4.50024C13.5 5.12894 12.9952 5.63867 12.3726 5.63867L9.59814 5.3933C9.10969 5.3933 8.71369 4.99427 8.71369 4.50024C8.71369 4.00703 9.10969 3.60718 9.59814 3.60718L12.3726 3.36182Z" fill="#130F26"/>
</svg>
