<svg width="67" height="76" viewBox="0 0 67 76" fill="none" xmlns="http://www.w3.org/2000/svg">
<path d="M18.1953 3.22051C16.8191 3.12341 15.8481 3.70604 15.1717 4.79429C14.0399 6.61585 15.0344 9.18747 17.1071 9.84042C18.8081 10.3762 20.4388 9.82033 21.2692 8.39389C21.8016 7.47976 21.872 6.5221 21.4467 5.541C21.2324 5.04542 20.8473 4.70723 20.3819 4.45609C20.181 4.3456 20.047 4.2217 20.1174 3.94713C20.3317 3.11336 20.5158 2.26955 20.7167 1.43243C20.7536 1.27505 20.7536 1.09759 21.0348 1.16121C22.5048 1.4994 24.0049 1.65678 25.4883 1.91126C26.677 2.11552 27.8657 2.32312 29.0578 2.50059C29.3457 2.54412 29.4261 2.63453 29.3625 2.9091C29.1917 3.64242 29.0343 4.37908 28.8669 5.11574C28.7999 5.4171 28.6492 5.58788 28.2977 5.61131C26.7908 5.71512 25.6256 7.01432 25.6289 8.55796C25.6289 10.8014 27.9126 12.6665 30.1226 12.2882C31.3247 12.0805 32.5569 10.7144 32.5669 9.54576C32.577 8.42402 32.4096 7.386 31.3648 6.72635C31.1372 6.58237 31.1371 6.42499 31.2108 6.18725C31.5021 5.26307 31.7834 4.3322 32.0345 3.39798C32.125 3.06313 32.2723 3.033 32.587 3.07988C34.8707 3.41807 37.1075 3.97392 39.3509 4.49628C40.0005 4.64696 40.6468 4.81773 41.3031 4.93827C41.6178 4.99855 41.6982 5.13583 41.6279 5.42045C41.514 5.87919 41.3968 6.34128 41.3031 6.80337C41.2462 7.08464 41.0319 7.11477 40.8209 7.14491C40.3186 7.21858 39.89 7.44962 39.4681 7.71415C37.151 9.17073 37.7169 12.1341 39.1132 13.4199C40.2617 14.478 42.5186 15.0573 44.2497 14.1767C46.3057 13.132 46.7711 10.7345 45.2241 9.01335C44.8491 8.5948 44.4707 8.17624 43.9182 7.98872C43.6604 7.90166 43.6571 7.74429 43.7307 7.53668C43.9216 7.01097 44.1258 6.48861 44.3 5.95621C44.387 5.68833 44.5344 5.6448 44.7888 5.70507C45.924 5.96625 47.0591 6.20734 48.1942 6.46517C50.441 6.98084 52.6845 7.5032 54.9313 8.01886C55.8086 8.21977 55.8287 8.2633 55.4905 9.11046C55.3867 9.36829 55.3499 9.64956 55.2829 9.92079C55.2327 10.125 55.1088 10.2088 54.9012 10.1585C53.8397 9.9007 52.9557 10.3293 52.1488 10.9354C50.9433 11.8428 50.9232 13.3429 51.2313 14.3307C51.536 15.3018 52.1755 16.0116 53.0194 16.5474C54.6367 17.572 56.3109 17.629 57.9851 16.7249C59.3647 15.9782 60.0444 14.5752 59.7833 13.1688C59.6292 12.3451 59.2174 11.6921 58.5142 11.2233C58.1961 11.009 57.734 10.8316 57.6235 10.5336C57.4963 10.1853 57.8713 9.79355 58.0119 9.41182C58.0354 9.35155 58.0755 9.29462 58.0889 9.23435C58.1726 8.87941 58.3903 8.83923 58.7151 8.9196C60.1148 9.26784 61.5211 9.60268 62.9241 9.93753C64.0124 10.1987 65.1006 10.4599 66.1922 10.7211C66.6175 10.8215 66.6342 10.8215 66.5137 11.2669C66.1018 12.8072 65.6933 14.3475 65.258 15.8811C63.3661 22.578 61.4541 29.2716 59.5756 35.9718C58.3669 40.288 57.1882 44.6109 56.0263 48.9404C55.0988 52.396 54.2248 55.8617 53.3073 59.3207C52.6041 61.966 51.8675 64.6012 51.1576 67.2431C50.441 69.9052 49.7278 72.5705 49.0246 75.2359C48.7903 76.1199 48.807 76.1166 47.9699 75.8252C42.0665 73.7693 36.2369 71.5124 30.3134 69.5167C22.8597 67.0054 15.3793 64.5744 7.86868 62.2338C5.42095 61.4704 2.96988 60.717 0.52215 59.9569C0.0165324 59.7995 0.0165324 59.7962 0.113638 59.2972C1.14496 53.8627 2.1629 48.4214 3.21431 42.9902C4.2356 37.7063 5.29706 32.4258 6.32504 27.1419C7.22243 22.5344 8.08633 17.9203 8.99711 13.3161C9.42237 11.1631 9.92129 9.02005 10.3867 6.87369C10.8187 4.87465 11.2506 2.87562 11.6725 0.873239C11.8734 -0.0777251 11.8667 -0.0676797 12.8043 0.0629103C14.425 0.290606 16.0456 0.498211 17.6696 0.715861C17.7969 0.732603 17.9241 0.766088 18.0547 0.766088C18.3393 0.766088 18.423 0.893329 18.3896 1.17125C18.3125 1.83425 18.2623 2.49724 18.1987 3.21716L18.1953 3.22051Z" fill="#AECF55"/>
<path d="M42.7421 52.3424L40.2441 60.3453L14.0859 52.1851L16.0649 45.8431L31.056 39.2901C33.9088 38.021 34.602 36.9428 34.9301 35.8914C35.3956 34.4047 34.6087 33.1524 32.5092 32.4961C30.5503 31.8867 28.3705 32.3086 26.8201 33.8388L19.7348 27.3562C23.4215 23.9006 29.0335 22.4842 36.0719 24.6808C43.8136 27.095 48.0963 32.5564 46.2814 38.3726C45.3405 41.3896 43.6562 43.8407 37.6424 46.3788L31.739 48.9036L42.7421 52.3357V52.3424Z" fill="white"/>
</svg>
