<svg width="66" height="76" viewBox="0 0 66 76" fill="none" xmlns="http://www.w3.org/2000/svg">
<path d="M17.9273 3.61362C16.5666 3.51761 15.6065 4.09367 14.9378 5.16965C13.8187 6.97066 14.802 9.51327 16.8513 10.1589C18.5332 10.6886 20.1455 10.139 20.9665 8.72863C21.4929 7.82482 21.5624 6.87796 21.142 5.90793C20.9301 5.41795 20.5494 5.08357 20.0892 4.83527C19.8905 4.72601 19.7581 4.60352 19.8276 4.33204C20.0395 3.50768 20.2216 2.67339 20.4203 1.84572C20.4567 1.69011 20.4567 1.51465 20.7348 1.57755C22.1882 1.91193 23.6714 2.06753 25.138 2.31914C26.3133 2.5211 27.4886 2.72636 28.6672 2.90182C28.9519 2.94486 29.0314 3.03425 28.9685 3.30573C28.7996 4.03077 28.644 4.75912 28.4785 5.48747C28.4123 5.78543 28.2633 5.95428 27.9157 5.97745C26.4258 6.08008 25.2737 7.36463 25.277 8.89086C25.277 11.109 27.5349 12.9531 29.72 12.579C30.9085 12.3737 32.1269 11.0229 32.1368 9.86751C32.1467 8.75843 31.9812 7.73212 30.9482 7.07991C30.7231 6.93755 30.7231 6.78195 30.796 6.54689C31.084 5.63314 31.3621 4.71277 31.6104 3.78909C31.6998 3.45802 31.8454 3.42822 32.1566 3.47457C34.4145 3.80895 36.6261 4.35853 38.8442 4.87499C39.4865 5.02398 40.1255 5.19282 40.7744 5.31201C41.0856 5.3716 41.165 5.50734 41.0955 5.78874C40.9829 6.24231 40.8671 6.69918 40.7744 7.15606C40.7181 7.43416 40.5062 7.46395 40.2976 7.49375C39.801 7.56658 39.3773 7.79502 38.9601 8.05657C36.6691 9.49671 37.2286 12.4267 38.6092 13.698C39.7447 14.7442 41.9761 15.3169 43.6878 14.4462C45.7205 13.4133 46.1807 11.0428 44.6512 9.34111C44.2804 8.92728 43.9063 8.51344 43.36 8.32804C43.1051 8.24196 43.1018 8.08636 43.1746 7.8811C43.3633 7.36132 43.5653 6.84485 43.7374 6.31845C43.8235 6.0536 43.9692 6.01056 44.2208 6.07015C45.3431 6.32839 46.4654 6.56676 47.5878 6.82168C49.8092 7.33152 52.0274 7.84799 54.2489 8.35784C55.1163 8.55648 55.1361 8.59952 54.8018 9.43712C54.6991 9.69204 54.6627 9.97014 54.5965 10.2383C54.5468 10.4403 54.4243 10.523 54.2191 10.4734C53.1696 10.2184 52.2956 10.6422 51.4977 11.2414C50.3058 12.1386 50.286 13.6218 50.5906 14.5985C50.8918 15.5586 51.5242 16.2604 52.3585 16.7902C53.9575 17.8032 55.6129 17.8595 57.2682 16.9656C58.6322 16.2273 59.3043 14.8402 59.0461 13.4497C58.8938 12.6352 58.4865 11.9897 57.7913 11.5262C57.4768 11.3143 57.0199 11.1388 56.9107 10.8442C56.7849 10.4999 57.1556 10.1125 57.2947 9.73508C57.3179 9.67549 57.3576 9.61921 57.3708 9.55962C57.4536 9.20868 57.6688 9.16896 57.9899 9.24841C59.3738 9.59272 60.7643 9.92379 62.1515 10.2549C63.2274 10.5131 64.3034 10.7713 65.3827 11.0296C65.8032 11.1289 65.8197 11.1289 65.7005 11.5692C65.2933 13.0921 64.8894 14.615 64.459 16.1313C62.5885 22.7527 60.6981 29.3708 58.8408 35.9955C57.6456 40.2629 56.4803 44.537 55.3315 48.8178C54.4144 52.2344 53.5503 55.6609 52.6432 59.0809C51.9479 61.6963 51.2196 64.3018 50.5177 66.914C49.8092 69.546 49.1041 72.1813 48.4088 74.8166C48.1771 75.6906 48.1936 75.6873 47.3659 75.3993C41.5292 73.3665 35.7653 71.1351 29.9087 69.1619C22.5391 66.6789 15.143 64.2753 7.71715 61.9612C5.29704 61.2063 2.87361 60.4614 0.453499 59.7099C-0.0464146 59.5543 -0.0464146 59.551 0.0495954 59.0577C1.06929 53.6845 2.07574 48.3046 3.11529 42.9347C4.12505 37.7104 5.17454 32.4894 6.19092 27.2652C7.07819 22.7097 7.93234 18.1475 8.83285 13.5953C9.25331 11.4666 9.7466 9.34773 10.2068 7.22558C10.6339 5.2491 11.0609 3.27262 11.4781 1.29283C11.6767 0.352595 11.6701 0.362527 12.5971 0.491644C14.1995 0.716771 15.8018 0.922033 17.4075 1.13723C17.5333 1.15378 17.6591 1.18689 17.7883 1.18689C18.0697 1.18689 18.1524 1.31269 18.1193 1.58748C18.0432 2.243 17.9935 2.89851 17.9306 3.61031L17.9273 3.61362Z" fill="#FF622F"/>
<path d="M41.6384 26.5506L32.1963 56.8136L21.3174 53.4201L28.3592 30.8512L22.8271 29.1263L25.2273 21.429L41.6417 26.5473L41.6384 26.5506Z" fill="white"/>
</svg>
