<svg width="66" height="76" viewBox="0 0 66 76" fill="none" xmlns="http://www.w3.org/2000/svg">
<path d="M17.9273 3.18418C16.5666 3.08817 15.6065 3.66423 14.9378 4.7402C13.8187 6.54122 14.802 9.08382 16.8513 9.72941C18.5332 10.2591 20.1455 9.70954 20.9665 8.29919C21.4929 7.39537 21.5624 6.44852 21.142 5.47849C20.9301 4.9885 20.5494 4.65412 20.0892 4.40582C19.8905 4.29657 19.7581 4.17407 19.8276 3.9026C20.0395 3.07824 20.2216 2.24394 20.4203 1.41627C20.4567 1.26067 20.4567 1.0852 20.7348 1.14811C22.1882 1.48249 23.6714 1.63809 25.138 1.8897C26.3133 2.09165 27.4886 2.29691 28.6672 2.47238C28.9519 2.51542 29.0314 2.60481 28.9685 2.87628C28.7996 3.60133 28.644 4.32968 28.4785 5.05803C28.4123 5.35599 28.2633 5.52484 27.9157 5.54801C26.4258 5.65064 25.2737 6.93519 25.277 8.46142C25.277 10.6796 27.5349 12.5236 29.72 12.1495C30.9085 11.9443 32.1269 10.5935 32.1368 9.43807C32.1467 8.32899 31.9812 7.30267 30.9482 6.65047C30.7231 6.50811 30.7231 6.35251 30.796 6.11745C31.084 5.2037 31.3621 4.28333 31.6104 3.35965C31.6998 3.02858 31.8454 2.99878 32.1566 3.04513C34.4145 3.37951 36.6261 3.92908 38.8442 4.44555C39.4865 4.59453 40.1255 4.76338 40.7744 4.88256C41.0856 4.94215 41.165 5.07789 41.0955 5.3593C40.9829 5.81287 40.8671 6.26974 40.7744 6.72661C40.7181 7.00471 40.5062 7.03451 40.2976 7.06431C39.801 7.13714 39.3773 7.36558 38.9601 7.62712C36.6691 9.06727 37.2286 11.9972 38.6092 13.2685C39.7447 14.3147 41.9761 14.8875 43.6878 14.0167C45.7205 12.9838 46.1807 10.6134 44.6512 8.91167C44.2804 8.49783 43.9063 8.084 43.36 7.8986C43.1051 7.81252 43.1018 7.65692 43.1746 7.45166C43.3633 6.93188 43.5653 6.41541 43.7374 5.88901C43.8235 5.62416 43.9692 5.58112 44.2208 5.64071C45.3431 5.89894 46.4654 6.13731 47.5878 6.39224C49.8092 6.90208 52.0274 7.41855 54.2489 7.92839C55.1163 8.12704 55.1361 8.17007 54.8018 9.00768C54.6991 9.2626 54.6627 9.5407 54.5965 9.80886C54.5468 10.0108 54.4243 10.0936 54.2191 10.0439C53.1696 9.789 52.2956 10.2128 51.4977 10.812C50.3058 11.7092 50.286 13.1924 50.5906 14.169C50.8918 15.1291 51.5242 15.831 52.3585 16.3607C53.9575 17.3738 55.6129 17.4301 57.2682 16.5362C58.6322 15.7979 59.3043 14.4107 59.0461 13.0202C58.8938 12.2058 58.4865 11.5602 57.7913 11.0967C57.4768 10.8848 57.0199 10.7094 56.9107 10.4147C56.7849 10.0704 57.1556 9.68306 57.2947 9.30564C57.3179 9.24605 57.3576 9.18977 57.3708 9.13017C57.4536 8.77924 57.6688 8.73951 57.9899 8.81897C59.3738 9.16328 60.7643 9.49435 62.1515 9.82542C63.2274 10.0837 64.3034 10.3419 65.3827 10.6001C65.8032 10.6994 65.8197 10.6994 65.7005 11.1398C65.2933 12.6627 64.8894 14.1856 64.459 15.7019C62.5885 22.3233 60.6981 28.9413 58.8408 35.566C57.6456 39.8335 56.4803 44.1076 55.3315 48.3883C54.4144 51.8049 53.5503 55.2315 52.6432 58.6514C51.9479 61.2669 51.2196 63.8724 50.5177 66.4845C49.8092 69.1165 49.1041 71.7518 48.4088 74.3871C48.1771 75.2612 48.1936 75.2578 47.3659 74.9698C41.5292 72.9371 35.7653 70.7057 29.9087 68.7325C22.5391 66.2495 15.143 63.8459 7.71715 61.5317C5.29704 60.7769 2.87361 60.032 0.453499 59.2805C-0.0464146 59.1249 -0.0464146 59.1216 0.0495954 58.6283C1.06929 53.255 2.07574 47.8751 3.11529 42.5052C4.12505 37.2809 5.17454 32.06 6.19092 26.8357C7.07819 22.2802 7.93234 17.7181 8.83285 13.1659C9.25331 11.0371 9.7466 8.91829 10.2068 6.79614C10.6339 4.81966 11.0609 2.84318 11.4781 0.863387C11.6767 -0.0768482 11.6701 -0.0669162 12.5971 0.0622006C14.1995 0.287327 15.8018 0.49259 17.4075 0.707785C17.5333 0.724338 17.6591 0.757445 17.7883 0.757445C18.0697 0.757445 18.1524 0.883251 18.1193 1.15804C18.0432 1.81355 17.9935 2.46907 17.9306 3.18087L17.9273 3.18418Z" fill="#AECF55"/>
<path d="M41.6384 26.1207L32.1963 56.3837L21.3174 52.9902L28.3592 30.4212L22.8271 28.6964L25.2273 20.999L41.6417 26.1173L41.6384 26.1207Z" fill="white"/>
</svg>
