<svg width="18" height="18" viewBox="0 0 18 18" fill="none" xmlns="http://www.w3.org/2000/svg">
<path fill-rule="evenodd" clip-rule="evenodd" d="M14.95 2.94375C13.3563 1.35 11.2312 0.5 9 0.5C4.325 0.5 0.5 4.325 0.5 9C0.5 10.4875 0.925007 11.975 1.66876 13.25L0.5 17.5L4.96251 16.3312C6.23751 16.9688 7.61875 17.3937 9 17.3937C13.675 17.3937 17.5 13.5687 17.5 8.89375C17.5 6.6625 16.5438 4.5375 14.95 2.94375ZM9 16.0125C7.725 16.0125 6.45001 15.6938 5.38751 15.0563L5.17499 14.95L2.51874 15.6937L3.26251 13.1437L3.04999 12.825C2.30624 11.6562 1.98749 10.3813 1.98749 9.10625C1.98749 5.28125 5.175 2.09375 9 2.09375C10.9125 2.09375 12.6125 2.8375 13.9938 4.1125C15.375 5.49375 16.0125 7.19375 16.0125 9.10625C16.0125 12.825 12.9312 16.0125 9 16.0125ZM12.825 10.7C12.6125 10.5938 11.55 10.0625 11.3375 10.0625C11.125 9.95625 11.0187 9.95625 10.9125 10.1688C10.8062 10.3813 10.3813 10.8062 10.275 11.0187C10.1688 11.125 10.0625 11.125 9.84999 11.125C9.63749 11.0188 9.00001 10.8062 8.15001 10.0625C7.51251 9.53125 7.08751 8.7875 6.98126 8.575C6.87501 8.3625 6.98126 8.25625 7.08751 8.15C7.19376 8.04375 7.3 7.9375 7.40625 7.83125C7.5125 7.725 7.51251 7.61875 7.61876 7.5125C7.72501 7.40625 7.61876 7.3 7.61876 7.19375C7.61876 7.0875 7.19376 6.025 6.98126 5.6C6.87501 5.28125 6.66251 5.28125 6.55626 5.28125C6.45001 5.28125 6.34374 5.28125 6.13124 5.28125C6.02499 5.28125 5.81249 5.28125 5.59999 5.49375C5.38749 5.70625 4.85626 6.2375 4.85626 7.3C4.85626 8.3625 5.59999 9.31875 5.70624 9.53125C5.81249 9.6375 7.19374 11.8687 9.31874 12.7188C11.125 13.4625 11.4438 13.25 11.8688 13.25C12.2938 13.25 13.1438 12.7188 13.25 12.2938C13.4625 11.7625 13.4625 11.3375 13.3563 11.3375C13.25 10.8063 13.0375 10.8063 12.825 10.7Z" fill="white"/>
</svg>
