<svg width="71" height="72" viewBox="0 0 71 72" fill="none" xmlns="http://www.w3.org/2000/svg">
<path d="M6.28646 13.0729C9.75837 13.0729 12.5729 10.2584 12.5729 6.78646C12.5729 3.31454 9.75837 0.5 6.28646 0.5C2.81454 0.5 0 3.31454 0 6.78646C0 10.2584 2.81454 13.0729 6.28646 13.0729Z" fill="#7B68EE"/>
<path d="M64.7137 13.0729C68.1856 13.0729 71.0002 10.2584 71.0002 6.78646C71.0002 3.31454 68.1856 0.5 64.7137 0.5C61.2418 0.5 58.4272 3.31454 58.4272 6.78646C58.4272 10.2584 61.2418 13.0729 64.7137 13.0729Z" fill="#7B68EE"/>
<path d="M6.28646 71.5007C9.75837 71.5007 12.5729 68.6861 12.5729 65.2142C12.5729 61.7423 9.75837 58.9277 6.28646 58.9277C2.81454 58.9277 0 61.7423 0 65.2142C0 68.6861 2.81454 71.5007 6.28646 71.5007Z" fill="#7B68EE"/>
<path d="M64.7137 71.5007C68.1856 71.5007 71.0002 68.6861 71.0002 65.2142C71.0002 61.7423 68.1856 58.9277 64.7137 58.9277C61.2418 58.9277 58.4272 61.7423 58.4272 65.2142C58.4272 68.6861 61.2418 71.5007 64.7137 71.5007Z" fill="#7B68EE"/>
<path d="M6.37393 17.2905C5.71535 17.2905 5.07178 17.2263 4.44681 17.1088C4.44306 17.236 4.4375 17.363 4.4375 17.4909C4.4375 20.8441 5.74327 23.9964 8.11427 26.3673L9.61155 27.8646C12.3003 19.4539 18.954 12.8003 27.3646 10.1116L25.867 8.61433C23.496 6.24329 20.3437 4.9375 16.9906 4.9375C16.8627 4.9375 16.7358 4.94306 16.6084 4.94681C16.7259 5.57193 16.7901 6.21552 16.7901 6.87411C16.7901 12.6177 12.1174 17.2905 6.37393 17.2905Z" fill="#7B68EE"/>
<path d="M61.3883 27.8646L62.8855 26.3673C65.2566 23.9963 66.5623 20.8439 66.5623 17.4908C66.5623 17.3629 66.5568 17.236 66.553 17.1087C65.9281 17.2262 65.2845 17.2904 64.6259 17.2904C58.8824 17.2904 54.2097 12.6176 54.2097 6.87398C54.2097 6.21539 54.2738 5.57179 54.3913 4.94681C54.264 4.94306 54.137 4.9375 54.0091 4.9375C50.6561 4.9375 47.5037 6.24316 45.1327 8.61436L43.6353 10.1117C52.0457 12.8002 58.6995 19.4538 61.3883 27.8646Z" fill="#7B68EE"/>
<path d="M9.61159 44.1348L8.11429 45.632C5.74328 48.0029 4.4375 51.1553 4.4375 54.5084C4.4375 54.6363 4.44306 54.7633 4.44681 54.8905C5.07192 54.7731 5.7155 54.709 6.37408 54.709C12.1176 54.709 16.7903 59.3818 16.7903 65.1254C16.7903 65.784 16.7261 66.4276 16.6087 67.0525C16.7359 67.0563 16.8629 67.0618 16.9909 67.0618C20.3439 67.0618 23.4963 65.7562 25.8673 63.385L27.3646 61.8877C18.954 59.1991 12.3004 52.5454 9.61159 44.1348Z" fill="#7B68EE"/>
<path d="M64.6259 54.7088C65.2845 54.7088 65.9281 54.773 66.553 54.8905C66.5568 54.7633 66.5623 54.6363 66.5623 54.5084C66.5623 51.1552 65.2566 48.0029 62.8855 45.632L61.3883 44.1348C58.6995 52.5454 52.0459 59.1991 43.6353 61.8877L45.1326 63.385C47.5036 65.756 50.6559 67.0618 54.009 67.0618C54.1369 67.0618 54.2638 67.0563 54.3912 67.0525C54.2737 66.4276 54.2095 65.784 54.2095 65.1254C54.2097 59.3816 58.8824 54.7088 64.6259 54.7088Z" fill="#7B68EE"/>
<ellipse cx="35.4998" cy="36.3691" rx="22.9271" ry="23.2969" fill="#7B68EE"/>
</svg>
