<svg width="18" height="17" viewBox="0 0 18 17" fill="none" xmlns="http://www.w3.org/2000/svg">
<path d="M13.7334 10.331C13.5263 10.5291 13.4311 10.8157 13.4783 11.0967L14.1894 14.9806C14.2494 15.3098 14.1086 15.643 13.8294 15.8332C13.5559 16.0306 13.1919 16.0543 12.8935 15.8964L9.35081 14.0728C9.22763 14.0081 9.09084 13.9733 8.95086 13.9694H8.73409C8.6589 13.9804 8.58531 14.0041 8.51812 14.0404L4.97458 15.8727C4.7994 15.9595 4.60103 15.9903 4.40666 15.9595C3.93312 15.8711 3.61716 15.4259 3.69475 14.9562L4.40666 11.0722C4.45385 10.7888 4.35866 10.5007 4.15149 10.2994L1.26307 7.53641C1.0215 7.30511 0.937509 6.95776 1.04789 6.64436C1.15508 6.33175 1.42864 6.10361 1.759 6.05229L5.73448 5.48312C6.03684 5.45233 6.30241 5.27077 6.43839 5.00236L8.19016 1.45786C8.23176 1.37892 8.28535 1.3063 8.35014 1.24472L8.42213 1.18946C8.45973 1.14841 8.50292 1.11447 8.55091 1.08684L8.6381 1.05526L8.77408 1H9.11084C9.4116 1.03079 9.67637 1.20841 9.81475 1.47365L11.5897 5.00236C11.7177 5.26051 11.9665 5.4397 12.2536 5.48312L16.2291 6.05229C16.5651 6.09966 16.8458 6.32859 16.957 6.64436C17.0618 6.96092 16.9714 7.30826 16.725 7.53641L13.7334 10.331Z" stroke="#121027" stroke-width="2"/>
</svg>
