<svg width="52" height="64" viewBox="0 0 52 64" fill="none" xmlns="http://www.w3.org/2000/svg">
<path d="M49.4079 37.0359H45.483C45.483 36.7339 45.483 36.5326 45.483 36.2307V18.6187C45.483 17.0084 44.8791 15.3982 43.9733 14.1905C44.5772 14.0898 44.8791 14.1905 46.3887 14.0898C48.9047 14.0898 50.9175 16.1027 51.0182 18.7193L51.7227 34.5198C51.7227 35.8282 50.7163 37.0359 49.4079 37.0359Z" fill="#7B68EE"/>
<path d="M43.9741 40.7598C44.4773 45.2886 46.3894 54.2456 50.717 58.0699C51.9247 59.177 52.0253 61.0891 51.0189 62.2968C49.9118 63.5045 47.9997 63.7058 46.792 62.5987C41.6593 58.0699 39.4453 49.6161 38.5395 44.3828C38.7408 43.9803 38.8414 43.5777 38.942 43.3764C40.8542 43.1751 42.6657 42.1687 43.9741 40.7598Z" fill="#7B68EE"/>
<path d="M36.224 21.4364C34.7144 19.323 34.2112 16.5051 34.7144 13.989C35.7208 13.0833 37.1298 12.5801 38.5387 12.5801C41.8599 12.5801 44.5771 15.2974 44.5771 18.6185V27.0723C43.772 26.7704 42.9669 26.4685 42.2624 26.1665C42.4637 22.4428 42.0611 19.323 42.0611 18.6185C41.8599 16.9076 40.3503 15.8006 38.74 16.0019C37.1298 16.2031 35.9221 17.7127 36.1234 19.4236C36.1234 20.0275 36.1234 20.7319 36.224 21.4364Z" fill="#7B68EE"/>
<path d="M32.5002 36.2301V18.618C32.5002 17.4103 32.9028 16.2026 33.5067 15.2969C33.3054 18.1148 34.2111 20.8321 36.3246 23.1468C36.4252 25.8641 36.1233 31.3993 34.3118 33.6134C33.2047 34.9217 33.406 36.8339 34.7143 37.8403C36.0227 38.9474 37.9348 38.7461 38.9412 37.4378C41.1553 34.8211 41.9604 30.7955 42.2624 27.1724C43.0675 27.4744 43.772 27.7763 44.6777 28.0782V36.1294C44.6777 39.5512 41.8598 42.3691 38.2367 42.1679C37.2303 44.1807 34.7143 50.4204 34.7143 60.1825C34.7143 61.8934 33.406 63.2017 31.6951 63.2017C30.0849 63.2017 28.6759 61.8934 28.6759 60.1825C28.5753 48.3069 32.0977 40.8595 33.1041 38.8467C32.7015 38.0416 32.5002 37.1358 32.5002 36.2301Z" fill="#7B68EE"/>
<path d="M38.5388 11.8756C35.3183 11.8756 32.601 9.25891 32.601 5.93778C32.601 2.71729 35.2176 0 38.5388 0C41.7593 0 44.4766 2.61665 44.4766 5.93778C44.3759 9.25891 41.7593 11.8756 38.5388 11.8756Z" fill="#7B68EE"/>
<path d="M38.7399 17.1072C39.847 17.0066 40.8534 17.711 40.954 18.8181C41.1553 20.1264 42.363 31.5994 38.0355 36.8327C37.331 37.7385 36.0226 37.8391 35.2175 37.1346C34.4124 36.4301 34.2111 35.1218 34.9156 34.3167C37.7335 30.9956 37.331 22.3405 36.9284 19.3213C36.8278 18.2142 37.6329 17.2078 38.7399 17.1072Z" fill="#7B68EE"/>
<path d="M21.7316 37.0359H17.9073C17.9073 36.7339 17.9073 36.5326 17.9073 36.2307V18.6187C17.9073 17.0084 17.3035 15.3982 16.3977 14.1905C17.0015 14.0898 17.3035 14.1905 18.8131 14.0898C21.3291 14.0898 23.3419 16.1027 23.4425 18.7193L24.0464 34.4192C24.147 35.8282 23.04 37.0359 21.7316 37.0359Z" fill="#7B68EE"/>
<path d="M16.2973 40.7598C16.9012 45.3892 18.7127 54.2456 23.0402 58.0699C24.2479 59.177 24.3485 61.0891 23.3421 62.2968C22.2351 63.5045 20.3229 63.7058 19.1152 62.5987C13.9826 58.0699 11.7685 49.6161 10.8627 44.3828C10.9634 43.9803 11.1647 43.5777 11.2653 43.3764C13.2781 43.1751 15.0896 42.1687 16.2973 40.7598Z" fill="#7B68EE"/>
<path d="M8.54822 21.4375C8.34694 21.1355 8.04502 20.733 7.94438 20.3304C6.63605 17.7138 6.83733 15.1978 7.03861 13.8894C8.04501 12.9837 9.45398 12.4805 10.8629 12.4805C14.1841 12.4805 16.9014 15.1978 16.9014 18.5189V26.9727C16.0962 26.6708 15.2911 26.3688 14.5866 26.0669C14.7879 22.3432 14.486 19.2234 14.3854 18.6195C14.1841 16.9086 12.6745 15.8016 11.0642 16.0029C9.45398 16.2042 8.2463 17.7138 8.44758 19.4247C8.44758 20.0285 8.54822 20.733 8.54822 21.4375Z" fill="#7B68EE"/>
<path d="M10.863 11.8756C7.64251 11.8756 4.92522 9.25891 4.92522 5.93778C4.92522 2.71729 7.54187 0 10.863 0C14.0835 0 16.8008 2.61665 16.8008 5.93778C16.8008 9.25891 14.1841 11.8756 10.863 11.8756Z" fill="#7B68EE"/>
<path d="M5.52895 38.8467C5.12639 38.0416 4.92511 37.1358 4.92511 36.2301V18.618C4.92511 17.4103 5.32767 16.2026 5.93151 15.2969C5.83087 16.8065 6.03215 18.7186 7.1392 20.8321C7.54176 21.6372 8.1456 22.4423 8.74944 23.1468V23.8513C8.74944 27.575 8.24624 31.7013 6.63599 33.5128C5.62959 34.8211 5.73023 36.7333 7.03855 37.7397C8.34688 38.8467 10.259 38.6454 11.2655 37.3371C13.4795 34.7205 14.2847 30.6949 14.5866 27.0718C15.3917 27.3737 16.0962 27.6756 17.002 27.9776V36.0288C17.002 39.3499 14.2847 42.0672 10.9635 42.0672H10.561C9.55456 44.08 7.03855 50.3197 7.03855 60.0818C7.03855 61.7927 5.73023 63.1011 4.01934 63.1011C2.4091 63.1011 1.00013 61.7927 1.00013 60.0818C0.89949 48.3069 4.4219 40.8595 5.52895 38.8467Z" fill="#7B68EE"/>
<path d="M11.1647 17.1072C12.2718 17.0066 13.2782 17.711 13.3788 18.8181C13.5801 20.1264 14.7878 31.5994 10.4603 36.8327C9.75578 37.7385 8.44746 37.8391 7.64233 37.1346C6.83721 36.4301 6.63593 35.1218 7.34041 34.3167C10.1583 30.9956 9.75578 22.3405 9.35322 19.3213C9.25258 18.2142 10.0577 17.2078 11.1647 17.1072Z" fill="#7B68EE"/>
</svg>
