<svg width="66" height="76" viewBox="0 0 66 76" fill="none" xmlns="http://www.w3.org/2000/svg">
<path d="M17.9273 3.18418C16.5666 3.08817 15.6065 3.66423 14.9378 4.7402C13.8187 6.54122 14.802 9.08382 16.8513 9.72941C18.5332 10.2591 20.1455 9.70954 20.9665 8.29919C21.4929 7.39537 21.5624 6.44852 21.142 5.47849C20.9301 4.9885 20.5494 4.65412 20.0892 4.40582C19.8905 4.29657 19.7581 4.17407 19.8276 3.9026C20.0395 3.07824 20.2216 2.24394 20.4203 1.41627C20.4567 1.26067 20.4567 1.0852 20.7348 1.14811C22.1882 1.48249 23.6714 1.63809 25.138 1.8897C26.3133 2.09165 27.4886 2.29691 28.6672 2.47238C28.9519 2.51542 29.0314 2.60481 28.9685 2.87628C28.7996 3.60133 28.644 4.32968 28.4785 5.05803C28.4123 5.35599 28.2633 5.52484 27.9157 5.54801C26.4258 5.65064 25.2737 6.93519 25.277 8.46142C25.277 10.6796 27.5349 12.5236 29.72 12.1495C30.9085 11.9443 32.1269 10.5935 32.1368 9.43807C32.1467 8.32899 31.9812 7.30267 30.9482 6.65047C30.7231 6.50811 30.7231 6.35251 30.796 6.11745C31.084 5.2037 31.3621 4.28333 31.6104 3.35965C31.6998 3.02858 31.8454 2.99878 32.1566 3.04513C34.4145 3.37951 36.6261 3.92908 38.8442 4.44555C39.4865 4.59453 40.1255 4.76338 40.7744 4.88256C41.0856 4.94215 41.165 5.07789 41.0955 5.3593C40.9829 5.81287 40.8671 6.26974 40.7744 6.72661C40.7181 7.00471 40.5062 7.03451 40.2976 7.06431C39.801 7.13714 39.3773 7.36558 38.9601 7.62712C36.6691 9.06727 37.2286 11.9972 38.6092 13.2685C39.7447 14.3147 41.9761 14.8875 43.6878 14.0167C45.7205 12.9838 46.1807 10.6134 44.6512 8.91167C44.2804 8.49783 43.9063 8.084 43.36 7.8986C43.1051 7.81252 43.1018 7.65692 43.1746 7.45166C43.3633 6.93188 43.5653 6.41541 43.7374 5.88901C43.8235 5.62416 43.9692 5.58112 44.2208 5.64071C45.3431 5.89894 46.4654 6.13731 47.5878 6.39224C49.8092 6.90208 52.0274 7.41855 54.2489 7.92839C55.1163 8.12704 55.1361 8.17007 54.8018 9.00768C54.6991 9.2626 54.6627 9.5407 54.5965 9.80886C54.5468 10.0108 54.4243 10.0936 54.2191 10.0439C53.1696 9.789 52.2956 10.2128 51.4977 10.812C50.3058 11.7092 50.286 13.1924 50.5906 14.169C50.8918 15.1291 51.5242 15.831 52.3585 16.3607C53.9575 17.3738 55.6129 17.4301 57.2682 16.5362C58.6322 15.7979 59.3043 14.4107 59.0461 13.0202C58.8938 12.2058 58.4865 11.5602 57.7913 11.0967C57.4768 10.8848 57.0199 10.7094 56.9107 10.4147C56.7849 10.0704 57.1556 9.68306 57.2947 9.30564C57.3179 9.24605 57.3576 9.18977 57.3708 9.13017C57.4536 8.77924 57.6688 8.73951 57.9899 8.81897C59.3738 9.16328 60.7643 9.49435 62.1515 9.82542C63.2274 10.0837 64.3034 10.3419 65.3827 10.6001C65.8032 10.6994 65.8197 10.6994 65.7005 11.1398C65.2933 12.6627 64.8894 14.1856 64.459 15.7019C62.5885 22.3233 60.6981 28.9413 58.8408 35.566C57.6456 39.8335 56.4803 44.1076 55.3315 48.3883C54.4144 51.8049 53.5503 55.2315 52.6432 58.6514C51.9479 61.2669 51.2196 63.8724 50.5177 66.4845C49.8092 69.1165 49.1041 71.7518 48.4088 74.3871C48.1771 75.2612 48.1936 75.2578 47.3659 74.9698C41.5292 72.9371 35.7653 70.7057 29.9087 68.7325C22.5391 66.2495 15.143 63.8459 7.71715 61.5317C5.29704 60.7769 2.87361 60.032 0.453499 59.2805C-0.0464146 59.1249 -0.0464146 59.1216 0.0495954 58.6283C1.06929 53.255 2.07574 47.8751 3.11529 42.5052C4.12505 37.2809 5.17454 32.06 6.19092 26.8357C7.07819 22.2802 7.93234 17.7181 8.83285 13.1659C9.25331 11.0371 9.7466 8.91829 10.2068 6.79614C10.6339 4.81966 11.0609 2.84318 11.4781 0.863387C11.6767 -0.0768482 11.6701 -0.0669162 12.5971 0.0622006C14.1995 0.287327 15.8018 0.49259 17.4075 0.707785C17.5333 0.724338 17.6591 0.757445 17.7883 0.757445C18.0697 0.757445 18.1524 0.883251 18.1193 1.15804C18.0432 1.81355 17.9935 2.46907 17.9306 3.18087L17.9273 3.18418Z" fill="#FFC800"/>
<path d="M20.652 49.6755C21.7094 49.9585 22.796 49.3309 23.079 48.2736C23.3621 47.2162 22.7345 46.1296 21.6772 45.8465C20.6198 45.5635 19.5332 46.1911 19.2501 47.2484C18.9671 48.3058 19.5947 49.3924 20.652 49.6755Z" fill="white"/>
<path d="M48.2166 26.2066C47.6341 25.197 46.6934 24.475 45.5675 24.1736L44.8051 23.9695L44.3951 25.501C43.9429 27.19 42.2008 28.1963 40.5118 27.7441L26.7277 24.0536C25.0387 23.6014 24.0325 21.8594 24.4847 20.1704L24.8948 18.6389L24.1256 18.4329C21.8058 17.8119 19.4111 19.1933 18.7874 21.5124L11.1291 49.9911C10.8264 51.1166 10.9805 52.2925 11.5628 53.3021C12.1452 54.3117 13.0861 55.0338 14.2119 55.3352L35.6538 61.0758C37.9737 61.6969 40.3684 60.3154 40.992 57.9963L48.6504 29.5177C48.9531 28.3921 48.7991 27.2162 48.2166 26.2066ZM16.9526 46.6312C17.5744 44.3088 19.9696 42.9253 22.292 43.547C24.6144 44.1688 25.998 46.5641 25.3762 48.8865C24.7544 51.2088 22.3592 52.5924 20.0368 51.9706C17.7144 51.3489 16.3308 48.9536 16.9526 46.6312ZM35.3244 31.3757C34.9959 30.8071 35.1906 30.0797 35.7593 29.7512C36.3279 29.4228 37.0552 29.6175 37.3838 30.1862L38.7716 32.5888L41.1742 31.201C41.7428 30.8725 42.4702 31.0673 42.7987 31.6359C43.1272 32.2045 42.9325 32.9319 42.3638 33.2603L39.9611 34.6482L41.3489 37.0508C41.6775 37.6194 41.4827 38.3468 40.914 38.6753C40.6297 38.8395 40.3057 38.873 40.0118 38.7943C39.7178 38.7156 39.4538 38.5247 39.2897 38.2404L37.9018 35.8377L35.4992 37.2256C35.2148 37.3898 34.8908 37.4233 34.5969 37.3446C34.303 37.2659 34.039 37.075 33.8748 36.7907C33.5463 36.222 33.741 35.4947 34.3097 35.1662L36.7124 33.7784L35.3244 31.3757ZM25.4068 27.3668C25.9754 27.0384 26.7028 27.2331 27.0313 27.8018L29.0209 31.2463C29.3494 31.8149 29.1547 32.5422 28.586 32.8707C28.3016 33.035 27.9776 33.0684 27.6837 32.9898C27.3898 32.9111 27.1258 32.7202 26.9616 32.4358L26.4124 31.485L25.3503 35.4522C24.9696 36.8739 25.516 38.4075 26.7098 39.2684L32.707 43.5929C34.6967 45.0276 35.6072 47.5836 34.9728 49.9531L33.7773 54.4184C33.6074 55.0528 32.9554 55.4294 32.3211 55.2595C31.6867 55.0897 31.3101 54.4377 31.4799 53.8033L32.6754 49.338C33.056 47.9164 32.5097 46.3827 31.3159 45.5219L25.3188 41.1974C23.3291 39.7627 22.4185 37.2066 23.0529 34.8372L24.1184 30.8575L23.1676 31.4068C22.599 31.7352 21.8716 31.5405 21.5431 30.9718C21.2146 30.4032 21.4093 29.6759 21.978 29.3474L25.4068 27.3668Z" fill="white"/>
<path d="M26.782 20.7859C26.6688 21.2089 26.9198 21.6435 27.3428 21.7567L41.1269 25.4472C41.5498 25.5604 41.9844 25.3093 42.0977 24.8864L42.9178 21.8233C43.031 21.4003 42.7799 20.9657 42.357 20.8525L28.5729 17.1621C28.15 17.0488 27.7153 17.2999 27.6021 17.7228L26.782 20.7859Z" fill="white"/>
</svg>
