<svg width="76" height="75" viewBox="0 0 76 75" fill="none" xmlns="http://www.w3.org/2000/svg">
<g clip-path="url(#clip0_2420_11957)">
<path d="M51.3733 1.07624L53.6208 5.66556C53.8981 6.23194 54.4358 6.62612 55.0593 6.72028L60.2291 7.50103C61.8176 7.74102 62.4277 9.70871 61.2532 10.8052L57.5571 14.2557C57.0804 14.7006 56.8621 15.3568 56.9769 15.9986L57.9015 21.164C58.1868 22.7587 56.4917 23.9691 55.076 23.1813L50.5823 20.6804C50.0014 20.357 49.2946 20.357 48.7137 20.6804L44.22 23.1813C42.8044 23.9693 41.109 22.7589 41.3946 21.164L42.3191 15.9986C42.4339 15.3568 42.2156 14.7007 41.739 14.2557L38.0429 10.8053C36.8685 9.709 37.4784 7.74117 39.067 7.50117L44.2367 6.72042C44.8602 6.62627 45.3979 6.23209 45.6752 5.66571L47.9223 1.07624C48.625 -0.358747 50.6704 -0.358747 51.3733 1.07624Z" fill="#FFC800"/>
<path d="M60.2285 7.50063L55.0588 6.71988C54.9169 6.6985 54.7794 6.66145 54.6483 6.61035C55.3684 7.56081 55.3771 8.9977 54.3695 9.9382L51.7463 12.3873C51.1304 12.9624 50.8481 13.8105 50.9964 14.64L51.6584 18.3384C51.8379 19.3415 51.4111 20.2268 50.7148 20.754L55.0754 23.1808C56.4911 23.9687 58.1863 22.7583 57.9009 21.1635L56.9764 15.9981C56.8616 15.3563 57.0799 14.7002 57.5565 14.2552L61.2526 10.8048C62.4271 9.70846 61.8171 7.74062 60.2285 7.50063Z" fill="#FFA800"/>
<path d="M73.1276 14.0812H68.442C67.8353 14.0812 67.3438 13.5896 67.3438 12.983C67.3438 12.3763 67.8353 11.8848 68.442 11.8848H73.1276C73.7343 11.8848 74.2258 12.3763 74.2258 12.983C74.2258 13.5896 73.7343 14.0812 73.1276 14.0812Z" fill="#FFC800"/>
<path d="M70.1825 24.721C70.0248 24.721 69.8645 24.6869 69.7126 24.6147L65.6284 22.6775C65.0803 22.4176 64.8467 21.7626 65.1068 21.2147C65.3668 20.6666 66.0222 20.4333 66.5696 20.6931L70.6539 22.6303C71.202 22.8902 71.4355 23.5452 71.1755 24.0931C70.9876 24.4892 70.5934 24.721 70.1825 24.721Z" fill="#FFC800"/>
<path d="M66.0996 5.37935C65.6886 5.37935 65.2946 5.14756 65.1067 4.75147C64.8468 4.20354 65.0802 3.54857 65.6283 3.28866L69.7126 1.35143C70.2599 1.09138 70.9153 1.32478 71.1754 1.87301C71.4353 2.42094 71.2019 3.0759 70.6538 3.33581L66.5695 5.27304C66.4177 5.34523 66.2573 5.37935 66.0996 5.37935Z" fill="#FFC800"/>
<path d="M30.8522 14.0812H26.1666C25.5601 14.0812 25.0684 13.5896 25.0684 12.983C25.0684 12.3763 25.5601 11.8848 26.1666 11.8848H30.8522C31.4587 11.8848 31.9504 12.3763 31.9504 12.983C31.9504 13.5896 31.4587 14.0812 30.8522 14.0812Z" fill="#FFC800"/>
<path d="M29.112 24.721C28.7009 24.721 28.3068 24.4892 28.1189 24.0931C27.859 23.5452 28.0925 22.8902 28.6405 22.6303L32.7248 20.6931C33.2728 20.4333 33.9277 20.6667 34.1877 21.2146C34.4478 21.7626 34.2141 22.4175 33.6661 22.6774L29.5819 24.6147C29.4299 24.6869 29.2697 24.721 29.112 24.721Z" fill="#FFC800"/>
<path d="M33.1946 5.37926C33.0369 5.37926 32.8768 5.34514 32.7248 5.27296L28.6405 3.33572C28.0925 3.07582 27.859 2.42085 28.1189 1.87292C28.3788 1.32484 29.0338 1.09144 29.5819 1.35134L33.6661 3.28858C34.2141 3.54848 34.4476 4.20345 34.1877 4.75138C33.9999 5.14747 33.6057 5.37926 33.1946 5.37926Z" fill="#FFC800"/>
<path d="M66.019 28.1143H30.8765C29.6269 28.1143 28.6138 29.1272 28.6138 30.377V39.8284L63.7563 42.1713L66.019 28.1143Z" fill="#7AD7FF"/>
<path d="M56.6479 39.8281H21.5054C20.2558 39.8281 19.2427 40.8411 19.2427 42.0909V51.5423L54.3852 53.8851L56.6479 39.8281Z" fill="#ABE6FF"/>
<path d="M47.2764 51.542H12.1338C10.8841 51.542 9.87109 52.555 9.87109 53.8047V63.2562L45.0136 65.599L47.2764 51.542Z" fill="#7AD7FF"/>
<path d="M37.9053 63.2568H2.76274C1.51298 63.2568 0.5 64.2698 0.5 65.5196V73.5067C0.5 74.3155 1.15555 74.971 1.96427 74.971H35.6425L37.9053 63.2568Z" fill="#ABE6FF"/>
<path d="M0.5 71.9541V73.5068C0.5 74.3155 1.15555 74.9711 1.96427 74.9711H35.6425L36.2253 71.9541H0.5Z" fill="#7AD7FF"/>
<path d="M63.7566 30.377V39.8284H56.648C55.3984 39.8284 54.3853 40.8414 54.3853 42.0912V51.5426H47.2767C46.027 51.5426 45.0139 52.5556 45.0139 53.8053V63.2568H37.9053C36.6557 63.2568 35.6426 64.2698 35.6426 65.5195V74.971H74.0065C74.8152 74.971 75.4708 74.3154 75.4708 73.5067V29.5785C75.4708 28.7698 74.8152 28.1143 74.0065 28.1143H66.0193C64.7696 28.1143 63.7566 29.1272 63.7566 30.377Z" fill="#3BC4FF"/>
<path opacity="0.5" d="M69.4369 28.1143V63.4441C69.4369 68.1439 65.6269 71.954 60.927 71.954H35.6426V74.971H74.0065C74.8152 74.971 75.4708 74.3154 75.4708 73.5067V29.5785C75.4708 28.7698 74.8152 28.1143 74.0065 28.1143H69.4369Z" fill="#379CFA"/>
</g>
<defs>
<clipPath id="clip0_2420_11957">
<rect width="74.9707" height="74.9707" fill="white" transform="translate(0.5)"/>
</clipPath>
</defs>
</svg>
