<svg width="24" height="28" viewBox="0 0 24 28" fill="none" xmlns="http://www.w3.org/2000/svg">
<path fill-rule="evenodd" clip-rule="evenodd" d="M22.1735 9.83594C22.4993 9.83217 22.8541 9.82808 23.1764 9.82808C23.523 9.82808 23.8002 10.1081 23.8002 10.4581V21.7142C23.8002 25.1862 21.014 28.0002 17.5764 28.0002H6.54263C2.93864 28.0002 0 25.0462 0 21.4062V6.31405C0 2.84202 2.80002 0 6.25154 0H13.6536C14.014 0 14.2912 0.294002 14.2912 0.644005V5.15204C14.2912 7.71406 16.3843 9.81408 18.9209 9.82808C19.5135 9.82808 20.0358 9.83251 20.4929 9.83638C20.8486 9.8394 21.1647 9.84208 21.4437 9.84208C21.6411 9.84208 21.8968 9.83913 22.1735 9.83594ZM7.25 12.25C6.55964 12.25 6 12.8096 6 13.5C6 14.1904 6.55964 14.75 7.25 14.75H15.95C16.6404 14.75 17.2 14.1904 17.2 13.5C17.2 12.8096 16.6404 12.25 15.95 12.25H7.25ZM7.25 18.05C6.55964 18.05 6 18.6096 6 19.3C6 19.9904 6.55964 20.55 7.25 20.55L13.05 20.55C13.7404 20.55 14.3 19.9904 14.3 19.3C14.3 18.6096 13.7404 18.05 13.05 18.05L7.25 18.05ZM22.5557 7.79228C21.4163 7.79648 20.0731 7.79228 19.107 7.78248C17.5739 7.78248 16.3111 6.50707 16.3111 4.95866V1.26823C16.3111 0.664824 17.0361 0.365222 17.4505 0.800625C18.201 1.58882 19.2326 2.6724 20.2592 3.75089C21.2823 4.82559 22.3006 5.89522 23.0312 6.66247C23.4359 7.08668 23.1393 7.79088 22.5557 7.79228Z" fill="white"/>
</svg>
