<svg width="24" height="28" viewBox="0 0 24 28" fill="none" xmlns="http://www.w3.org/2000/svg">
<path fill-rule="evenodd" clip-rule="evenodd" d="M22.2736 9.83594C22.5994 9.83217 22.9542 9.82808 23.2765 9.82808C23.6231 9.82808 23.9003 10.1081 23.9003 10.4581V21.7142C23.9003 25.1862 21.1141 28.0002 17.6765 28.0002H6.64273C3.03874 28.0002 0.100098 25.0462 0.100098 21.4062V6.31405C0.100098 2.84202 2.90012 0 6.35163 0H13.7537C14.1141 0 14.3913 0.294002 14.3913 0.644005V5.15204C14.3913 7.71406 16.4844 9.81408 19.021 9.82808C19.6136 9.82808 20.1359 9.83251 20.593 9.83638C20.9487 9.8394 21.2648 9.84208 21.5438 9.84208C21.7412 9.84208 21.9969 9.83913 22.2736 9.83594ZM7.3501 12.25C6.65974 12.25 6.1001 12.8096 6.1001 13.5C6.1001 14.1904 6.65974 14.75 7.3501 14.75H16.0501C16.7405 14.75 17.3001 14.1904 17.3001 13.5C17.3001 12.8096 16.7405 12.25 16.0501 12.25H7.3501ZM7.3501 18.05C6.65974 18.05 6.1001 18.6096 6.1001 19.3C6.1001 19.9904 6.65974 20.55 7.3501 20.55L13.1501 20.55C13.8405 20.55 14.4001 19.9904 14.4001 19.3C14.4001 18.6096 13.8405 18.05 13.1501 18.05L7.3501 18.05ZM22.6557 7.79184C21.5163 7.79604 20.1731 7.79184 19.207 7.78204C17.6739 7.78204 16.4111 6.50663 16.4111 4.95821V1.26778C16.4111 0.664378 17.1361 0.364775 17.5505 0.800179C18.3011 1.58843 19.3328 2.67211 20.3595 3.75067C21.3825 4.82529 22.4006 5.89483 23.1312 6.66203C23.5359 7.08623 23.2393 7.79044 22.6557 7.79184Z" fill="white"/>
</svg>
