<svg width="38" height="38" viewBox="0 0 38 38" fill="none" xmlns="http://www.w3.org/2000/svg">
<path d="M15.833 22.1679C16.8753 23.2317 18.302 23.8312 19.7913 23.8312C21.2807 23.8312 22.7073 23.2317 23.7497 22.1679L30.083 15.8346C32.2691 13.6485 32.2691 10.104 30.083 7.91792C27.8969 5.73179 24.3525 5.73179 22.1663 7.91792L21.3747 8.70958" stroke="white" stroke-width="2.5" stroke-linecap="round" stroke-linejoin="round"/>
<path d="M22.1665 15.8323C21.1241 14.7684 19.6975 14.1689 18.2081 14.1689C16.7188 14.1689 15.2921 14.7684 14.2498 15.8323L7.91645 22.1656C5.73032 24.3517 5.73032 27.8961 7.91645 30.0823C10.1026 32.2684 13.647 32.2684 15.8331 30.0823L16.6248 29.2906" stroke="white" stroke-width="2.5" stroke-linecap="round" stroke-linejoin="round"/>
</svg>
